<?xml version="1.0" standalone="no"?>
<!DOCTYPE svg PUBLIC "-//W3C//DTD SVG 1.1//EN" "http://www.w3.org/Graphics/SVG/1.1/DTD/svg11.dtd" >
<svg>
<metadata>
Created by FontForge 20090622 at Mon Aug 19 13:41:43 2019
 By deploy user
</metadata>
<defs>
<font id="Palatino" horiz-adv-x="1024" >
  <font-face 
    font-family="Palatino"
    font-weight="400"
    font-stretch="normal"
    units-per-em="2048"
    panose-1="2 2 5 0 0 0 0 0 0 0"
    ascent="1638"
    descent="-410"
    x-height="940"
    cap-height="1417"
    bbox="-1118 -580 2091 2322"
    underline-thickness="50"
    underline-position="-75"
    unicode-range="U+0020-U+F02A"
  />
<missing-glyph horiz-adv-x="1536" 
d="M256 0v1280h1024v-1280h-1024zM1247 33v1214h-958v-1214h958z" />
    <glyph glyph-name=".notdef" horiz-adv-x="1536" 
d="M256 0v1280h1024v-1280h-1024zM1247 33v1214h-958v-1214h958z" />
    <glyph glyph-name=".null" horiz-adv-x="0" 
 />
    <glyph glyph-name="nonmarkingreturn" horiz-adv-x="0" 
 />
    <glyph glyph-name="space" unicode=" " horiz-adv-x="512" 
 />
    <glyph glyph-name="space" unicode="&#x2031;" horiz-adv-x="512" 
 />
    <glyph glyph-name="space" unicode="&#x2025;" horiz-adv-x="512" 
 />
    <glyph glyph-name="space" unicode="&#x2024;" horiz-adv-x="512" 
 />
    <glyph glyph-name="space" unicode="&#x2023;" horiz-adv-x="512" 
 />
    <glyph glyph-name="space" unicode="&#x201f;" horiz-adv-x="512" 
 />
    <glyph glyph-name="space" unicode="&#x201b;" horiz-adv-x="512" 
 />
    <glyph glyph-name="space" unicode="&#x2017;" horiz-adv-x="512" 
 />
    <glyph glyph-name="space" unicode="&#x2016;" horiz-adv-x="512" 
 />
    <glyph glyph-name="space" unicode="&#x2015;" horiz-adv-x="512" 
 />
    <glyph glyph-name="exclam" unicode="!" horiz-adv-x="569" 
d="M283 -10q-47 0 -82 36t-35 83q0 45 35.5 81.5t81.5 36.5q48 0 84 -36t36 -82q0 -47 -35 -83t-85 -36zM328 1421h69v-51q0 -33 -3.5 -83t-9 -99t-11.5 -111l-49 -569v-51l-58 -47l-20 10q0 55 -4 82l-54 624q-5 66 -14 217z" />
    <glyph glyph-name="quotedbl" unicode="&#x22;" horiz-adv-x="760" 
d="M215 961h-41l-68 401q0 37 26.5 63.5t62.5 26.5t62 -27t26 -63zM586 961h-41l-68 401q0 36 27 63t61 27q36 0 62 -27t26 -63z" />
    <glyph glyph-name="numbersign" unicode="#" 
d="M963 573v-114h-224l-63 -459h-119l64 459h-275l-67 -459h-119l67 459h-219v114h238l43 285h-226v115h242l64 428h118l-63 -428h272l62 428h119l-62 -428h199v-115h-215l-41 -285h205zM680 858h-272l-43 -285h274z" />
    <glyph glyph-name="dollar" unicode="$" 
d="M457 37v571q-106 13 -168 28t-116.5 51t-83 97t-28.5 154q0 91 29 164.5t80 127t126.5 89t160.5 45.5q-2 47 -4 77t-4 56h92q-3 -34 -9 -127q222 -15 340 -88q-13 -49 -19.5 -118t-6.5 -140h-66v86q0 49 -6 74q-8 34 -50 59t-96.5 38t-95.5 15v-532q142 -15 230.5 -41.5
t145.5 -97.5t57 -199q0 -131 -59 -228.5t-159 -155.5t-215 -75q2 -35 3.5 -76.5t3 -75t2.5 -53.5h-92q4 50 8 201q-78 0 -184 21.5t-212 64.5q16 90 25 303h66v-131q0 -41 6 -53q27 -52 117.5 -89t181.5 -42zM532 598v-561q54 6 104 33.5t87 69t58.5 96t21.5 114.5
q0 86 -33.5 137t-92 75t-145.5 36zM457 776v514q-116 -9 -179 -84.5t-63 -195.5q0 -115 61 -168t181 -66z" />
    <glyph glyph-name="percent" unicode="%" horiz-adv-x="1720" 
d="M414 1411q88 0 160 -40t112.5 -112t40.5 -159q0 -73 -23 -136t-68.5 -110.5t-107.5 -73.5t-135 -26q-133 0 -223 88t-90 223q0 97 42 176.5t118.5 124.5t173.5 45zM408 1364q-65 0 -106 -44t-58 -109t-17 -130q0 -112 36.5 -196t133.5 -84q96 0 139.5 88.5t43.5 193.5
q0 110 -37 195.5t-135 85.5zM1329 657q88 0 160 -40t112.5 -112t40.5 -159q0 -96 -42 -175.5t-118.5 -125t-172.5 -45.5q-134 0 -224 88t-90 223q0 97 42 176.5t118.5 124.5t173.5 45zM1323 610q-94 0 -137 -88.5t-43 -193.5q0 -112 37 -196.5t133 -84.5q65 0 106 44
t58.5 111t17.5 128q0 109 -37 194.5t-135 85.5zM512 -41h-82l750 1493h82z" />
    <glyph glyph-name="percent" unicode="&#x202f;" horiz-adv-x="1720" 
d="M414 1411q88 0 160 -40t112.5 -112t40.5 -159q0 -73 -23 -136t-68.5 -110.5t-107.5 -73.5t-135 -26q-133 0 -223 88t-90 223q0 97 42 176.5t118.5 124.5t173.5 45zM408 1364q-65 0 -106 -44t-58 -109t-17 -130q0 -112 36.5 -196t133.5 -84q96 0 139.5 88.5t43.5 193.5
q0 110 -37 195.5t-135 85.5zM1329 657q88 0 160 -40t112.5 -112t40.5 -159q0 -96 -42 -175.5t-118.5 -125t-172.5 -45.5q-134 0 -224 88t-90 223q0 97 42 176.5t118.5 124.5t173.5 45zM1323 610q-94 0 -137 -88.5t-43 -193.5q0 -112 37 -196.5t133 -84.5q65 0 106 44
t58.5 111t17.5 128q0 109 -37 194.5t-135 85.5zM512 -41h-82l750 1493h82z" />
    <glyph glyph-name="percent" unicode="&#x202e;" horiz-adv-x="1720" 
d="M414 1411q88 0 160 -40t112.5 -112t40.5 -159q0 -73 -23 -136t-68.5 -110.5t-107.5 -73.5t-135 -26q-133 0 -223 88t-90 223q0 97 42 176.5t118.5 124.5t173.5 45zM408 1364q-65 0 -106 -44t-58 -109t-17 -130q0 -112 36.5 -196t133.5 -84q96 0 139.5 88.5t43.5 193.5
q0 110 -37 195.5t-135 85.5zM1329 657q88 0 160 -40t112.5 -112t40.5 -159q0 -96 -42 -175.5t-118.5 -125t-172.5 -45.5q-134 0 -224 88t-90 223q0 97 42 176.5t118.5 124.5t173.5 45zM1323 610q-94 0 -137 -88.5t-43 -193.5q0 -112 37 -196.5t133 -84.5q65 0 106 44
t58.5 111t17.5 128q0 109 -37 194.5t-135 85.5zM512 -41h-82l750 1493h82z" />
    <glyph glyph-name="percent" unicode="&#x202d;" horiz-adv-x="1720" 
d="M414 1411q88 0 160 -40t112.5 -112t40.5 -159q0 -73 -23 -136t-68.5 -110.5t-107.5 -73.5t-135 -26q-133 0 -223 88t-90 223q0 97 42 176.5t118.5 124.5t173.5 45zM408 1364q-65 0 -106 -44t-58 -109t-17 -130q0 -112 36.5 -196t133.5 -84q96 0 139.5 88.5t43.5 193.5
q0 110 -37 195.5t-135 85.5zM1329 657q88 0 160 -40t112.5 -112t40.5 -159q0 -96 -42 -175.5t-118.5 -125t-172.5 -45.5q-134 0 -224 88t-90 223q0 97 42 176.5t118.5 124.5t173.5 45zM1323 610q-94 0 -137 -88.5t-43 -193.5q0 -112 37 -196.5t133 -84.5q65 0 106 44
t58.5 111t17.5 128q0 109 -37 194.5t-135 85.5zM512 -41h-82l750 1493h82z" />
    <glyph glyph-name="percent" unicode="&#x202c;" horiz-adv-x="1720" 
d="M414 1411q88 0 160 -40t112.5 -112t40.5 -159q0 -73 -23 -136t-68.5 -110.5t-107.5 -73.5t-135 -26q-133 0 -223 88t-90 223q0 97 42 176.5t118.5 124.5t173.5 45zM408 1364q-65 0 -106 -44t-58 -109t-17 -130q0 -112 36.5 -196t133.5 -84q96 0 139.5 88.5t43.5 193.5
q0 110 -37 195.5t-135 85.5zM1329 657q88 0 160 -40t112.5 -112t40.5 -159q0 -96 -42 -175.5t-118.5 -125t-172.5 -45.5q-134 0 -224 88t-90 223q0 97 42 176.5t118.5 124.5t173.5 45zM1323 610q-94 0 -137 -88.5t-43 -193.5q0 -112 37 -196.5t133 -84.5q65 0 106 44
t58.5 111t17.5 128q0 109 -37 194.5t-135 85.5zM512 -41h-82l750 1493h82z" />
    <glyph glyph-name="percent" unicode="&#x202b;" horiz-adv-x="1720" 
d="M414 1411q88 0 160 -40t112.5 -112t40.5 -159q0 -73 -23 -136t-68.5 -110.5t-107.5 -73.5t-135 -26q-133 0 -223 88t-90 223q0 97 42 176.5t118.5 124.5t173.5 45zM408 1364q-65 0 -106 -44t-58 -109t-17 -130q0 -112 36.5 -196t133.5 -84q96 0 139.5 88.5t43.5 193.5
q0 110 -37 195.5t-135 85.5zM1329 657q88 0 160 -40t112.5 -112t40.5 -159q0 -96 -42 -175.5t-118.5 -125t-172.5 -45.5q-134 0 -224 88t-90 223q0 97 42 176.5t118.5 124.5t173.5 45zM1323 610q-94 0 -137 -88.5t-43 -193.5q0 -112 37 -196.5t133 -84.5q65 0 106 44
t58.5 111t17.5 128q0 109 -37 194.5t-135 85.5zM512 -41h-82l750 1493h82z" />
    <glyph glyph-name="percent" unicode="&#x202a;" horiz-adv-x="1720" 
d="M414 1411q88 0 160 -40t112.5 -112t40.5 -159q0 -73 -23 -136t-68.5 -110.5t-107.5 -73.5t-135 -26q-133 0 -223 88t-90 223q0 97 42 176.5t118.5 124.5t173.5 45zM408 1364q-65 0 -106 -44t-58 -109t-17 -130q0 -112 36.5 -196t133.5 -84q96 0 139.5 88.5t43.5 193.5
q0 110 -37 195.5t-135 85.5zM1329 657q88 0 160 -40t112.5 -112t40.5 -159q0 -96 -42 -175.5t-118.5 -125t-172.5 -45.5q-134 0 -224 88t-90 223q0 97 42 176.5t118.5 124.5t173.5 45zM1323 610q-94 0 -137 -88.5t-43 -193.5q0 -112 37 -196.5t133 -84.5q65 0 106 44
t58.5 111t17.5 128q0 109 -37 194.5t-135 85.5zM512 -41h-82l750 1493h82z" />
    <glyph glyph-name="percent" unicode="&#x2029;" horiz-adv-x="1720" 
d="M414 1411q88 0 160 -40t112.5 -112t40.5 -159q0 -73 -23 -136t-68.5 -110.5t-107.5 -73.5t-135 -26q-133 0 -223 88t-90 223q0 97 42 176.5t118.5 124.5t173.5 45zM408 1364q-65 0 -106 -44t-58 -109t-17 -130q0 -112 36.5 -196t133.5 -84q96 0 139.5 88.5t43.5 193.5
q0 110 -37 195.5t-135 85.5zM1329 657q88 0 160 -40t112.5 -112t40.5 -159q0 -96 -42 -175.5t-118.5 -125t-172.5 -45.5q-134 0 -224 88t-90 223q0 97 42 176.5t118.5 124.5t173.5 45zM1323 610q-94 0 -137 -88.5t-43 -193.5q0 -112 37 -196.5t133 -84.5q65 0 106 44
t58.5 111t17.5 128q0 109 -37 194.5t-135 85.5zM512 -41h-82l750 1493h82z" />
    <glyph glyph-name="percent" unicode="&#x2028;" horiz-adv-x="1720" 
d="M414 1411q88 0 160 -40t112.5 -112t40.5 -159q0 -73 -23 -136t-68.5 -110.5t-107.5 -73.5t-135 -26q-133 0 -223 88t-90 223q0 97 42 176.5t118.5 124.5t173.5 45zM408 1364q-65 0 -106 -44t-58 -109t-17 -130q0 -112 36.5 -196t133.5 -84q96 0 139.5 88.5t43.5 193.5
q0 110 -37 195.5t-135 85.5zM1329 657q88 0 160 -40t112.5 -112t40.5 -159q0 -96 -42 -175.5t-118.5 -125t-172.5 -45.5q-134 0 -224 88t-90 223q0 97 42 176.5t118.5 124.5t173.5 45zM1323 610q-94 0 -137 -88.5t-43 -193.5q0 -112 37 -196.5t133 -84.5q65 0 106 44
t58.5 111t17.5 128q0 109 -37 194.5t-135 85.5zM512 -41h-82l750 1493h82z" />
    <glyph glyph-name="percent" unicode="&#x2027;" horiz-adv-x="1720" 
d="M414 1411q88 0 160 -40t112.5 -112t40.5 -159q0 -73 -23 -136t-68.5 -110.5t-107.5 -73.5t-135 -26q-133 0 -223 88t-90 223q0 97 42 176.5t118.5 124.5t173.5 45zM408 1364q-65 0 -106 -44t-58 -109t-17 -130q0 -112 36.5 -196t133.5 -84q96 0 139.5 88.5t43.5 193.5
q0 110 -37 195.5t-135 85.5zM1329 657q88 0 160 -40t112.5 -112t40.5 -159q0 -96 -42 -175.5t-118.5 -125t-172.5 -45.5q-134 0 -224 88t-90 223q0 97 42 176.5t118.5 124.5t173.5 45zM1323 610q-94 0 -137 -88.5t-43 -193.5q0 -112 37 -196.5t133 -84.5q65 0 106 44
t58.5 111t17.5 128q0 109 -37 194.5t-135 85.5zM512 -41h-82l750 1493h82z" />
    <glyph glyph-name="ampersand" unicode="&#x26;" horiz-adv-x="1593" 
d="M1122 793l398 14q-25 -78 -25 -148q-62 12 -126 16.5t-161 8.5q11 -33 11 -94q0 -171 -166 -348q107 -63 186.5 -96t159.5 -33q35 0 61 9t70 30l12 -52l-178 -129q-18 -12 -82 -12q-40 0 -112 25t-140 62.5t-106 70.5q-87 -72 -193 -115t-215 -43q-126 0 -224 51.5
t-151 142t-53 201.5q0 98 42.5 180t113 145t162.5 114q-62 147 -62 266q0 139 49 182l139 123q51 47 142 47t142.5 -48.5t51.5 -139.5q0 -209 -295 -410q52 -86 122 -181t143.5 -179t152.5 -164q99 125 99 221q0 40 -6.5 78.5t-18 64t-23.5 29.5q-25 9 -186 23l68 92
q130 -4 198 -4zM436 721q-84 -63 -127 -133t-43 -164q0 -91 47 -172t126 -129.5t169 -48.5q62 0 128.5 26t123.5 68q-4 5 -79 90l-144 170.5t-115.5 155t-85.5 137.5zM621 1303q-82 0 -108 -48t-26 -133q0 -41 15.5 -106.5t38.5 -132.5q70 45 130 126t60 150
q0 55 -29.5 99.5t-80.5 44.5z" />
    <glyph glyph-name="quotesingle" unicode="'" horiz-adv-x="426" 
d="M233 961h-40l-68 401q0 36 27 63t61 27q36 0 62 -27t26 -63z" />
    <glyph glyph-name="parenleft" unicode="(" horiz-adv-x="682" 
d="M616 -397l-38 -43q-150 126 -252.5 283t-152.5 332.5t-50 371.5q0 183 50.5 351.5t152.5 317t252 271.5l38 -53q-114 -121 -185.5 -263t-101.5 -295.5t-30 -328.5q0 -594 317 -944z" />
    <glyph glyph-name="parenright" unicode=")" horiz-adv-x="682" 
d="M104 -440l-38 43q317 350 317 944q0 175 -30 328.5t-101.5 295.5t-185.5 263l38 53q111 -91 197 -198t144 -227t86 -247.5t28 -267.5q0 -146 -28.5 -282t-83.5 -257.5t-142.5 -237t-200.5 -210.5z" />
    <glyph glyph-name="asterisk" unicode="*" horiz-adv-x="797" 
d="M344 1053l-268 131l-6 20l90 107h20l195 -201l53 293l18 8l127 -39l7 -31l-142 -256l285 50l12 -9v-127l-18 -16l-283 41l139 -250v-20l-139 -54l-20 9l-37 290l-217 -180h-21l-73 105l10 18z" />
    <glyph glyph-name="asterisk" horiz-adv-x="797" 
d="M344 1053l-268 131l-6 20l90 107h20l195 -201l53 293l18 8l127 -39l7 -31l-142 -256l285 50l12 -9v-127l-18 -16l-283 41l139 -250v-20l-139 -54l-20 9l-37 290l-217 -180h-21l-73 105l10 18z" />
    <glyph glyph-name="plus" unicode="+" horiz-adv-x="1241" 
d="M563 592v457h115v-457h459v-115h-459v-463h-115v463h-459v115h459z" />
    <glyph glyph-name="comma" unicode="," horiz-adv-x="512" 
d="M418 252l28 -29q-32 -89 -78 -173t-101 -164t-122 -165l-84 -38l-28 22q167 275 184 485q63 15 201 62z" />
    <glyph glyph-name="hyphen" unicode="-" horiz-adv-x="682" 
d="M578 440h-533l-10 11l55 137h539l10 -10z" />
    <glyph glyph-name="period" unicode="." horiz-adv-x="512" 
d="M254 -10q-47 0 -82 36t-35 83q0 46 35 82t82 36q48 0 84.5 -35.5t36.5 -82.5t-36 -83t-85 -36z" />
    <glyph glyph-name="slash" unicode="/" horiz-adv-x="1241" 
d="M1063 1487l-762 -1731h-123l762 1731h123z" />
    <glyph glyph-name="zero" unicode="0" 
d="M487 -41q-217 9 -322.5 174.5t-105.5 521.5q0 320 101.5 538t384.5 218q109 0 187 -46t126.5 -129t71 -200.5t22.5 -263.5q0 -201 -31.5 -379.5t-135.5 -306t-298 -127.5zM508 1339q-118 0 -179 -85.5t-79.5 -220.5t-18.5 -320q0 -329 62 -505.5t221 -176.5
q112 0 170.5 85t77 216.5t18.5 308.5q0 213 -21.5 367t-81.5 242.5t-169 88.5z" />
    <glyph glyph-name="one" unicode="1" 
d="M137 1137l-14 88q267 92 465 196l28 -10v-1214q0 -84 27 -107q31 -25 107 -29l106 -6v-61l-152.5 3t-83.5 2t-90 1t-90.5 -1t-85 -2l-157.5 -3v61l114 6q76 4 107 29q26 22 26 107v993q0 65 -22 65l-264 -118h-21z" />
    <glyph glyph-name="two" unicode="2" 
d="M33 47l348 371q182 194 249.5 318t67.5 229q0 62 -18.5 115.5t-53 91.5t-87 59.5t-115.5 21.5q-109 0 -169 -35.5t-89 -134.5l-27 -94h-59q10 66 17 128.5t18 150.5q126 143 348 143q110 0 190.5 -30t131 -83.5t74.5 -121.5t24 -148q0 -83 -28 -156t-79.5 -142
t-152.5 -177l-373 -395q116 0 257.5 4t218 7l232.5 9q-4 -62 -4 -92t4 -92q-106 2 -183 3t-128.5 2t-154.5 1t-131 -0.5t-128 -2t-200 -3.5v53z" />
    <glyph glyph-name="three" unicode="3" 
d="M88 1020l59 254q124 137 332 137q115 0 200 -38t131 -108.5t46 -164.5q0 -169 -225 -334q315 -46 315 -315q0 -123 -84 -237t-219 -184.5t-278 -70.5q-52 0 -128 16t-135 37q-13 137 -71 301l55 21q46 -149 133 -220t236 -71q136 0 218.5 101t82.5 241q0 93 -29.5 159.5
t-91 103t-152.5 36.5q-46 0 -81 -11t-87 -34l-14 12l25 109q30 -2 52.5 -4t37.5 -2q122 0 197 85.5t75 196.5q0 103 -72.5 170.5t-175.5 67.5q-76 0 -155 -44.5t-97 -94.5l-36 -115h-64z" />
    <glyph glyph-name="four" unicode="4" 
d="M573 371h-546l-23 47l580 948l151 55l25 -10q-15 -94 -15 -625v-284q148 0 222 6v-146q-64 9 -222 9v-154q0 -68 12.5 -99.5t37.5 -42.5t73 -14l99 -6v-61q-81 2 -175.5 4t-148.5 2q-72 0 -91.5 -0.5t-88.5 -2t-139 -3.5v61l127 6q51 4 74.5 14t35.5 42.5t12 99.5v154z
M573 502v715h-4l-436 -715h440z" />
    <glyph glyph-name="five" unicode="5" 
d="M260 1239l-18 -428q162 102 286 102q120 0 213 -48t146 -137t53 -212q0 -114 -49 -216t-136 -179.5t-193.5 -119.5t-217.5 -42q-49 0 -114.5 13t-102.5 36q-35 109 -100 273l49 28l94 -168q28 -46 101 -68t141 -22q114 0 194 44.5t120 125.5t40 189q0 109 -38 191
t-111 126.5t-171 44.5q-79 0 -133 -30t-118 -95l-41 12q3 47 7.5 201t4.5 275q0 192 -4 266l10 10q60 -3 163 -6.5t193 -3.5t193 3.5t164 6.5l10 -10q-4 -54 -4 -80q0 -28 4 -82l-10 -10q-283 0 -625 10z" />
    <glyph glyph-name="six" unicode="6" 
d="M496 -41q-113 0 -194.5 44t-134 121t-77 174t-24.5 206q0 220 90.5 408.5t251.5 316.5t368 182l76 -35v-16q-130 -36 -233 -95.5t-176 -143t-116.5 -193t-58.5 -250.5l79.5 62.5t74 51t82 34.5t94.5 12q86 0 152.5 -28t112.5 -80t70.5 -124t24.5 -160
q0 -103 -35.5 -193.5t-98.5 -156t-148 -101.5t-180 -36zM514 715q-75 0 -146.5 -40.5t-99.5 -105.5q-16 -45 -16 -143q0 -161 62 -280t206 -119q134 0 198 104.5t64 247.5q0 90 -28 166t-89 123t-151 47z" />
    <glyph glyph-name="seven" unicode="7" 
d="M115 20l499 803q117 189 224 412h-547q-49 0 -73 -10.5t-34 -37.5t-18 -95l-14 -115h-62q2 46 3.5 92.5t2 59.5t0.5 61q0 46 -1 69.5t-2 58.5t-3 83l21 10q248 -10 452 -10q115 0 246.5 3.5t208.5 6.5v-61l-375 -674q-205 -371 -321 -682q-20 2 -36.5 3t-27 2t-31.5 1
q-20 0 -31 -1t-27 -2t-36 -3z" />
    <glyph glyph-name="eight" unicode="8" 
d="M530 1411q97 0 180 -33t133 -99.5t50 -166.5q0 -70 -36.5 -131.5t-87.5 -105.5t-128 -95q149 -65 229 -142.5t80 -215.5q0 -126 -67.5 -233t-178 -168.5t-237.5 -61.5q-113 0 -205.5 45t-146.5 129t-54 199q0 126 79.5 226t203.5 149q-118 74 -176.5 147.5t-58.5 177.5
q0 117 56 202.5t153 131t212 45.5zM582 604l-164 74q-110 -61 -160.5 -145t-50.5 -199q0 -141 80 -223t219 -82q80 0 144.5 44.5t101 116t36.5 146.5q0 97 -62.5 165t-143.5 103zM457 866l112 -55q185 111 185 279q0 74 -29.5 130.5t-84.5 88.5t-130 32q-114 0 -181 -62
t-67 -173q0 -78 55.5 -138t139.5 -102z" />
    <glyph glyph-name="nine" unicode="9" 
d="M197 -41l-70 35v16q129 30 239 91.5t192.5 151t128.5 201t50 242.5l-143 -118q-30 -24 -80.5 -39t-93.5 -15q-119 0 -204 54t-130 149t-45 209q0 130 58.5 239t164 172.5t238.5 63.5q203 0 318.5 -149t115.5 -400q0 -211 -78 -390t-244 -312.5t-417 -200.5zM496 649
q78 0 138 42t92 113t32 150q0 152 -62.5 270.5t-201.5 118.5q-148 -3 -212.5 -101t-64.5 -245q0 -139 72 -243.5t207 -104.5z" />
    <glyph glyph-name="colon" unicode=":" horiz-adv-x="512" 
d="M252 -10q-47 0 -82 36t-35 83q0 45 35.5 81.5t81.5 36.5q48 0 84.5 -35.5t36.5 -82.5t-36 -83t-85 -36zM252 696q-46 0 -81.5 36.5t-35.5 82.5t35.5 82.5t81.5 36.5q48 0 84.5 -35.5t36.5 -83.5q0 -46 -36.5 -82.5t-84.5 -36.5z" />
    <glyph glyph-name="semicolon" unicode=";" horiz-adv-x="512" 
d="M418 256l28 -29q-32 -89 -78 -173t-102 -165t-121 -163l-84 -39l-28 22q167 275 184 486q36 8 68.5 18l71 22.5zM307 696q-47 0 -82 37t-35 82q0 47 35 83t82 36q48 0 84.5 -35.5t36.5 -83.5q0 -46 -36.5 -82.5t-84.5 -36.5z" />
    <glyph glyph-name="less" unicode="&#x3c;" horiz-adv-x="1241" 
d="M1143 123v-123l-1026 479v111l1026 479v-123l-885 -416z" />
    <glyph glyph-name="equal" unicode="=" horiz-adv-x="1241" 
d="M1137 791v-115h-1033v115h1033zM1137 393v-114h-1033v114h1033z" />
    <glyph glyph-name="greater" unicode="&#x3e;" horiz-adv-x="1241" 
d="M98 123l885 407l-885 416v123l1026 -479v-111l-1026 -479v123z" />
    <glyph glyph-name="question" unicode="?" horiz-adv-x="909" 
d="M88 1118l78 232q138 71 256 71q103 0 192 -37t142 -109.5t53 -172.5q0 -65 -28.5 -123t-73.5 -108t-107 -105q-122 -110 -165.5 -158.5t-43.5 -107.5q0 -45 45 -101l-43 -28q-41 23 -65.5 63.5t-24.5 85.5q0 41 21 83.5t48 76t89 102.5q77 84 117 146.5t40 132.5
q0 63 -31.5 114.5t-87.5 81t-124 29.5q-151 0 -187 -86l-41 -98zM406 -10q-47 0 -82 36t-35 83q0 45 35.5 81.5t81.5 36.5q48 0 84 -36t36 -82q0 -47 -35 -83t-85 -36z" />
    <glyph glyph-name="at" unicode="@" horiz-adv-x="1530" 
d="M1348 350h125q-64 -118 -165.5 -206.5t-227.5 -136.5t-261 -48q-206 0 -384 91.5t-282 256t-104 367.5q0 205 99 377t271 271t384 99q131 0 254 -41t218.5 -116.5t151.5 -185.5t56 -240q0 -113 -43.5 -216.5t-113.5 -180t-155 -122t-165 -45.5q-71 0 -112 50t-44 122
q-50 -61 -81 -91.5t-73.5 -50t-95.5 -19.5q-78 0 -140.5 39t-98 108t-35.5 150q0 110 61.5 217.5t164.5 175t216 67.5q48 0 86.5 -19t62.5 -54.5t31 -81.5h4l35 135h180l-157 -571q-9 -38 -9 -56q0 -61 56 -61q61 0 136.5 67t128 183.5t52.5 249.5q0 95 -40.5 184
t-114 156.5t-176 106t-226.5 38.5q-184 0 -334.5 -80.5t-235.5 -224.5t-85 -326q0 -183 88 -325.5t241 -222t338 -79.5q106 0 203.5 35.5t177 101t138.5 152.5zM633 340q83 0 146.5 89t97.5 210t34 197q0 56 -26.5 103.5t-81.5 47.5q-82 0 -149.5 -81.5t-106.5 -195.5
t-39 -190q0 -71 30.5 -125.5t94.5 -54.5z" />
    <glyph glyph-name="A" unicode="A" horiz-adv-x="1593" 
d="M836 1434l495 -1164l26.5 -58.5t39.5 -80.5q20 -34 38 -50t44 -20l69 -6v-61q-67 2 -146 4t-126 2q-50 0 -79 -1t-74 -2t-119 -3v61l96 6q36 2 60 12.5t24 28.5q0 26 -43 131l-94 236h-590l-58 -137q-22 -51 -46.5 -120.5t-24.5 -92.5q0 -29 21 -40t77 -18l76 -6v-61
q-66 2 -105 3t-64 2t-67 1q-40 0 -108 -2t-127 -4v61l75 6q36 4 64.5 31.5t46.5 69.5l365 829l114 259t74 184h66zM492 551h518l-258 610z" />
    <glyph glyph-name="B" unicode="B" horiz-adv-x="1251" 
d="M231 195v970q0 124 -18 154q-9 15 -29 21.5t-57 9.5l-74 6v61q114 -2 191 -4t104 -2q54 0 153.5 2t241.5 4q162 0 264.5 -65.5t102.5 -216.5q0 -90 -48.5 -160.5t-128 -115t-165.5 -58.5v-4q177 -5 294.5 -84.5t117.5 -247.5q0 -80 -30.5 -160t-102.5 -152t-188 -115.5
t-279 -43.5q-56 2 -121.5 4t-102.5 2q-38 0 -102.5 -2t-120.5 -4v47l53 20q45 18 45 134zM426 741v-645q65 -16 172 -16q115 0 198 42t128 121t45 187q0 111 -46.5 180.5t-137 102t-222.5 32.5q-63 0 -137 -4zM426 1319v-498q74 -4 145 -4q147 0 241.5 67t94.5 210
q0 95 -39.5 147.5t-107.5 73t-162 20.5q-107 0 -172 -16z" />
    <glyph glyph-name="C" unicode="C" horiz-adv-x="1452" 
d="M1372 172l-57 -102q-83 -51 -215 -81t-232 -30q-180 0 -332.5 51t-262.5 148t-169 237t-59 310q0 174 65.5 313.5t184.5 236.5q115 95 266.5 146t325.5 51q131 0 257 -25.5t216 -58.5q-39 -178 -39 -311h-64v147q0 39 -46.5 68.5t-129.5 58.5q-99 35 -229 35
q-142 0 -251.5 -48t-185 -135t-113.5 -201t-38 -245q0 -148 48.5 -273t136.5 -212t214 -134.5t275 -47.5q110 0 227 35t189 88z" />
    <glyph glyph-name="D" unicode="D" horiz-adv-x="1585" 
d="M231 195v970q0 124 -18 154q-9 15 -29 21.5t-57 9.5l-82 6v61q134 -2 235 -4t169 -2q89 0 119 0.5t103.5 2t133.5 3.5q160 0 296.5 -43t233 -123t150 -197.5t53.5 -260.5q0 -165 -58 -312.5t-157 -255t-225 -159.5q-93 -39 -196 -55.5t-243 -16.5q-54 2 -111.5 3.5
t-74.5 2t-78 0.5t-91.5 -1t-76.5 -2t-110 -3v47l63 33q51 26 51 121zM426 1319v-1219q65 -16 233 -16q93 0 175 11.5t159 47.5q112 52 184.5 137.5t107 200t34.5 254.5q0 184 -49.5 304t-137 183.5t-205.5 88t-268 24.5q-168 0 -233 -16z" />
    <glyph glyph-name="E" unicode="E" horiz-adv-x="1251" 
d="M248 246v919q0 125 -19 154q-17 28 -86 31l-98 6v61q76 -2 151.5 -3.5t96 -2t98.5 -0.5q68 1 146 2t140.5 2t98.5 1.5t98 0.5q145 0 265 -6q-18 -72 -25.5 -154t-7.5 -157h-72v133q0 48 -18 55q-114 43 -402 43q-106 0 -172 -16v-547q99 -6 238 -6q181 0 217 22
q13 12 16 54l11 106h61q-2 -80 -4 -140t-2 -97t2 -94.5t4 -133.5h-61l-11 121q-3 43 -16 51q-34 25 -217 25q-174 0 -238 -6v-574q66 -16 172 -16q366 0 414 26q23 13 42.5 77t29.5 153h71q-15 -76 -23.5 -163t-8.5 -173q-60 -2 -144.5 -3.5t-121 -2t-138.5 -0.5
q-104 2 -181 3t-127 2t-138 1q-51 0 -64.5 -0.5t-60 -2t-94.5 -3.5v61l73 6q72 7 86 31q19 29 19 154z" />
    <glyph glyph-name="F" unicode="F" horiz-adv-x="1139" 
d="M442 670v-424q0 -125 19 -154q17 -28 86 -31l98 -6v-61q-159 6 -297 6q-142 0 -303 -6v61l98 6q69 3 86 31q19 29 19 154v919q0 125 -19 154q-17 28 -86 31l-98 6v61q76 -2 151.5 -3.5t96 -2t98.5 -0.5q53 0 121 1.5t128 2.5t95.5 1.5t98.5 0.5q144 0 264 -6
q-18 -72 -25.5 -154t-7.5 -157h-72v133q0 48 -18 55q-114 43 -361 43q-106 0 -172 -16v-547q99 -6 238 -6q181 0 217 22q13 12 16 54l11 106h61q-2 -80 -4 -140t-2 -97t2 -94.5t4 -133.5h-61l-11 121q-3 43 -16 51q-34 25 -217 25q-174 0 -238 -6z" />
    <glyph glyph-name="G" unicode="G" horiz-adv-x="1563" 
d="M1221 201v207q0 36 -15.5 52t-54.5 19l-170 15v61q168 -4 250 -4q84 0 252 4l8 -51l-59 -21q-16 -6 -19.5 -17.5t-3.5 -57.5v-345q-92 -27 -193 -51t-190 -38.5t-156 -14.5q-172 0 -322.5 46.5t-264.5 140.5t-176 235t-62 330q0 219 112 388t309.5 261t442.5 92
q166 0 270.5 -22t237.5 -62q-41 -164 -41 -311h-63v108q0 67 -41.5 100t-128.5 64q-106 37 -287 37q-190 0 -323.5 -78t-201 -218t-67.5 -325q0 -205 77.5 -364t227 -247.5t355.5 -88.5q112 0 194.5 22t91.5 50q11 27 11 84z" />
    <glyph glyph-name="H" unicode="H" horiz-adv-x="1704" 
d="M1456 1165v-919q0 -125 19 -154q17 -28 86 -31l98 -6v-61q-160 6 -297 6q-144 0 -303 -6v61l98 6q69 3 86 31q19 31 19 154v456q-42 5 -170 5h-480q-128 0 -170 -5v-456q0 -125 19 -154q17 -28 86 -31l98 -6v-61q-159 6 -297 6q-142 0 -303 -6v61l98 6q69 3 86 31
q19 29 19 154v919q0 125 -19 154q-17 28 -86 31l-98 6v61q160 -6 303 -6q138 0 297 6v-61l-98 -6q-69 -3 -86 -31q-19 -29 -19 -154v-364q50 -4 170 -4h480q120 0 170 4v364q0 123 -19 154q-17 28 -86 31l-98 6v61q159 -6 303 -6q46 0 146 2t151 4v-61l-98 -6
q-69 -3 -86 -31q-19 -29 -19 -154z" />
    <glyph glyph-name="I" unicode="I" horiz-adv-x="690" 
d="M442 1165v-919q0 -125 19 -154q17 -28 86 -31l98 -6v-61q-159 6 -297 6q-142 0 -303 -6v61l98 6q69 3 86 31q19 29 19 154v919q0 125 -19 154q-17 28 -86 31l-98 6v61q160 -6 303 -6q138 0 297 6v-61l-98 -6q-69 -3 -86 -31q-19 -29 -19 -154z" />
    <glyph glyph-name="J" unicode="J" horiz-adv-x="682" 
d="M434 1165v-925v-54q0 -123 -24 -223t-103 -196q-57 -71 -133.5 -117.5t-159.5 -46.5q-18 0 -34 4l-11 155l23 13q62 -39 143 -39q65 0 88 67q17 59 17 162v1200q0 125 -19 154q-17 28 -86 31l-98 6v61q159 -6 303 -6q46 0 146 2t151 4v-61l-98 -6q-69 -3 -86 -31
q-19 -29 -19 -154z" />
    <glyph glyph-name="K" unicode="K" horiz-adv-x="1487" 
d="M442 666v-420q0 -125 19 -154q17 -28 86 -31l98 -6v-61q-159 6 -297 6q-142 0 -303 -6v61l98 6q69 3 86 31q19 29 19 154v919q0 125 -19 154q-17 28 -86 31l-98 6v61q160 -6 303 -6q138 0 297 6v-61l-98 -6q-69 -3 -86 -31q-19 -29 -19 -154v-438l570 555q59 61 59 80v55
q62 -2 108 -4t74 -2q31 0 70 2t94 4v-61l-86 -4q-77 -3 -160 -78l-544 -492l676 -639q86 -80 127 -84l43 -4v-61q-117 6 -136 6q-33 0 -50 -1t-43 -2t-68 -3l-713 686z" />
    <glyph glyph-name="L" unicode="L" horiz-adv-x="1251" 
d="M442 1165v-1069q66 -16 172 -16q412 0 453 39q16 14 43 131l25 102h65q-16 -147 -25 -223t-18 -129q-270 -6 -403 -6q-122 2 -194.5 3t-120 2t-132.5 1q-44 0 -56.5 -0.5t-47 -2t-70.5 -3.5v47l64 33q51 27 51 121v970q0 125 -19 154q-17 28 -86 31l-98 6v61
q160 -6 303 -6q138 0 297 6v-61l-98 -6q-69 -3 -86 -31q-19 -29 -19 -154z" />
    <glyph glyph-name="M" unicode="M" horiz-adv-x="1937" 
d="M1694 1165v-919q0 -124 18 -154q17 -28 86 -31l98 -6v-61q-159 6 -297 6q-157 0 -274 -6v61l70 6q71 7 86 31q18 30 18 154v930h-4q-31 -56 -86 -168l-365 -775q-19 -41 -55 -129l-55 -131h-41l-567 1203h-4v-930q0 -124 18 -154q14 -24 86 -31l90 -6v-61q-60 2 -99.5 3
t-66 2t-80.5 1q-49 0 -75.5 -1t-67 -2t-94.5 -3v61l90 6q72 7 86 31q18 30 18 154v919q0 124 -18 154q-9 15 -29 21.5t-57 9.5l-90 6v61q64 -2 113 -4t81 -2q34 0 82.5 2t112.5 4l541 -1138l536 1138q64 -2 113.5 -4t81.5 -2q33 0 79 2t111 4v-61l-86 -6q-38 -3 -57.5 -9.5
t-28.5 -21.5q-18 -30 -18 -154z" />
    <glyph glyph-name="N" unicode="N" horiz-adv-x="1702" 
d="M229 246v919q0 124 -18 154q-9 15 -29 21.5t-57 9.5l-90 6v61q86 -2 148.5 -4t97.5 -2q17 0 44.5 2t65.5 4l979 -1208h6v956q0 124 -18 154q-9 15 -29 21.5t-57 9.5l-90 6v61q82 -2 142 -4t95 -2q40 0 101.5 2t144.5 4v-61l-90 -6q-38 -3 -57.5 -9.5t-28.5 -21.5
q-19 -31 -19 -154v-1130q0 -18 2.5 -37.5t4.5 -38.5l-185 33l-964 1198h-4v-944q0 -124 18 -154q14 -24 86 -31l90 -6v-61q-60 2 -99.5 3t-66 2t-80.5 1q-49 0 -75.5 -1t-67 -2t-94.5 -3v61l90 6q72 7 86 31q18 30 18 154z" />
    <glyph glyph-name="O" unicode="O" horiz-adv-x="1610" 
d="M772 -41q-207 0 -373.5 91.5t-260 260.5t-93.5 394q0 208 94 379.5t269.5 269.5t406.5 98q220 0 390 -81t265 -238.5t95 -380.5q0 -217 -104.5 -399t-286.5 -288t-402 -106zM782 1366q-132 0 -229.5 -43.5t-161.5 -122.5t-95.5 -184.5t-31.5 -235.5q0 -137 33.5 -267.5
t105 -237.5t181.5 -168.5t254 -61.5q125 0 221.5 47t159.5 131.5t95 202.5t32 262q0 206 -62 358.5t-189.5 236t-312.5 83.5z" />
    <glyph glyph-name="P" unicode="P" horiz-adv-x="1237" 
d="M442 1315v-1069q0 -125 19 -154q17 -28 86 -31l98 -6v-61q-159 6 -297 6q-142 0 -303 -6v61l98 6q69 3 86 31q19 29 19 154v919q0 121 -21 150q-21 30 -88 35l-92 6v61q90 -2 174 -3.5t100.5 -2t94.5 -0.5q61 0 146.5 2t201.5 4q80 0 154 -16.5t135.5 -53.5t98 -98
t36.5 -145q0 -93 -37.5 -174.5t-105.5 -141t-159 -92t-190 -32.5q-61 0 -123 12l-20 74q63 -21 135 -21q82 0 150 40t106.5 109.5t38.5 155.5q0 156 -86.5 230.5t-245.5 74.5q-110 0 -209 -24z" />
    <glyph glyph-name="Q" unicode="Q" horiz-adv-x="1610" 
d="M815 1452q220 0 390 -81t265 -238.5t95 -380.5q0 -154 -56.5 -296.5t-159.5 -252.5t-233.5 -172t-279.5 -68v-4q51 -6 101.5 -22t116.5 -44.5t85 -35.5q99 -36 168.5 -53.5t142.5 -18.5q56 0 115 12v-43l-172 -114q-114 21 -217 53l-304 94q-104 31 -163 31
q-26 0 -54 -17l-120 -65l4 65q170 132 223 148l22 8v4h-12q-216 0 -381 90.5t-255.5 261t-90.5 400.5q0 155 53.5 290.5t155 237t244 156.5t317.5 55zM782 1366q-132 0 -229.5 -43.5t-161.5 -122.5t-95.5 -184.5t-31.5 -235.5q0 -137 33.5 -267t104.5 -236.5t181.5 -168
t254.5 -61.5q128 0 226.5 46.5t160.5 131.5t91.5 201t29.5 262q0 206 -62 358.5t-189.5 236t-312.5 83.5z" />
    <glyph glyph-name="R" unicode="R" horiz-adv-x="1368" 
d="M442 1315v-1069q0 -125 19 -154q17 -28 86 -31l98 -6v-61q-159 6 -297 6q-142 0 -303 -6v61l98 6q69 3 86 31q19 29 19 154v919q0 125 -19 154q-9 15 -28 21.5t-58 9.5l-84 6v61q72 -2 147.5 -3.5t98.5 -2t103 -0.5t101 0.5t99 2t158 3.5q228 0 321 -88.5t93 -218.5
q0 -156 -117 -259t-283 -136l465 -606q35 -47 125 -54v-61q-36 2 -60 3t-40 2t-47 1t-46.5 -1t-38.5 -2t-55 -3q-17 25 -40 54l-44 56l-376 506q-21 31 -50.5 63.5l-56.5 63.5l12 25q119 0 181 8q113 20 189.5 99t76.5 188q0 104 -45 167t-118.5 89t-160.5 26
q-110 0 -209 -24z" />
    <glyph glyph-name="S" unicode="S" horiz-adv-x="1075" 
d="M915 1077h-65l-12 117q-5 44 -21 67.5t-69 55.5q-40 25 -98 37t-126 12q-73 0 -144 -34t-115 -102t-44 -163q0 -54 18 -96t57 -73t101 -52t162 -33q235 -24 353 -97.5t118 -238.5t-87.5 -283t-231 -176.5t-299.5 -58.5q-101 0 -193 23.5t-158 54.5q9 61 12 137t3 176h65
l17 -137q7 -64 110 -114t224 -50q96 0 179.5 37.5t135 109.5t51.5 169q0 135 -91.5 194.5t-268.5 79.5q-158 18 -258.5 60t-145.5 112.5t-45 177.5q0 149 77.5 255t198 157t248.5 51q110 0 193.5 -24t177.5 -62q-29 -151 -29 -289z" />
    <glyph glyph-name="T" unicode="T" horiz-adv-x="1255" 
d="M530 246v866q0 122 -8 205h-317q-44 0 -61.5 -14.5t-20.5 -53.5l-8 -162h-64q0 84 -3 163t-11 167q49 0 135 -1.5l172 -3t135 -1.5h297q49 0 135.5 1.5l172.5 3t135 1.5q-15 -145 -15 -330h-63l-8 162q-3 38 -20 53t-62 15h-318q-8 -83 -8 -205v-866q0 -124 18 -154
q18 -28 86 -31l99 -6v-61q-160 6 -297 6q-144 0 -303 -6v61l98 6q69 3 86 31q18 30 18 154z" />
    <glyph glyph-name="U" unicode="U" horiz-adv-x="1593" 
d="M227 438v727q0 124 -18 154q-17 28 -86 31l-98 6v61q51 -2 152 -4t151 -2q46 0 146 2t151 4v-61l-99 -6q-68 -3 -86 -31q-18 -30 -18 -154v-704q0 -140 48 -223.5t139.5 -117.5t234.5 -34q190 0 306 94t116 330v655q0 125 -19 154q-9 15 -29 21.5t-57 9.5l-90 6v61
q82 -2 142 -4t96 -2q41 0 101.5 2t143.5 4v-61l-90 -6q-38 -3 -56.5 -9.5t-29.5 -21.5q-18 -30 -18 -154v-592q0 -167 -32.5 -281.5t-101.5 -188.5t-179 -109t-267 -35q-133 0 -235 23t-173.5 78t-108 148.5t-36.5 229.5z" />
    <glyph glyph-name="V" unicode="V" horiz-adv-x="1479" 
d="M385 1286l403 -1038l375 969q19 44 19 73q0 56 -72 60l-106 6v61q72 -2 127.5 -4t93.5 -2q37 0 93 2t128 4v-61l-62 -6q-32 -3 -53 -34t-57 -114l-356 -862q-40 -92 -71.5 -177.5t-60.5 -180.5h-102q-39 142 -119 337l-385 947q-32 81 -90 84l-74 6v61q90 -2 158 -4
t115 -2t114.5 2t157.5 4v-61l-115 -6q-65 -4 -65 -41q0 -15 4 -23z" />
    <glyph glyph-name="W" unicode="W" horiz-adv-x="2048" 
d="M1255 403l-256 695l-356 -905q-50 -129 -74 -211h-102q-6 33 -22.5 104l-24.5 107l-244 1054q-14 60 -38.5 79.5t-63.5 23.5l-58 6v61q86 -2 150 -4t108 -2t109 2t149 4v-61l-86 -6q-37 -4 -56 -17t-19 -55q0 -28 8 -64l203 -913h4l252 639l105 271.5t79 222.5h65
q6 -27 23 -81t31 -93l30 -84l318 -889h4l268 995q0 38 -20 50.5t-74 17.5l-82 6v61q70 -2 123.5 -4t91.5 -2q37 0 90 2t125 4v-61l-65 -6q-62 -6 -78 -60l-313 -1102l-21.5 -71t-18 -65.5l-16.5 -69.5h-102q-16 61 -35 117.5l-30.5 89l-38.5 104z" />
    <glyph glyph-name="X" unicode="X" horiz-adv-x="1366" 
d="M997 43l-344 578l-52.5 -74l-39.5 -58l-321 -495q-26 2 -57 4t-48 2q-24 0 -31.5 -0.5l-30 -2t-44.5 -3.5v61l53 6q24 5 42 15.5t33 25.5t26 30.5l32 43.5l387 522l-262 437q-49 81 -100 131t-88 53l-93 6l-4 53l289 56q32 -16 61.5 -52.5t55.5 -81.5l262 -442l379 553
h207v-61l-84 -7q-26 -1 -56 -33.5t-84 -105.5l-315 -426l360 -573q48 -74 75 -107t61 -37l61 -6v-61q-36 2 -79.5 4t-67.5 2q-26 0 -69.5 -2t-80.5 -4z" />
    <glyph glyph-name="Y" unicode="Y" horiz-adv-x="1366" 
d="M451 1233l292 -535l211 334l75.5 124.5t80.5 140.5l66 124h163v-30q-85 -98 -189 -237.5t-188.5 -270.5t-125.5 -219q-29 -63 -29 -154v-264q0 -124 18 -154q18 -28 86 -31l99 -6v-61q-160 6 -297 6q-144 0 -303 -6v61l98 6q69 3 86 31q18 30 18 154v291q0 51 -18 81
l-254 443q-51 86 -100.5 145t-91.5 88.5t-70 32.5l-60 6v60l236 49q31 0 52.5 -18t53.5 -58q55 -67 91 -133z" />
    <glyph glyph-name="Z" unicode="Z" horiz-adv-x="1366" 
d="M1305 1358l-996 -1268h559q120 0 188 4.5t101.5 18t48 41.5t19.5 84l12 116h70q-13 -132 -13 -360q-132 2 -269 3.5t-176 2t-179 0.5q-107 0 -293 -2t-346 -4v57l122 147t76 93l619 794q139 177 176 242h-467q-104 0 -164.5 -5t-91.5 -16t-41 -27t-14 -48l-13 -146h-69
q6 84 6 166q0 83 -6 166q67 0 169.5 -1t220.5 -2.5t203 -2t220 -0.5q53 0 133 2t186 4z" />
    <glyph glyph-name="bracketleft" unicode="[" horiz-adv-x="682" 
d="M180 29v1052q-1 51 -1.5 95.5t-1.5 99.5t-4.5 108t-10.5 76l18 27q136 -4 199 -4q67 0 199 4l12 -12v-54l-8 -10h-78q-64 0 -102 -18t-42 -54q-8 -100 -8 -258v-1052q0 -158 8 -258q4 -36 44 -54t100 -18h78l8 -10v-54l-12 -12q-132 4 -199 4q-63 0 -199 -4l-18 27
q7 24 10.5 77.5t4.5 108.5t1.5 99t1.5 94z" />
    <glyph glyph-name="backslash" unicode="\" horiz-adv-x="1241" 
d="M166 1487h121l762 -1487h-121z" />
    <glyph glyph-name="bracketright" unicode="]" horiz-adv-x="682" 
d="M502 1081v-1052q2 -82 3 -159.5t3.5 -131.5t11.5 -88l-18 -27q-136 4 -199 4q-67 0 -199 -4l-12 12v54l8 10h78q60 0 100.5 18t43.5 54q8 100 8 258v1052q0 158 -8 258q-3 36 -41.5 54t-102.5 18h-78l-8 10v54l12 12q132 -4 199 -4q63 0 199 4l18 -27q-9 -34 -11.5 -88
t-3.5 -131.5t-3 -159.5z" />
    <glyph glyph-name="asciicircum" unicode="^" horiz-adv-x="1241" 
d="M244 580h-140l449 831h135l447 -831h-140l-374 692z" />
    <glyph glyph-name="underscore" unicode="_" 
d="M1024 -256h-1024v102h1024v-102z" />
    <glyph glyph-name="grave" unicode="`" horiz-adv-x="682" 
d="M440 1036l-295 185q-36 21 -59 42t-23 52t18 51t50 20q42 0 109 -67l282 -283h-82z" />
    <glyph glyph-name="a" unicode="a" 
d="M461 553l203 37q0 126 -63 194t-195 68q-67 0 -95.5 -8.5t-48.5 -34.5q-6 -8 -35 -68l-26 -63l-54 14v133l109 66q116 70 238 70q129 0 200.5 -40t102 -127.5t30.5 -240.5v-375q0 -56 7 -88q6 -28 51 -31l80 -4v-61q-34 2 -60 3t-43 2t-51 1q-35 0 -52.5 -1t-43.5 -2
t-62 -3l11 174l-254 -176q-24 -17 -95 -17q-109 0 -179 64.5t-70 183.5q0 109 55.5 176t139 99.5t200.5 54.5zM664 254v270q-181 -25 -299 -71q-52 -20 -87.5 -78t-35.5 -115q0 -52 22.5 -89.5t58.5 -58t78 -20.5q43 0 87 23t110 71q35 26 66 68z" />
    <glyph glyph-name="b" unicode="b" horiz-adv-x="1133" 
d="M307 1470v-710h4l109 110q40 42 110 66.5t138 24.5q116 0 200.5 -55.5t128 -149.5t43.5 -213q0 -67 -21.5 -141.5t-57.5 -137t-82 -96.5l-205 -148q-44 -31 -86.5 -38t-100.5 -7q-150 0 -254 74l-81 -74l-33 13l4 39t4 49l8 237v957q0 43 -10 63.5t-41 20.5h-115v57
q204 30 320 76zM307 631v-441q0 -32 88.5 -71t161.5 -39q62 0 118.5 25.5t97.5 74t65 125.5t24 172q0 147 -71.5 248.5t-212.5 101.5q-75 0 -136.5 -34t-98 -80.5t-36.5 -81.5z" />
    <glyph glyph-name="c" unicode="c" horiz-adv-x="909" 
d="M817 637h-57l-15 125q-10 22 -46.5 43t-83 35t-83.5 14q-57 0 -108.5 -15t-96 -54t-69.5 -104t-25 -161q0 -114 30 -200.5t85.5 -144t122.5 -83.5t145 -26q50 0 108 17t101 42l21 -31l-43 -65q-14 -20 -98 -45t-187 -25q-122 0 -230 56t-171.5 163t-63.5 254
q0 133 51.5 232t124.5 151q76 57 174 98q110 48 197 48q135 0 246 -72q-14 -55 -21.5 -120t-7.5 -132z" />
    <glyph glyph-name="d" unicode="d" horiz-adv-x="1251" 
d="M844 895v375q0 43 -10 63.5t-41 20.5h-115v57q206 30 319 76l19 -17v-1261q0 -90 10 -119q12 -26 66 -29l94 -6v-61l-85 3t-48.5 2t-53.5 1q-35 0 -52.5 -1t-43 -2t-61.5 -3l10 188l-227 -190q-22 -17 -131 -17q-207 0 -314.5 131.5t-107.5 342.5q0 131 55 233.5
t137 144.5l180 95q76 39 152 39q61 0 119 -17t129 -49zM844 453v264q0 20 -47.5 56t-116.5 63.5t-125 27.5q-157 -5 -231 -96.5t-74 -278.5q0 -97 36.5 -189.5t109 -150t173.5 -57.5q61 0 118 35t106 94q32 39 41.5 81.5t9.5 105.5v45z" />
    <glyph glyph-name="e" unicode="e" horiz-adv-x="981" 
d="M518 893q-119 0 -194.5 -87t-75.5 -253q106 -12 260 -12q120 0 227 6q0 94 -24.5 174.5t-72.5 126t-120 45.5zM528 961q172 0 281 -102t109 -273q0 -58 -5 -86q-168 -29 -370 -29h-299q0 -89 22.5 -163t69.5 -128.5t116.5 -83t161.5 -28.5q47 0 88.5 12.5t81 34.5
l84.5 49l27 -21l-41 -69q-9 -15 -63 -42.5t-128 -50t-137 -22.5q-150 0 -257 60t-161.5 166t-54.5 247q0 96 17 171t51 130.5t80 89.5q73 58 127 82q120 56 200 56z" />
    <glyph glyph-name="f" unicode="f" horiz-adv-x="682" 
d="M698 1468v-157l-24 -13q-61 58 -135 58q-64 0 -95.5 -24.5t-43 -86.5t-11.5 -182v-174l268 8l-14 -109h-254v-579q0 -90 10 -119q13 -26 66 -29l94 -6v-61q-50 2 -101 3.5t-71 2t-84 0.5t-84 -0.5t-71 -2t-101 -3.5v61l94 6q54 3 66 29q10 29 10 119v579l-141 -8v45
l141 64v86q0 67 9 120.5t28 96.5t49 78l119 135q37 43 87 64.5t97 21.5q42 0 92 -23z" />
    <glyph glyph-name="g" unicode="g" horiz-adv-x="1139" 
d="M1063 774h-189q23 -50 23 -115q0 -79 -36.5 -144t-100.5 -109q-45 -31 -94.5 -54t-99 -34t-93.5 -11q-15 0 -43 4l-61.5 -55t-32.5 -59q0 -50 44.5 -66t111.5 -16h327q125 0 183.5 -78.5t58.5 -175.5q0 -82 -38 -160.5t-110.5 -142t-177 -101t-229.5 -37.5
q-123 0 -223.5 38.5t-158.5 109t-58 160.5q0 113 57 163l178 97q-135 36 -135 121q0 45 31 86l157 120v4q-42 2 -98.5 28.5t-99.5 88t-43 158.5q0 179 155 278q64 42 148.5 65.5t148.5 23.5q69 0 136 -21.5t114 -65.5l291 9l8 -25zM725 594q0 80 -24.5 147t-77.5 108.5
t-134 41.5q-98 0 -151 -68t-53 -174q0 -88 30 -149t82 -92t119 -31q91 0 150 61.5t59 155.5zM520 -516q111 0 197 41t134 111t48 151q0 97 -61.5 140.5t-227.5 43.5q-125 0 -217 -8q-31 -3 -72 -31.5t-70.5 -76.5t-29.5 -107q0 -126 84.5 -195t214.5 -69z" />
    <glyph glyph-name="h" unicode="h" horiz-adv-x="1192" 
d="M180 209v1061q0 43 -10 63.5t-41 20.5h-115v57q204 30 320 76l18 -17v-692h4l152 131q34 30 69.5 41t96.5 11q338 0 338 -357v-395q0 -90 10 -119q11 -26 65 -29l84 -6v-61q-34 2 -70.5 3.5t-47.5 2t-49 0.5q-39 0 -50.5 -0.5l-46.5 -2t-67 -3.5v581q0 81 -29.5 141
t-82.5 90t-124 30q-60 0 -119 -30.5t-96 -75.5t-37 -87v-434q0 -90 10 -119q13 -26 66 -29l92 -6v-61q-48 2 -99.5 3.5t-70.5 2t-84 0.5q-64 0 -84 -0.5t-71 -2t-99 -3.5v61l92 6q54 3 66 29q10 29 10 119z" />
    <glyph glyph-name="i" unicode="i" horiz-adv-x="596" 
d="M385 952v-743q0 -90 10 -119q12 -26 66 -29l94 -6v-61q-50 2 -101 3.5t-71 2t-84 0.5t-84 -0.5t-71 -2t-101 -3.5v61l94 6q54 3 66 29q10 29 10 119v461q0 103 -14 127q-18 22 -76 22h-76v58q82 8 168.5 32.5t151.5 51.5zM299 1335q40 0 71 -31t31 -71q0 -39 -31.5 -69.5
t-70.5 -30.5q-38 0 -69 31t-31 69q0 39 30.5 70.5t69.5 31.5z" />
    <glyph glyph-name="j" unicode="j" horiz-adv-x="479" 
d="M326 952v-991q0 -123 -29 -222.5t-80 -164.5q-53 -68 -120 -111t-154 -43l-25 78q31 -6 70 -6q28 0 59.5 24t52.5 64q24 43 39 153t15 253v684q0 104 -15.5 126.5t-75.5 22.5h-75v58q163 16 319 84zM229 1182q-44 0 -79 35t-35 79t34.5 78.5t79.5 34.5q29 0 55.5 -15.5
t42 -42t15.5 -55.5q0 -45 -34.5 -79.5t-78.5 -34.5z" />
    <glyph glyph-name="k" unicode="k" horiz-adv-x="1139" 
d="M213 209v1061q0 43 -10 63.5t-41 20.5h-115v57q204 30 320 76l18 -17v-935l150 120q80 65 156.5 138l150.5 147h205v-61q-95 0 -222 -97l-264 -207q41 -49 131 -139l258 -256q98 -98 174 -98v-47l-196 -60l-543 517v-283q0 -90 10 -119q12 -26 66 -29l90 -6v-61
q-46 2 -96.5 3.5t-71 2t-84.5 0.5t-84 -0.5t-71 -2t-101 -3.5v61l94 6q54 3 66 29q10 29 10 119z" />
    <glyph glyph-name="l" unicode="l" horiz-adv-x="596" 
d="M213 209v1061q0 43 -10 63.5t-41 20.5h-115v57q204 30 320 76l18 -17v-1261q0 -90 10 -119q12 -26 66 -29l94 -6v-61q-50 2 -101 3.5t-71 2t-84 0.5t-84 -0.5t-71 -2t-101 -3.5v61l94 6q54 3 66 29q10 29 10 119z" />
    <glyph glyph-name="m" unicode="m" horiz-adv-x="1808" 
d="M203 209v461q0 104 -15.5 126.5t-74.5 22.5h-76v58q82 8 170 32.5t149 51.5l19 -9v-174l141 131q57 52 180 52q200 0 281 -191l156 139q60 52 180 52q63 0 116.5 -22t93.5 -64.5t62.5 -103.5t22.5 -140v-422q0 -90 10 -119q11 -26 65 -29l97 -6v-61q-42 2 -72.5 3t-50 2
t-58.5 1q-38 0 -49.5 -0.5l-46.5 -2t-67 -3.5v581q0 111 -49 186t-144 75q-60 0 -119 -30.5t-96 -75.5t-37 -87v-434q0 -90 10 -119q13 -26 66 -29l94 -6v-61q-50 2 -101 3.5t-70.5 2t-84.5 0.5q-64 0 -84 -0.5t-71 -2t-101 -3.5v61l94 6q54 3 66 29q10 29 10 119v366
q0 69 -21 130t-65 96t-106 35q-60 0 -119 -30.5t-96 -75.5t-37 -87v-434q0 -90 10 -119q12 -26 66 -29l86 -6v-61q-44 2 -93.5 3.5t-70 2t-84.5 0.5q-65 0 -83.5 -0.5l-71.5 -2t-101 -3.5v61l94 6q53 3 66 29q10 29 10 119z" />
    <glyph glyph-name="n" unicode="n" horiz-adv-x="1192" 
d="M352 643v-434q0 -90 10 -119q13 -26 66 -29l92 -6v-61q-48 2 -99.5 3.5t-70.5 2t-84 0.5q-64 0 -84 -0.5t-71 -2t-99 -3.5v61l92 6q54 3 66 29q10 29 10 119v461q0 103 -14 127q-16 22 -76 22h-76v58q82 8 168.5 32.5t151.5 51.5l18 -9v-174h4l152 131q34 30 69.5 41
t96.5 11q338 0 338 -357v-395q0 -90 10 -119q11 -26 65 -29l84 -6v-61q-34 2 -70.5 3.5t-47.5 2t-49 0.5q-39 0 -50.5 -0.5l-46.5 -2t-67 -3.5v581q0 81 -29.5 141t-82.5 90t-124 30q-60 0 -119 -30.5t-96 -75.5t-37 -87z" />
    <glyph glyph-name="o" unicode="o" horiz-adv-x="1118" 
d="M516 -41q-97 0 -180.5 36t-145 102t-93 153.5t-31.5 187.5q0 155 62 273t180.5 184t279.5 66q95 0 180.5 -35t149.5 -99t99.5 -150.5t35.5 -182.5q0 -153 -69 -276t-191 -191t-277 -68zM541 893q-152 0 -218.5 -103t-66.5 -264q0 -87 17.5 -173.5t57 -160.5t106.5 -119.5
t159 -45.5q131 0 198.5 110t67.5 266q0 132 -39.5 244.5t-113.5 179t-168 66.5z" />
    <glyph glyph-name="p" unicode="p" horiz-adv-x="1231" 
d="M186 -360v1030q0 103 -14 127q-16 22 -76 22h-76v58q82 8 168.5 32.5t151.5 51.5l18 -9v-192h4l164 149q59 52 193 52q109 0 205 -53t153.5 -148.5t57.5 -216.5q0 -94 -62 -220.5t-117 -162.5l-233 -152q-52 -33 -141 -33q-144 0 -224 52v-387q0 -92 11 -119
q11 -26 65 -29l94 -6v-61q-48 2 -101 3.5l-71.5 2t-83.5 0.5q-64 0 -84 -0.5t-71 -2t-101 -3.5v61l95 6q54 3 65 29q10 27 10 119zM358 616v-415q56 -64 127.5 -92.5t163.5 -28.5q81 0 152.5 52.5t113 145t41.5 203.5q0 153 -82 249.5t-237 96.5q-70 0 -124.5 -24
t-89.5 -59.5t-54 -71.5q-11 -19 -11 -56z" />
    <glyph glyph-name="q" unicode="q" horiz-adv-x="1147" 
d="M805 -360v495l-213 -135q-39 -25 -115 -25q-212 12 -308.5 138.5t-96.5 300.5q0 145 53.5 243.5t144.5 157.5l172 111q64 35 154 35q147 0 289 -68l100 63l39 -22q-47 -94 -47 -283v-1011q0 -91 10 -119q11 -26 66 -29l94 -6v-61q-50 2 -101 3.5t-71 2t-84 0.5t-95 -1
t-75.5 -2t-110.5 -3v61l119 6q54 3 66 29q10 27 10 119zM805 246v534q-89 84 -260 84q-72 0 -139.5 -35t-111.5 -113t-44 -198q0 -110 31.5 -207.5t102 -158t183.5 -60.5q50 0 107 28t94 64t37 62z" />
    <glyph glyph-name="r" unicode="r" horiz-adv-x="809" 
d="M213 209v461q0 103 -14 127q-18 22 -76 22h-76v58q82 8 168.5 32.5t151.5 51.5l18 -9v-207h4l111 132q36 43 81.5 63.5t90.5 20.5q63 0 94 -23l-18 -246h-43q-44 94 -140 94q-70 0 -125 -65.5t-55 -159.5v-352q0 -90 10 -119q11 -26 86 -29l107 -6v-61q-72 2 -117.5 3
t-76.5 2t-95 1t-84 -0.5t-71 -2t-101 -3.5v61l94 6q54 3 66 29q10 29 10 119z" />
    <glyph glyph-name="s" unicode="s" horiz-adv-x="868" 
d="M84 293h61v-84q0 -87 81 -130.5t184 -43.5q99 0 169 52.5t70 133.5q0 50 -25.5 86.5t-72.5 48.5q-29 8 -62.5 16l-72 17.5t-87 23.5t-79.5 25q-82 32 -128 84.5t-46 139.5q0 154 110 226.5t275 72.5q121 0 264 -52q-6 -76 -10 -231h-58v47q0 76 -71 122t-166 46
q-201 0 -201 -166q0 -66 52.5 -103.5t170.5 -58.5q190 -31 274.5 -89t84.5 -173q0 -108 -63.5 -185.5t-167.5 -118t-222 -40.5q-146 0 -287 49q14 56 18.5 122t4.5 163z" />
    <glyph glyph-name="t" unicode="t" horiz-adv-x="668" 
d="M201 782l-156 -8v43l160 72v143q0 89 -8 162q106 33 174 78l24 -23q-22 -165 -22 -291v-77l280 12l-18 -111h-262v-536q0 -72 24.5 -107t87.5 -35q53 0 121 39l27 -34l-98 -109q-24 -25 -134 -25q-200 0 -200 218v589z" />
    <glyph glyph-name="u" unicode="u" horiz-adv-x="1235" 
d="M1030 952v-743q0 -90 10 -119q13 -26 66 -29l84 -6v-61q-34 2 -71.5 3.5t-48 2t-48.5 0.5q-39 0 -50 -0.5t-48.5 -2t-73.5 -3.5q8 114 8 188l-137 -127q-89 -80 -229 -80q-100 0 -161.5 29t-88.5 79.5t-33 104.5t-6 138v344q0 104 -15.5 126.5t-74.5 22.5h-76v58
q82 8 170 32.5t149 51.5l19 -9v-604q0 -87 17.5 -140t65.5 -80.5t140 -27.5q64 0 124 37.5t98 93.5t38 105v334q0 103 -14 127q-18 22 -76 22h-76v58q82 8 168.5 32.5t151.5 51.5z" />
    <glyph glyph-name="v" unicode="v" horiz-adv-x="1157" 
d="M926 741l-242 -532q-21 -47 -46 -119.5t-38 -103.5h-102l-353 825q-13 32 -26 49.5t-37 18.5l-70 4v57q80 -2 140 -4t100 -2q41 0 99 2t138 4v-57l-100 -4q-51 -3 -51 -43q0 -27 18 -74l244 -590q96 210 127 287l86 217q39 94 39 147t-49 56l-84 4v57q64 -2 112 -4t80 -2
t80.5 2t112.5 4v-57l-64 -4q-34 -3 -60.5 -41t-53.5 -97z" />
    <glyph glyph-name="w" unicode="w" horiz-adv-x="1708" 
d="M594 379l252 582h47q14 -47 59 -166l236 -594q78 199 98 254l103 286q14 38 14 68q0 67 -80 70l-70 4v57q66 -2 117 -4t84 -2q34 0 84.5 2t116.5 4v-57l-53 -4q-35 -3 -63 -43.5t-69 -135.5l-139 -319q-29 -69 -45 -114.5l-41 -119l-55 -161.5h-94l-279 700l-60.5 -128.5
t-45.5 -100.5l-201 -471h-96l-209 688q-37 122 -66 162t-69 43l-58 4v57q82 -2 143 -4t101 -2q42 0 103 2t141 4v-57l-82 -4q-40 -3 -59 -15.5t-19 -40.5q0 -20 8 -45l172 -565q17 34 39.5 86.5z" />
    <glyph glyph-name="x" unicode="x" horiz-adv-x="1057" 
d="M590 520l303 -409q30 -43 72 -50l51 -6v-61q-28 2 -55 3.5t-35 2t-35 0.5q-22 0 -58.5 -2t-68.5 -4q-17 13 -53 67l-219 332l-152 -200q-31 -43 -73 -112t-50 -81h-176v55h35q33 0 61 31l305 360l-245 357q-16 22 -45 39t-58 20l-43 4l-10 54l238 41q92 -94 122 -142
l156 -237l254 358h168v-57h-29q-50 0 -69 -23z" />
    <glyph glyph-name="y" unicode="y" horiz-adv-x="1139" 
d="M608 176l244 598q12 31 12 49q0 48 -86 56l-53 4v57q64 -2 113.5 -4t81.5 -2q33 0 80.5 2t113.5 4v-57l-57 -4q-37 -3 -75.5 -59t-96.5 -189l-416 -959q-37 -83 -75.5 -137t-95.5 -84.5t-140 -30.5q-52 0 -103 31l49 154h27q20 -18 53 -32.5t52 -14.5q55 4 96.5 46.5
t68.5 95t58 126.5l47 125q-35 97 -115 291l-223 536q-22 54 -47 76t-60 25l-36 4v57q78 -2 138 -4t99 -2q41 0 100.5 2t137.5 4v-57l-78 -4q-68 -3 -68 -54q0 -36 19 -80l131 -344q45 -123 104 -225z" />
    <glyph glyph-name="z" unicode="z" 
d="M932 885l-643 -813h276q129 0 206.5 10t84.5 41l37 162h61q-5 -48 -17.5 -141t-12.5 -150q-140 2 -280.5 3.5t-177.5 2t-177 0.5q-54 0 -68.5 -0.5t-68 -2t-107.5 -3.5l-12 41q124 140 184 215l348 434q78 98 133 184h-292q-113 0 -152 -9.5t-45 -43.5l-25 -139h-61
q12 122 12 123t6 147q49 0 120 -1t155 -2.5t144 -2t155 -0.5q36 0 90.5 2t126.5 4v-61z" />
    <glyph glyph-name="braceleft" unicode="{" horiz-adv-x="682" 
d="M422 262v-354q0 -116 38.5 -181t131.5 -85q-94 0 -151.5 13.5t-94.5 48t-54.5 99t-17.5 162.5v344q0 118 -29.5 170.5t-125.5 79.5q91 29 123 83.5t32 160.5v381q0 125 35.5 190.5t103.5 89t179 23.5q-65 -19 -102.5 -54t-52.5 -86.5t-15 -127.5v-381q0 -82 -12.5 -135.5
t-49 -89t-104.5 -52.5v-4q102 -26 134 -93.5t32 -201.5z" />
    <glyph glyph-name="bar" unicode="|" horiz-adv-x="1241" 
d="M563 0v1487h115v-1487h-115z" />
    <glyph glyph-name="braceright" unicode="}" horiz-adv-x="682" 
d="M260 -92v354q0 69 6.5 115.5t23.5 82t51 60t85 37.5v4q-100 27 -133 89.5t-33 187.5v381q0 76 -15 127.5t-52.5 86.5t-102.5 54q111 0 179 -23.5t103.5 -89t35.5 -190.5v-381q0 -106 31.5 -160.5t123.5 -83.5q-96 -27 -125.5 -79.5t-29.5 -170.5v-344q0 -103 -16.5 -165
t-54 -96.5t-96 -48t-151.5 -13.5q93 20 131.5 85t38.5 181z" />
    <glyph glyph-name="asciitilde" unicode="~" horiz-adv-x="1241" 
d="M1065 711l72 -82q-31 -59 -74.5 -110t-99 -82t-115.5 -31q-33 0 -83.5 15.5t-96 33.5t-97.5 41q-19 9 -42.5 18.5t-48.5 18t-45.5 12.5t-41.5 4q-73 0 -117 -47t-100 -142l-72 82q60 108 127 173t164 65q50 0 105.5 -18.5t134.5 -53.5l89 -38.5t68 -24.5t58 -10
q64 0 123 54.5t92 121.5z" />
    <glyph glyph-name="Zcaron" horiz-adv-x="1366" 
d="M1305 1358l-996 -1268h559q120 0 188 4.5t101.5 18t48 41.5t19.5 84l12 116h70q-13 -132 -13 -360q-132 2 -269 3.5t-176 2t-179 0.5q-107 0 -293 -2t-346 -4v57l122 147t76 93l619 794q139 177 176 242h-467q-104 0 -164.5 -5t-91.5 -16t-41 -27t-14 -48l-13 -146h-69
q6 84 6 166q0 83 -6 166q67 0 169.5 -1t220.5 -2.5t203 -2t220 -0.5q53 0 133 2t186 4zM760 1626l225 178h62l-230 -288h-112l-230 288h64z" />
    <glyph glyph-name="ogonek" horiz-adv-x="641" 
d="M469 -180l33 -43q-126 -115 -232 -115q-55 0 -93 39t-38 94q0 46 30 92.5t73 71.5h75q-31 -24 -56 -59t-25 -70q0 -34 24 -59t59 -25q37 0 78.5 22t71.5 52z" />
    <glyph glyph-name="caron" horiz-adv-x="682" 
d="M342 1176l250 210h70l-256 -342h-127l-256 342h71z" />
    <glyph glyph-name="quotesinglbase" unicode="&#x201a;" horiz-adv-x="569" 
d="M403 225l27 -26q-44 -118 -113.5 -238.5t-150.5 -224.5l-90 -49l-31 20q145 225 160 457q44 10 105 30.5z" />
    <glyph glyph-name="florin" unicode="&#x192;" 
d="M637 745l-148 -712q-19 -101 -56.5 -201.5t-94.5 -183.5t-142.5 -134t-195.5 -51q24 108 31 183l22 14q38 -41 92 -41q39 0 64 21.5t45.5 81.5t42.5 172l164 851q-55 -3 -110.5 -5.5t-110.5 -4.5q0 3 8.5 44.5t11.5 64.5q37 -2 111 -4t108 -4q58 261 154 405
q133 200 336 205q-22 -74 -29 -189l-20 -16q-4 2 -21.5 17t-35.5 23.5t-42 8.5q-52 0 -74.5 -35t-35.5 -112l-56 -307q35 2 108 4t107 4q-6 -27 -18 -111q-53 5 -95 7.5t-120 4.5z" />
    <glyph glyph-name="quotedblbase" unicode="&#x201e;" 
d="M463 225l26 -26q-96 -252 -264 -463l-90 -49l-31 20q48 74 80.5 146.5t54 152.5t25.5 158q44 10 105 30.5t94 30.5zM893 225l27 -26q-98 -254 -265 -463l-90 -49l-30 20q33 50 61 106t48 113t33.5 120.5t16.5 117.5q44 10 105 30.5t94 30.5z" />
    <glyph glyph-name="ellipsis" unicode="&#x2026;" horiz-adv-x="2048" 
d="M1022 -10q-47 0 -82 36t-35 83q0 46 35 82t82 36q48 0 84.5 -35.5t36.5 -82.5t-36 -83t-85 -36zM340 -10q-47 0 -82 36t-35 83q0 46 35 82t82 36q48 0 84.5 -35.5t36.5 -82.5t-36 -83t-85 -36zM1704 -10q-47 0 -82 36t-35 83q0 45 35.5 81.5t81.5 36.5q48 0 84.5 -35.5
t36.5 -82.5t-36 -83t-85 -36z" />
    <glyph glyph-name="dagger" unicode="&#x2020;" 
d="M315 942h121v107q0 84 -22 317l-4 45l10 10q30 -2 54.5 -4t37.5 -2q14 0 37 2t55 4l10 -10l-4 -45l-14.5 -164.5t-7.5 -152.5v-107h121q21 0 59.5 2t77.5 5.5t59 4.5l39 2l10 -10q-6 -33 -6 -69q0 -35 6 -68l-10 -10l-39 2q-32 2 -98 7t-98 5h-121v-160q0 -133 1 -234
t3.5 -189.5t9.5 -176.5l4 -53l-10 -10q-58 8 -84 8t-84 -8l-10 10l4 53q10 150 12 275t2 325v160h-121q-32 0 -99 -5t-97 -7l-39 -2l-10 10q6 33 6 68q0 36 -6 69l10 10l39 -2q49 -3 101 -7.5t95 -4.5z" />
    <glyph glyph-name="daggerdbl" unicode="&#x2021;" 
d="M283 989h153v96q0 47 -3.5 95t-8.5 96l-10 96l-4 39l10 10q30 -2 54.5 -4t37.5 -2q14 0 37 2t55 4l10 -10l-4 -39l-14.5 -150t-7.5 -137v-96h153q33 0 68 2.5t68.5 6t66.5 6.5l10 -11q-6 -30 -6 -65q0 -34 6 -72l-10 -10q-24 1 -62 5t-72.5 6.5t-68.5 2.5h-153
q0 -187 16 -403q-16 -216 -16 -406h153q33 0 68 2.5t68.5 6t66.5 6.5l10 -11q-6 -30 -6 -65q0 -37 6 -72l-10 -10q-24 1 -62 5t-72.5 6.5t-68.5 2.5h-153v-96q0 -59 7.5 -137l14.5 -150l4 -39l-10 -10q-24 2 -51 4t-41 2q-19 0 -29 -1t-25.5 -2t-37.5 -3l-10 10l4 39
q22 211 22 287v96h-153q-33 0 -68 -2.5t-73 -6.5t-62 -5l-10 10q6 34 6 72q0 35 -6 65l10 11q34 -3 67 -6.5t67.5 -6t68.5 -2.5h153q0 190 -16 406q16 216 16 403h-153q-33 0 -68 -2.5t-73 -6.5t-62 -5l-10 10q6 37 6 72t-6 65l10 11q34 -3 67 -6.5t67.5 -6t68.5 -2.5z" />
    <glyph glyph-name="circumflex" unicode="&#x2c6;" horiz-adv-x="682" 
d="M279 1386h127l256 -342h-72l-248 211l-248 -211h-71z" />
    <glyph glyph-name="perthousand" unicode="&#x2030;" horiz-adv-x="2343" 
d="M543 1411q76 0 139.5 -39t100 -107.5t36.5 -152.5q0 -92 -37 -169t-104 -121t-154 -44q-117 0 -194.5 84.5t-77.5 218.5q0 90 36.5 166.5t103.5 120t151 43.5zM539 1364q-84 0 -120 -83.5t-36 -188.5q0 -267 145 -267q84 0 122 84t38 185q0 110 -32 190t-117 80z
M1153 633q77 0 140.5 -39t100 -107.5t36.5 -152.5q0 -93 -37 -169.5t-104 -120.5t-154 -44q-118 0 -195.5 84.5t-77.5 218.5q0 90 36.5 166.5t103.5 120t151 43.5zM1149 586q-59 0 -94 -42.5t-48.5 -104.5t-13.5 -126q0 -266 146 -266q58 0 93.5 42t50.5 104t15 122
q0 68 -11.5 127t-45 101.5t-92.5 42.5zM1815 633q76 0 139.5 -39t100 -107.5t36.5 -152.5q0 -93 -37 -169.5t-104 -120.5t-154 -44q-118 0 -195 84.5t-77 218.5q0 90 36.5 166.5t103 120t151.5 43.5zM1810 586q-85 0 -120 -83t-35 -190q0 -266 145 -266q45 0 76 25t49.5 66
t26.5 86t8 91q0 107 -32.5 189t-117.5 82zM487 -41h-81l800 1493h82z" />
    <glyph glyph-name="Scaron" unicode="&#x160;" horiz-adv-x="1075" 
d="M915 1077h-65l-12 117q-5 44 -21 67.5t-69 55.5q-40 25 -98 37t-126 12q-73 0 -144 -34t-115 -102t-44 -163q0 -54 18 -96t57 -73t101 -52t162 -33q235 -24 353 -97.5t118 -238.5t-87.5 -283t-231 -176.5t-299.5 -58.5q-101 0 -193 23.5t-158 54.5q9 61 12 137t3 176h65
l17 -137q7 -64 110 -114t224 -50q96 0 179.5 37.5t135 109.5t51.5 169q0 135 -91.5 194.5t-268.5 79.5q-158 18 -258.5 60t-145.5 112.5t-45 177.5q0 149 77.5 255t198 157t248.5 51q110 0 193.5 -24t177.5 -62q-29 -151 -29 -289zM522 1651l226 178h61l-229 -289h-113
l-229 289h63z" />
    <glyph glyph-name="guilsinglleft" unicode="&#x2039;" horiz-adv-x="678" 
d="M299 508l244 -332l-47 -31q-20 22 -65.5 65.5l-70.5 68.5l-225 217v24l93 89.5l110 107.5l158 160l47 -27q-25 -29 -62 -82z" />
    <glyph glyph-name="OE" unicode="&#x152;" horiz-adv-x="2044" 
d="M45 698q0 221 97 393t270.5 266.5t394.5 94.5q57 0 121 -7.5l125 -14.5q15 -1 65 -10t72 -9q68 1 146 2t140 2t98 1.5t99 0.5q145 0 264 -6q-32 -131 -32 -311h-72v133q0 48 -18 55q-49 19 -114.5 28t-127.5 12t-143 3q-107 0 -173 -16v-547q99 -6 222 -6q181 0 217 22
q13 12 16 54l10 106h62q-2 -80 -4 -140t-2 -97t2 -94.5t4 -133.5h-62l-10 121q-3 43 -16 51q-34 25 -217 25q-158 0 -222 -6v-574q66 -16 173 -16q128 0 251 6.5t146 19.5t41.5 74.5t29.5 155.5h72q-14 -71 -23.5 -160.5t-9.5 -175.5q-270 -6 -403 -6q-183 0 -316.5 -5.5
t-218.5 -17.5q-97 -12 -204 -12q-156 0 -293 50t-241 147.5t-160 234.5t-56 307zM1063 285v817q0 106 -10 170q-44 45 -118 67.5t-149 22.5q-125 0 -223.5 -39.5t-168.5 -116t-107 -189t-37 -253.5q0 -144 36 -274.5t105.5 -229.5t175 -155t236.5 -56q52 0 138 21.5
t112 44.5q10 64 10 170z" />
    <glyph glyph-name="Lslash" horiz-adv-x="1251" 
d="M248 676v489q0 125 -19 154q-17 28 -86 31l-98 6v61q160 -6 303 -6q138 0 297 6v-61l-98 -6q-69 -3 -86 -31q-19 -29 -19 -154v-370l283 172l33 -66l-316 -192v-613q66 -16 172 -16q412 0 453 39q16 14 43 131l25 102h65q-16 -147 -25 -223t-18 -129q-270 -6 -403 -6
q-122 2 -194.5 3t-120 2t-132.5 1q-44 0 -56.5 -0.5t-47 -2t-70.5 -3.5v47l64 33q51 27 51 121v395l-203 -123l-33 65z" />
    <glyph glyph-name="ordmasculine" horiz-adv-x="682" 
d="M360 1452q82 0 152 -37.5t110 -102.5t40 -141q0 -69 -24.5 -127.5t-72 -101.5t-112 -66.5t-140.5 -23.5q-127 0 -210 80t-83 207q0 91 40.5 162.5t117 111t182.5 39.5zM330 1411q-99 0 -143 -61.5t-44 -157.5q0 -116 51.5 -207.5t161.5 -91.5q84 0 133.5 67t49.5 158
q0 79 -25.5 146t-74 107t-109.5 40z" />
    <glyph glyph-name="fraction" horiz-adv-x="342" 
d="M-233 0h-107l924 1411h106z" />
    <glyph glyph-name="breve" horiz-adv-x="682" 
d="M53 1360h62q0 -90 70 -145.5t157 -55.5q86 0 156.5 56t70.5 145h62q0 -89 -34 -163t-100 -117.5t-155 -43.5q-134 0 -211.5 93t-77.5 231z" />
    <glyph glyph-name="quoteleft" unicode="&#x2018;" horiz-adv-x="569" 
d="M356 1403l90 49l31 -20q-68 -106 -109.5 -222t-50.5 -235q-37 -9 -79.5 -23l-118.5 -39l-27 27q97 252 264 463z" />
    <glyph glyph-name="quoteright" unicode="&#x2019;" horiz-adv-x="569" 
d="M213 963l-90 -50l-31 21q145 225 160 457q44 10 105 30.5t94 30.5l26 -27q-96 -252 -264 -462z" />
    <glyph glyph-name="quotedblleft" unicode="&#x201c;" 
d="M369 1403l90 49l30 -20q-144 -225 -159 -457q-34 -8 -83.5 -24l-115.5 -38l-27 27q98 254 265 463zM799 1403l90 49l31 -20q-145 -224 -160 -457q-34 -8 -83.5 -24l-115.5 -38l-26 27q96 252 264 463z" />
    <glyph glyph-name="quotedblright" unicode="&#x201d;" 
d="M225 963l-90 -50l-31 21q48 74 80.5 146.5t54 152.5t25.5 158q44 10 105 30.5t94 30.5l26 -27q-96 -252 -264 -462zM655 963l-90 -50l-30 21q33 50 61 106t48 113t33.5 120.5t16.5 117.5q44 10 105 30.5t94 30.5l27 -27q-98 -253 -265 -462z" />
    <glyph glyph-name="bullet" unicode="&#x2022;" horiz-adv-x="1241" 
d="M268 705q0 93 48 174.5t129.5 129.5t175.5 48q93 0 174.5 -48t129.5 -129.5t48 -174.5q0 -94 -48 -175.5t-129.5 -129.5t-174.5 -48q-70 0 -135 27.5t-114 76.5t-76.5 114t-27.5 135z" />
    <glyph glyph-name="emdash" unicode="&#x2013;" 
d="M1024 449h-1024v118h1024v-118z" />
    <glyph glyph-name="endash" unicode="&#x2014;" horiz-adv-x="2048" 
d="M2048 449h-2048v118h2048v-118z" />
    <glyph glyph-name="tilde" unicode="&#x2dc;" horiz-adv-x="682" 
d="M621 1311h59q0 -26 -13 -61.5t-40 -69.5q-65 -84 -164 -84q-38 0 -66 7.5t-72 28.5t-53 25q-67 31 -100 31q-73 0 -109 -92h-59q17 93 74 148.5t149 55.5q37 0 76 -15t80 -36q90 -41 123 -41q49 7 72.5 30.5t42.5 72.5z" />
    <glyph glyph-name="trademark" unicode="&#x2122;" horiz-adv-x="2005" 
d="M1704 719v610h-4l-307 -745h-17l-311 745h2h-4v-637q0 -38 20.5 -50t77.5 -17v-41h-248v41q58 5 78.5 16.5t20.5 50.5v606q0 49 -12.5 62.5t-41.5 13.5h-28v37h223l264 -631l271 631h229v-37h-43q-55 0 -55 -41v-614q0 -54 14.5 -74t67.5 -20h22v-41h-324v41h23
q37 0 54.5 9t22.5 28.5t5 56.5zM371 715v647h-84q-61 0 -94.5 -11.5t-48.5 -43.5t-15 -93h-47v197h692v-197h-47q0 89 -33.5 118.5t-124.5 29.5h-84v-647q0 -64 23 -78q24 -12 106 -12v-41h-372v41q82 0 106 12q23 14 23 78z" />
    <glyph glyph-name="scaron" unicode="&#x161;" horiz-adv-x="868" 
d="M84 293h61v-84q0 -87 81 -130.5t184 -43.5q99 0 169 52.5t70 133.5q0 50 -25.5 86.5t-72.5 48.5q-29 8 -62.5 16l-72 17.5t-87 23.5t-79.5 25q-82 32 -128 84.5t-46 139.5q0 154 110 226.5t275 72.5q121 0 264 -52q-6 -76 -10 -231h-58v47q0 76 -71 122t-166 46
q-201 0 -201 -166q0 -66 52.5 -103.5t170.5 -58.5q190 -31 274.5 -89t84.5 -173q0 -108 -63.5 -185.5t-167.5 -118t-222 -40.5q-146 0 -287 49q14 56 18.5 122t4.5 163zM442 1184l226 178h61l-229 -289h-113l-229 289h63z" />
    <glyph glyph-name="guilsinglright" unicode="&#x203a;" horiz-adv-x="678" 
d="M135 176l244 332l-182 260q-37 53 -62 82l47 27l158 -160l79 -77.5l56 -54l68 -65.5v-24l-226 -217q-23 -25 -57.5 -58l-77.5 -76z" />
    <glyph glyph-name="oe" unicode="&#x153;" horiz-adv-x="1694" 
d="M1264 471h-299q0 -89 22.5 -163t69.5 -128.5t116.5 -83t161.5 -28.5q66 0 123 24t135 72l29 -21l-41 -69q-9 -15 -62.5 -42.5t-129 -50t-140.5 -22.5q-111 0 -195.5 43.5t-162.5 134.5q-78 -88 -168.5 -133t-187.5 -45q-130 0 -238 62t-169.5 180t-61.5 280
q0 145 66.5 255t178.5 167.5t244 57.5q71 0 134 -17t118 -52t104 -87q92 86 169.5 121t168.5 35q171 0 280 -102t109 -273q0 -58 -4 -86q-170 -29 -370 -29zM514 893q-86 0 -144 -42.5t-86 -120.5t-28 -183q0 -147 37.5 -266.5t109 -186.5t164.5 -67q134 0 196 108t62 279
q0 113 -27 222.5t-97.5 183t-186.5 73.5zM1260 893q-70 0 -124 -22t-90.5 -64t-56.5 -107t-20 -147q106 -12 262 -12q124 0 237 6q0 149 -62 247.5t-146 98.5z" />
    <glyph glyph-name="dotlessi" horiz-adv-x="588" 
d="M385 952v-743q0 -90 10 -119q12 -26 66 -29l94 -6v-61q-50 2 -101 3.5t-71 2t-84 0.5t-84 -0.5t-71 -2t-101 -3.5v61l94 6q54 3 66 29q10 29 10 119v461q0 103 -14 127q-18 22 -76 22h-76v58q82 8 168.5 32.5t151.5 51.5z" />
    <glyph glyph-name="dotlessi" unicode="&#x131;" horiz-adv-x="588" 
d="M385 952v-743q0 -90 10 -119q12 -26 66 -29l94 -6v-61q-50 2 -101 3.5t-71 2t-84 0.5t-84 -0.5t-71 -2t-101 -3.5v61l94 6q54 3 66 29q10 29 10 119v461q0 103 -14 127q-18 22 -76 22h-76v58q82 8 168.5 32.5t151.5 51.5z" />
    <glyph glyph-name="zcaron" 
d="M932 885l-643 -813h276q129 0 206.5 10t84.5 41l37 162h61q-5 -48 -17.5 -141t-12.5 -150q-140 2 -280.5 3.5t-177.5 2t-177 0.5q-54 0 -68.5 -0.5t-68 -2t-107.5 -3.5l-12 41q124 140 184 215l348 434q78 98 133 184h-292q-113 0 -152 -9.5t-45 -43.5l-25 -139h-61
q12 122 12 123t6 147q49 0 120 -1t155 -2.5t144 -2t155 -0.5q36 0 90.5 2t126.5 4v-61zM545 1147l225 178h61l-229 -289h-113l-229 289h64z" />
    <glyph glyph-name="Ydieresis" horiz-adv-x="1366" 
d="M451 1233l292 -535l211 334l75.5 124.5t80.5 140.5l66 124h163v-30q-85 -98 -189 -237.5t-188.5 -270.5t-125.5 -219q-29 -63 -29 -154v-264q0 -124 18 -154q18 -28 86 -31l99 -6v-61q-160 6 -297 6q-144 0 -303 -6v61l98 6q69 3 86 31q18 30 18 154v291q0 51 -18 81
l-254 443q-51 86 -100.5 145t-91.5 88.5t-70 32.5l-60 6v60l236 49q31 0 52.5 -18t53.5 -58q55 -67 91 -133zM559 1763q47 0 75 -28t28 -74t-28 -74t-75 -28q-46 0 -74 28t-28 74t28 74t74 28zM928 1763q46 0 74 -28t28 -74t-28 -74t-74 -28q-47 0 -75 28t-28 74t28 74
t75 28z" />
    <glyph glyph-name="Ydieresis" unicode="&#x178;" horiz-adv-x="1366" 
d="M451 1233l292 -535l211 334l75.5 124.5t80.5 140.5l66 124h163v-30q-85 -98 -189 -237.5t-188.5 -270.5t-125.5 -219q-29 -63 -29 -154v-264q0 -124 18 -154q18 -28 86 -31l99 -6v-61q-160 6 -297 6q-144 0 -303 -6v61l98 6q69 3 86 31q18 30 18 154v291q0 51 -18 81
l-254 443q-51 86 -100.5 145t-91.5 88.5t-70 32.5l-60 6v60l236 49q31 0 52.5 -18t53.5 -58q55 -67 91 -133zM559 1763q47 0 75 -28t28 -74t-28 -74t-75 -28q-46 0 -74 28t-28 74t28 74t74 28zM928 1763q46 0 74 -28t28 -74t-28 -74t-74 -28q-47 0 -75 28t-28 74t28 74
t75 28z" />
    <glyph glyph-name="fl" unicode="&#xa0;" horiz-adv-x="1245" 
d="M866 209v1032q0 113 -51 113h-86v-43l-45 -13q-78 58 -145 58q-64 0 -95.5 -24.5t-43 -86.5t-11.5 -182v-174l268 8l-14 -109h-254v-579q0 -90 10 -119q13 -26 66 -29l106 -6v-61q-58 2 -112.5 3.5l-73 2t-82.5 0.5t-84 -0.5t-71 -2t-101 -3.5v61l94 6q54 3 66 29
q10 29 10 119v579l-141 -8v45l141 64v86q0 67 9 120.5t28 96.5t49 78l119 135q37 43 87 64.5t97 21.5q24 0 54 -7l69 -16v-57q182 36 291 76l18 -21v-1257q0 -91 11 -119q12 -26 65 -29l94 -6v-61q-48 2 -101 3.5l-71.5 2t-83.5 0.5q-64 0 -84 -0.5t-71 -2t-101 -3.5v61
l95 6q54 3 65 29q10 29 10 119z" />
    <glyph glyph-name="exclamdown" unicode="&#xa1;" horiz-adv-x="569" 
d="M236 -461h-70v51q0 32 3.5 83t9 99.5t11.5 110.5l50 570v51l57 47l20 -10q0 -56 5 -82l53 -625q6 -70 14 -217zM283 723q-47 0 -82 36t-35 83q0 45 35 82t82 37q49 0 84.5 -36.5t35.5 -82.5q0 -47 -35 -83t-85 -36z" />
    <glyph glyph-name="cent" unicode="&#xa2;" 
d="M711 842l-217 -723q76 -45 172 -45q102 0 233 57l19 -22l-41 -68q-133 -70 -283 -70q-84 0 -141 11l-58 -189h-84l66 213q-125 58 -188.5 173t-63.5 257q0 155 48.5 257.5t160.5 158.5l164 82q59 29 168 29l55 188h82l-55 -188q39 0 85.5 -16.5t77.5 -37.5
q-10 -59 -16 -133t-6 -133h-58l-18 135q-32 37 -102 64zM426 172l207 686q-45 10 -78 10q-114 0 -181 -88t-67 -262q0 -104 28.5 -197.5t90.5 -148.5z" />
    <glyph glyph-name="sterling" unicode="&#xa3;" 
d="M766 737l-8 -98q-246 8 -371 10q-8 -248 -192 -508q94 15 211 15q94 0 205 -5l216 -10q38 0 50.5 17t17.5 59l14 107h54v-304q-48 -40 -82 -40q-230 0 -387 38q-148 35 -332 48l-92 -93h-45v101q34 34 98 65q17 9 40.5 66t40.5 157t17 224v61q-32 0 -89.5 -2t-106.5 -4
l16 92q30 0 82.5 -2t97.5 -4v217q0 65 37 158q29 68 89.5 124.5t180.5 127.5q115 67 244 67q128 0 207 -53q-21 -103 -21 -215q0 -43 3 -63h-68q0 73 -10 116t-37 70t-80 41q-33 8 -90 8q-108 0 -171 -63t-87.5 -157.5t-24.5 -197.5v-182q47 2 93.5 3.5l93.5 3t94 2.5t92 3z
" />
    <glyph glyph-name="currency" unicode="&#xa4;" 
d="M158 1087l98 -98q45 39 114 61.5t142 22.5t142.5 -22.5t113.5 -61.5l98 98l97 -96l-101 -100q44 -44 65 -109.5t21 -142.5q0 -152 -86 -250l101 -100l-93 -92l-98 98q-95 -86 -260 -86t-260 86l-98 -98l-93 92l101 100q-86 98 -86 250q0 166 86 252l-101 100zM512 952
q-85 0 -157.5 -42t-115 -114t-42.5 -157q0 -82 42.5 -153.5t115 -113.5t157.5 -42t157.5 42t115 113.5t42.5 153.5q0 64 -24.5 122t-68.5 101t-101.5 66.5t-120.5 23.5z" />
    <glyph glyph-name="yen" unicode="&#xa5;" 
d="M684 782h250v-80h-285q-35 -79 -35 -133v-65h320v-80h-320v-178q0 -124 17 -154q14 -28 74 -31l83 -6v-61q-138 6 -256 6q-137 0 -241 -6v61l84 6q58 3 74 31q16 31 16 154v178h-320v80h320v33q0 41 -12 63l-43 102h-265v80h228l-154 328q-44 99 -89 160t-120 61v60
l189 43q79 0 108 -68q6 -9 51 -133l213 -535l144 334q82 188 157 389h144v-30q-66 -91 -136.5 -217.5t-129.5 -251.5z" />
    <glyph glyph-name="brokenbar" unicode="&#xa6;" horiz-adv-x="1241" 
d="M563 0v598h115v-598h-115zM563 1487h115v-588h-115v588z" />
    <glyph glyph-name="section" unicode="&#xa7;" 
d="M825 1067h-63l-10 178q-56 52 -117 76.5t-135 24.5q-75 0 -138.5 -29.5t-101 -87.5t-37.5 -135q0 -52 29.5 -91t80 -66.5t126 -53l129.5 -43.5q175 -56 269.5 -122.5t94.5 -199.5q0 -164 -159 -291q122 -58 122 -219q0 -80 -41.5 -162t-111 -148t-161 -106.5
t-183.5 -40.5q-86 0 -174 24.5t-154 66.5q20 186 25 321h65l10 -184q56 -65 124 -93t173 -28q79 0 148 28t110 84t41 136q0 112 -89.5 165.5t-276.5 112.5q-124 41 -195.5 74.5t-121.5 92.5t-50 151q0 53 22.5 106t63 99t84.5 75q-55 39 -87 94.5t-32 116.5q0 89 36.5 172
t101.5 148t150.5 102t176.5 37q166 0 283 -74q-24 -166 -27 -311zM276 756q-88 -76 -88 -185q0 -116 226 -204q52 -19 129 -43.5l126 -41t79 -30.5q69 105 69 182t-49.5 124.5t-140.5 82.5q-37 15 -91 31.5l-103.5 31t-84.5 26t-72 26.5z" />
    <glyph glyph-name="dieresis" unicode="&#xa8;" horiz-adv-x="682" 
d="M137 1305q47 0 75 -28t28 -75q0 -46 -28 -74t-75 -28q-46 0 -74 28t-28 74q0 47 28 75t74 28zM545 1305q46 0 74 -28t28 -75q0 -46 -28 -74t-74 -28q-47 0 -75 28t-28 74q0 47 28 75t75 28z" />
    <glyph glyph-name="copyright" unicode="&#xa9;" horiz-adv-x="1530" 
d="M760 1446q154 0 288.5 -56.5t238 -158.5t162 -238t58.5 -288q0 -151 -58.5 -287t-160 -237.5t-239.5 -159.5t-287 -58t-285 58.5t-237 159.5t-159 237t-58 284q0 150 58 286.5t158 238.5t236 160.5t285 58.5zM760 1356q-133 0 -249 -50t-207 -141.5t-141 -210.5t-50 -252
q0 -174 88 -323.5t237.5 -237.5t323.5 -88q176 0 326.5 87.5t239.5 238t89 326.5q0 136 -50.5 253.5t-142.5 208t-211.5 140t-252.5 49.5zM1079 1069v-219h-53q-2 71 -27 119t-74 74t-120 26q-145 0 -223 -102.5t-78 -251.5q0 -92 34.5 -178t103.5 -141.5t163 -55.5
q86 0 151.5 41.5t100.5 116.5l43 -19q-36 -93 -131.5 -148t-202.5 -55q-118 0 -210 54.5t-141.5 150.5t-49.5 215q0 127 52.5 223t149 149.5t224.5 53.5q134 0 288 -53z" />
    <glyph glyph-name="ordfeminine" unicode="&#xaa;" horiz-adv-x="682" 
d="M307 1208l131 21q0 74 -40.5 115.5t-127.5 41.5q-42 0 -60 -4.5t-32 -19.5q-4 -5 -22 -41l-19 -39l-35 8v80l72 41q71 41 154 41q221 0 221 -195q0 -11 -4 -49v-209q0 -59 6 -71q7 -16 43 -19l41 -2v-35q-17 0 -46.5 2.5t-53.5 2.5q-25 0 -55 -2.5t-48 -2.5l6 105
l-166 -107q-10 -6 -61 -6q-71 0 -116.5 37t-45.5 109q0 95 69 135.5t189 62.5zM438 1028v162q-111 -13 -194 -43q-33 -11 -56.5 -45.5t-23.5 -69.5q0 -44 31.5 -71t72.5 -27q45 0 127 53q23 14 43 41z" />
    <glyph glyph-name="guillemotleft" unicode="&#xab;" 
d="M678 508l244 -332l-48 -31q-20 22 -54 54.5l-81 79.5l-225 217v24l93 89.5l110 107.5l157 160l48 -27q-25 -29 -62 -82zM266 508l244 -332l-47 -31q-20 22 -54 54.5l-81 79.5l-226 217v24l105 100t98 97l158 160l47 -27q-29 -34 -61 -82z" />
    <glyph glyph-name="logicalnot" unicode="&#xac;" horiz-adv-x="1241" 
d="M1014 246v430h-910v115h1024v-545h-114z" />
    <glyph glyph-name="minus" unicode="&#xad;" horiz-adv-x="1241" 
d="M1137 477h-1033v115h1033v-115z" />
    <glyph glyph-name="registered" unicode="&#xae;" horiz-adv-x="1530" 
d="M760 1446q154 0 288.5 -56.5t238 -158.5t162 -238t58.5 -288q0 -151 -58.5 -287t-160 -237.5t-239.5 -159.5t-287 -58t-285 58.5t-237 159.5t-159 237t-58 284q0 150 58 286.5t158 238.5t236 160.5t285 58.5zM760 1356q-133 0 -249 -50t-207 -141.5t-141 -210.5t-50 -252
q0 -174 88 -323.5t237.5 -237.5t323.5 -88q176 0 326.5 87.5t239.5 238t89 326.5q0 136 -50.5 253.5t-142.5 208t-211.5 140t-252.5 49.5zM420 1135h319q140 0 229 -39.5t89 -163.5q0 -63 -31.5 -108t-82.5 -71t-114 -34v-4q62 -7 104.5 -69t74.5 -142q38 -95 65 -123
q27 -27 80 -27v-32h-55q-90 0 -127 24q-36 28 -86 156q-17 45 -40 95.5t-44 70.5q-18 18 -44 23t-87 5h-37v-264q0 -42 9.5 -58.5t47.5 -17.5l43 -2v-32h-311v32h33q40 0 52.5 11.5t12.5 52.5v620q0 37 -15 47.5t-50 12.5l-35 2v35zM633 1008v-271h55q74 0 129.5 14.5
t90 55.5t34.5 115q0 87 -51.5 130.5t-140.5 43.5h-60q-39 0 -48 -20.5t-9 -67.5z" />
    <glyph glyph-name="macron" unicode="&#xaf;" horiz-adv-x="682" 
d="M662 1102h-639v108h639v-108z" />
    <glyph glyph-name="ring" unicode="&#xb0;" horiz-adv-x="682" 
d="M342 1425q56 0 103 -27.5t74.5 -74.5t27.5 -102q0 -56 -27.5 -103t-74.5 -74.5t-103 -27.5t-103 27.5t-74.5 74.5t-27.5 103q0 55 27.5 102t74.5 74.5t103 27.5zM342 1352q-58 0 -92.5 -36.5t-34.5 -94.5q0 -59 35 -95t92 -36t92 36t35 95q0 58 -34.5 94.5t-92.5 36.5z
" />
    <glyph glyph-name="plusminus" unicode="&#xb1;" horiz-adv-x="1241" 
d="M563 694v355h115v-355h459v-114h-459v-349h-115v349h-459v114h459zM1137 0h-1033v115h1033v-115z" />
    <glyph glyph-name="twosuperior" unicode="&#xb2;" horiz-adv-x="614" 
d="M410 897l-236 -223h250q107 0 192 10v-125q-78 2 -129.5 3t-86 2t-101.5 1q-66 0 -99.5 -1t-83.5 -2t-116 -3v41l221 213q124 120 164.5 191t40.5 139q0 76 -44.5 122t-125.5 46q-60 0 -94.5 -22t-55.5 -75l-26 -71h-49l10.5 77l13.5 105q82 86 226 86q92 0 157 -31
t96 -83.5t31 -114.5q0 -49 -17 -96t-52 -93.5t-86 -95.5z" />
    <glyph glyph-name="threesuperior" unicode="&#xb3;" horiz-adv-x="614" 
d="M55 1184l39 145q79 82 215 82q75 0 130 -22.5t85.5 -65.5t30.5 -98q0 -100 -147 -199q204 -25 204 -188q0 -63 -29 -116t-83 -93.5t-122.5 -62t-141.5 -21.5t-181 33q-3 34 -13.5 68.5t-39.5 123.5l64 16q20 -66 51 -104.5t74.5 -55t101.5 -16.5q79 0 131.5 54t52.5 135
q0 80 -43 123t-123 43q-70 0 -108 -27l-21 8l21 88q24 0 37 -0.5t28 -1.5q70 0 117 49t47 107q0 53 -42 91t-105 38q-71 0 -119 -37t-60 -96h-51z" />
    <glyph glyph-name="acute" unicode="&#xb4;" horiz-adv-x="682" 
d="M160 1036l282 283q67 67 109 67q32 0 49.5 -20t17.5 -51t-22.5 -52t-58.5 -42l-295 -185h-82z" />
    <glyph glyph-name="mu" unicode="&#xb5;" horiz-adv-x="1235" 
d="M203 -483v1153q0 104 -15.5 126.5t-74.5 22.5h-76v58q82 8 170 32.5t149 51.5l19 -9v-604q0 -87 17.5 -140t65.5 -80.5t140 -27.5q64 0 124 37.5t98 93.5t38 105v334q0 103 -14 127q-18 22 -76 22h-76v58q82 8 168.5 32.5t151.5 51.5l18 -9v-743q0 -90 10 -119
q13 -26 66 -29l84 -6v-61q-34 2 -71.5 3.5t-48 2t-48.5 0.5q-39 0 -50 -0.5t-48.5 -2t-73.5 -3.5q8 114 8 188l-137 -127q-89 -80 -229 -80q-100 0 -185 41l41 -409q0 -14 -27.5 -35.5t-63.5 -38t-54 -16.5z" />
    <glyph glyph-name="paragraph" unicode="&#xb6;" horiz-adv-x="1286" 
d="M573 782v559q-111 0 -188.5 -65t-77.5 -207q0 -109 77.5 -188t188.5 -99zM1206 1421v-61l-65 -6q-56 -7 -81 -20t-36.5 -48t-11.5 -110v-1231q0 -120 20 -150q22 -30 88 -35l86 -6v-61q-294 6 -413 6q-118 0 -157 -0.5t-117 -2t-140 -3.5v61l86 6q67 5 87.5 35t20.5 150
v762q-105 0 -221 47.5t-194 140.5t-78 215q0 86 44 156.5t136.5 112.5t233.5 42q61 -3 164.5 -6.5t193.5 -3.5q164 0 354 10zM862 1341h-139v-1587h139v1587z" />
    <glyph glyph-name="periodcentered" unicode="&#xb7;" horiz-adv-x="512" 
d="M254 416q-47 0 -82 36t-35 83q0 46 35 82t82 36q48 0 84.5 -35.5t36.5 -82.5t-36 -83t-85 -36z" />
    <glyph glyph-name="periodcentered" unicode="&#x2219;" horiz-adv-x="512" 
d="M254 416q-47 0 -82 36t-35 83q0 46 35 82t82 36q48 0 84.5 -35.5t36.5 -82.5t-36 -83t-85 -36z" />
    <glyph glyph-name="cedilla" unicode="&#xb8;" horiz-adv-x="682" 
d="M289 -221l86 201h69l-51 -134q24 9 60 9q72 0 121 -37.5t49 -106.5q0 -62 -38 -101t-94 -55t-118 -16q-48 0 -73.5 5t-102.5 28l28 63q81 -22 125 -22q59 0 89 20t30 74q0 32 -25.5 53t-56.5 21q-33 0 -84 -14z" />
    <glyph glyph-name="onesuperior" unicode="&#xb9;" horiz-adv-x="614" 
d="M266 776v488q0 39 -14 39l-166 -70h-14l-9 65l143 52.5t187 66.5l21 -6q-17 -242 -17 -418v-217q0 -75 6.5 -107t24 -44.5t55.5 -12.5h68v-53q-39 1 -81 2.5t-58 2t-39 1t-51 0.5q-37 0 -59 -1t-55.5 -2l-103.5 -3v53h74q39 0 57 12t24.5 48t6.5 104z" />
    <glyph glyph-name="degree" unicode="&#xba;" horiz-adv-x="819" 
d="M717 1104q0 -83 -41.5 -153.5t-112.5 -112t-153 -41.5q-128 0 -218 90t-90 217q0 82 41 152.5t112.5 112.5t154.5 42q61 0 117.5 -23.5t99.5 -66.5t66.5 -99.5t23.5 -117.5zM635 1104q0 60 -31 112t-83 82.5t-113 30.5q-92 0 -158 -66t-66 -159q0 -95 66 -160t160 -65
q60 0 112 30t82.5 81.5t30.5 113.5z" />
    <glyph glyph-name="guillemotright" unicode="&#xbb;" 
d="M514 176l244 332l-183 260q-32 48 -61 82l47 27l158 -160q22 -24 67.5 -67.5l73.5 -70.5l62 -59v-24l-226 -217q-23 -25 -57.5 -58l-77.5 -76zM102 176l244 332l-182 260q-37 53 -62 82l48 27l157 -160l79 -77.5l56 -54l68 -65.5v-24l-225 -217l-37.5 -38l-35 -34
l-33.5 -32.5t-29 -29.5z" />
    <glyph glyph-name="onequarter" unicode="&#xbc;" horiz-adv-x="1536" 
d="M1219 219h-355l-10 31q38 74 55 102l324 467l100 33l19 -6q-4 -80 -7.5 -159.5t-3.5 -215.5v-158q99 0 148 4v-104q-41 6 -143 6v-74q0 -100 90 -100h43v-51q-120 6 -205 6q-78 0 -219 -6v51h43q42 0 68 7.5t39.5 30.5t13.5 62v74zM1219 313v387h-5l-260 -387h265zM426 0
h-107l924 1411h107zM264 776v488q0 39 -14 39l-166 -70h-14l-9 65l143 52.5t187 66.5l21 -6q-17 -242 -17 -418v-217q0 -75 6.5 -107t24 -44.5t55.5 -12.5h68v-53q-39 1 -81 2.5t-58.5 2t-39.5 1t-51 0.5q-37 0 -58.5 -1t-55 -2l-103.5 -3v53h74q39 0 57 12t24.5 48t6.5 104
z" />
    <glyph glyph-name="onehalf" unicode="&#xbd;" horiz-adv-x="1536" 
d="M356 0h-106l924 1411h106zM233 776v488q0 39 -14 39l-166 -70h-14l-8 65l103.5 37.5l122 44.5l103.5 37l21 -6q-16 -228 -16 -418v-217q0 -75 6.5 -107.5t24 -44.5t55.5 -12h67v-53q-39 1 -81 2.5t-58 2t-39 1t-51 0.5q-37 0 -59 -1t-55 -2l-103 -3v53h73q39 0 57 12
t24.5 48t6.5 104zM1298 332l-235 -223h250q107 0 192 10v-125q-78 2 -129.5 3t-86 2t-101.5 1t-84.5 -0.5t-83 -2t-131.5 -3.5v41l221 213q124 120 164.5 191t40.5 139q0 77 -44 122t-126 45q-59 0 -94 -21.5t-56 -74.5l-26 -71h-49l10.5 77l13.5 105q80 86 225 86
q94 0 158.5 -31.5t95.5 -84t31 -114.5q0 -74 -38 -141.5t-118 -142.5z" />
    <glyph glyph-name="threequarters" unicode="&#xbe;" horiz-adv-x="1536" 
d="M84 1184l39 145q78 82 215 82q73 0 129 -22.5t86.5 -65.5t30.5 -98q0 -101 -148 -199q205 -25 205 -188q0 -82 -52.5 -149.5t-140 -105.5t-184.5 -38q-26 0 -74 8t-106 25q-1 21 -7.5 45.5t-19 63.5l-26.5 83l63 16q29 -96 84 -136t144 -40q79 0 131.5 54t52.5 135
q0 80 -43 123t-123 43q-70 0 -109 -27l-20 8l20 88q25 0 38 -0.5t28 -1.5q68 0 116 49t48 107q0 53 -43 91t-105 38q-71 0 -118.5 -37t-59.5 -96h-51zM444 0h-106l924 1411h106zM1235 313v387h-4l-260 -387h264zM1235 219h-354l-11 31l16.5 32l18.5 34t21 36l323 467l101 33
l18 -6q-10 -185 -10 -375v-158q98 0 147 4v-104q-41 6 -143 6v-74q0 -100 90 -100h43v-51q-120 6 -205 6q-78 0 -219 -6v51h43q42 0 68 7.5t39.5 30.5t13.5 62v74z" />
    <glyph glyph-name="questiondown" unicode="&#xbf;" horiz-adv-x="909" 
d="M809 -170l-78 -231q-140 -72 -256 -72q-103 0 -192 37t-142 109.5t-53 172.5q0 93 54.5 169.5t154.5 166.5l111.5 101t69 81.5t28.5 84.5q0 44 -45 100l43 29q39 -22 64.5 -63.5t25.5 -86.5q0 -61 -38 -116.5t-120 -145.5q-76 -84 -116.5 -147t-40.5 -132
q0 -63 31.5 -114.5t87.5 -81t124 -29.5q150 0 187 86l41 98zM494 723q-47 0 -82 36t-35 83q0 45 35 82t82 37q49 0 84.5 -36.5t35.5 -82.5q0 -47 -35 -83t-85 -36z" />
    <glyph glyph-name="Agrave" unicode="&#xc0;" horiz-adv-x="1593" 
d="M836 1434l495 -1164l26.5 -58.5t39.5 -80.5q20 -34 38 -50t44 -20l69 -6v-61q-67 2 -146 4t-126 2q-50 0 -79 -1t-74 -2t-119 -3v61l96 6q36 2 60 12.5t24 28.5q0 26 -43 131l-94 236h-590l-58 -137q-22 -51 -46.5 -120.5t-24.5 -92.5q0 -29 21 -40t77 -18l76 -6v-61
q-66 2 -105 3t-64 2t-67 1q-40 0 -108 -2t-127 -4v61l75 6q36 4 64.5 31.5t46.5 69.5l365 829l114 259t74 184h66zM492 551h518l-258 610zM889 1536l-260 168q-36 22 -54 39t-18 43q0 28 15 45.5t42 17.5q36 0 95 -59l254 -254h-74z" />
    <glyph glyph-name="Aacute" unicode="&#xc1;" horiz-adv-x="1593" 
d="M836 1434l495 -1164l26.5 -58.5t39.5 -80.5q20 -34 38 -50t44 -20l69 -6v-61q-67 2 -146 4t-126 2q-50 0 -79 -1t-74 -2t-119 -3v61l96 6q36 2 60 12.5t24 28.5q0 26 -43 131l-94 236h-590l-58 -137q-22 -51 -46.5 -120.5t-24.5 -92.5q0 -29 21 -40t77 -18l76 -6v-61
q-66 2 -105 3t-64 2t-67 1q-40 0 -108 -2t-127 -4v61l75 6q36 4 64.5 31.5t46.5 69.5l365 829l114 259t74 184h66zM492 551h518l-258 610zM700 1536l258 252q59 59 95 59q28 0 42.5 -17t14.5 -46q0 -26 -19 -44.5t-53 -37.5l-264 -166h-74z" />
    <glyph glyph-name="Acircumflex" unicode="&#xc2;" horiz-adv-x="1593" 
d="M836 1434l495 -1164l26.5 -58.5t39.5 -80.5q20 -34 38 -50t44 -20l69 -6v-61q-67 2 -146 4t-126 2q-50 0 -79 -1t-74 -2t-119 -3v61l96 6q36 2 60 12.5t24 28.5q0 26 -43 131l-94 236h-590l-58 -137q-22 -51 -46.5 -120.5t-24.5 -92.5q0 -29 21 -40t77 -18l76 -6v-61
q-66 2 -105 3t-64 2t-67 1q-40 0 -108 -2t-127 -4v61l75 6q36 4 64.5 31.5t46.5 69.5l365 829l114 259t74 184h66zM492 551h518l-258 610zM733 1800h111l229 -289h-63l-222 179l-221 -179h-63z" />
    <glyph glyph-name="Atilde" unicode="&#xc3;" horiz-adv-x="1593" 
d="M836 1434l495 -1164l26.5 -58.5t39.5 -80.5q20 -34 38 -50t44 -20l69 -6v-61q-67 2 -146 4t-126 2q-50 0 -79 -1t-74 -2t-119 -3v61l96 6q36 2 60 12.5t24 28.5q0 26 -43 131l-94 236h-590l-58 -137q-22 -51 -46.5 -120.5t-24.5 -92.5q0 -29 21 -40t77 -18l76 -6v-61
q-66 2 -105 3t-64 2t-67 1q-40 0 -108 -2t-127 -4v61l75 6q36 4 64.5 31.5t46.5 69.5l365 829l114 259t74 184h66zM492 551h518l-258 610zM1032 1729h58q-11 -68 -52 -119q-57 -74 -145 -74q-30 0 -55.5 6t-58 22t-54.5 25q-62 27 -88 27q-66 0 -96 -80h-54
q16 83 67.5 132.5t131.5 49.5q32 0 68 -13.5t69 -29.5q82 -37 109 -37q45 6 64.5 26t35.5 65z" />
    <glyph glyph-name="Adieresis" unicode="&#xc4;" horiz-adv-x="1593" 
d="M836 1434l495 -1164l26.5 -58.5t39.5 -80.5q20 -34 38 -50t44 -20l69 -6v-61q-67 2 -146 4t-126 2q-50 0 -79 -1t-74 -2t-119 -3v61l96 6q36 2 60 12.5t24 28.5q0 26 -43 131l-94 236h-590l-58 -137q-22 -51 -46.5 -120.5t-24.5 -92.5q0 -29 21 -40t77 -18l76 -6v-61
q-66 2 -105 3t-64 2t-67 1q-40 0 -108 -2t-127 -4v61l75 6q36 4 64.5 31.5t46.5 69.5l365 829l114 259t74 184h66zM492 551h518l-258 610zM610 1718q47 0 75 -28t28 -74q0 -47 -28 -75t-75 -28q-46 0 -74 28t-28 75q0 46 28 74t74 28zM979 1718q46 0 74 -28t28 -74
q0 -47 -28 -75t-74 -28t-74 28t-28 75q0 46 28 74t74 28z" />
    <glyph glyph-name="Aring" unicode="&#xc5;" horiz-adv-x="1593" 
d="M836 1434l495 -1164l26.5 -58.5t39.5 -80.5q20 -34 38 -50t44 -20l69 -6v-61q-67 2 -146 4t-126 2q-50 0 -79 -1t-74 -2t-119 -3v61l96 6q36 2 60 12.5t24 28.5q0 26 -43 131l-94 236h-590l-58 -137q-22 -51 -46.5 -120.5t-24.5 -92.5q0 -29 21 -40t77 -18l76 -6v-61
q-66 2 -105 3t-64 2t-67 1q-40 0 -108 -2t-127 -4v61l75 6q36 4 64.5 31.5t46.5 69.5l365 829l114 259t74 184h66zM492 551h518l-258 610zM795 1892q50 0 91.5 -24t67 -66.5t25.5 -91.5q0 -74 -55 -128t-129 -54q-76 0 -130.5 53.5t-54.5 128.5q0 76 54 129t131 53z
M795 1827q-52 0 -82.5 -31.5t-30.5 -85.5q0 -53 31 -85t82 -32q52 0 82 32t30 85q0 54 -30 85.5t-82 31.5z" />
    <glyph glyph-name="AE" unicode="&#xc6;" horiz-adv-x="1933" 
d="M922 1341l-426 -761h450v761h-24zM156 178l592 1049q38 71 38 100q0 15 -110 23l-90 6v61q224 -2 347 -4t146 -2q68 1 146 2t140.5 2t98.5 1.5t99 0.5q144 0 264 -6q-18 -72 -25.5 -154t-7.5 -157h-72v133q0 48 -18 55q-49 19 -115.5 28.5t-131 12t-154.5 2.5
q-107 0 -173 -16v-547q99 -6 238 -6q182 0 217 22q12 11 17 54l10 106h61q-2 -80 -4 -140t-2 -97t2 -94.5t4 -133.5h-61l-10 121q-5 44 -17 51q-32 25 -217 25q-174 0 -238 -6v-574q66 -16 173 -16q365 0 413 26q23 13 42 73t30 157h72q-17 -84 -25 -167t-8 -169
q-60 -2 -144.5 -3.5t-121 -2t-138.5 -0.5q-104 2 -181 3t-127 2t-138 1q-24 0 -64.5 -2t-76.5 -4v47l57 33q32 18 42.5 57t10.5 115v250q-62 2 -134.5 4t-115.5 2q-56 0 -83.5 -1t-69 -2t-97.5 -3l-131 -234q-32 -56 -44.5 -84t-12.5 -59q0 -24 30.5 -38.5t78.5 -19.5l73 -6
v-61q-153 6 -204 6q-53 0 -80 -1t-68.5 -2t-107.5 -3v61l69 11q46 7 107 112z" />
    <glyph glyph-name="Ccedilla" unicode="&#xc7;" horiz-adv-x="1452" 
d="M1372 172l-57 -102q-83 -51 -215 -81t-232 -30q-180 0 -332.5 51t-262.5 148t-169 237t-59 310q0 174 65.5 313.5t184.5 236.5q115 95 266.5 146t325.5 51q131 0 257 -25.5t216 -58.5q-39 -178 -39 -311h-64v147q0 39 -46.5 68.5t-129.5 58.5q-99 35 -229 35
q-142 0 -251.5 -48t-185 -135t-113.5 -201t-38 -245q0 -148 48.5 -273t136.5 -212t214 -134.5t275 -47.5q110 0 227 35t189 88zM567 -207l74 184h61l-45 -118q17 4 54 4q65 0 108 -32.5t43 -94.5q0 -81 -68 -117.5t-155 -36.5q-43 0 -63.5 3.5t-92.5 23.5l25 55
q74 -18 110 -18q51 0 78 17.5t27 66.5q0 29 -21 46t-51 17q-31 0 -71 -10z" />
    <glyph glyph-name="Egrave" unicode="&#xc8;" horiz-adv-x="1251" 
d="M248 246v919q0 125 -19 154q-17 28 -86 31l-98 6v61q76 -2 151.5 -3.5t96 -2t98.5 -0.5q68 1 146 2t140.5 2t98.5 1.5t98 0.5q145 0 265 -6q-18 -72 -25.5 -154t-7.5 -157h-72v133q0 48 -18 55q-114 43 -402 43q-106 0 -172 -16v-547q99 -6 238 -6q181 0 217 22
q13 12 16 54l11 106h61q-2 -80 -4 -140t-2 -97t2 -94.5t4 -133.5h-61l-11 121q-3 43 -16 51q-34 25 -217 25q-174 0 -238 -6v-574q66 -16 172 -16q366 0 414 26q23 13 42.5 77t29.5 153h71q-15 -76 -23.5 -163t-8.5 -173q-60 -2 -144.5 -3.5t-121 -2t-138.5 -0.5
q-104 2 -181 3t-127 2t-138 1q-51 0 -64.5 -0.5t-60 -2t-94.5 -3.5v61l73 6q72 7 86 31q19 29 19 154zM760 1540l-260 168q-36 22 -54 39t-18 43q0 28 15 45.5t42 17.5q36 0 95 -59l254 -254h-74z" />
    <glyph glyph-name="Eacute" unicode="&#xc9;" horiz-adv-x="1251" 
d="M248 246v919q0 125 -19 154q-17 28 -86 31l-98 6v61q76 -2 151.5 -3.5t96 -2t98.5 -0.5q68 1 146 2t140.5 2t98.5 1.5t98 0.5q145 0 265 -6q-18 -72 -25.5 -154t-7.5 -157h-72v133q0 48 -18 55q-114 43 -402 43q-106 0 -172 -16v-547q99 -6 238 -6q181 0 217 22
q13 12 16 54l11 106h61q-2 -80 -4 -140t-2 -97t2 -94.5t4 -133.5h-61l-11 121q-3 43 -16 51q-34 25 -217 25q-174 0 -238 -6v-574q66 -16 172 -16q366 0 414 26q23 13 42.5 77t29.5 153h71q-15 -76 -23.5 -163t-8.5 -173q-60 -2 -144.5 -3.5t-121 -2t-138.5 -0.5
q-104 2 -181 3t-127 2t-138 1q-51 0 -64.5 -0.5t-60 -2t-94.5 -3.5v61l73 6q72 7 86 31q19 29 19 154zM602 1540l258 252q59 59 94 59q28 0 43 -17t15 -46q0 -26 -19 -44.5t-53 -37.5l-264 -166h-74z" />
    <glyph glyph-name="Ecircumflex" unicode="&#xca;" horiz-adv-x="1251" 
d="M248 246v919q0 125 -19 154q-17 28 -86 31l-98 6v61q76 -2 151.5 -3.5t96 -2t98.5 -0.5q68 1 146 2t140.5 2t98.5 1.5t98 0.5q145 0 265 -6q-18 -72 -25.5 -154t-7.5 -157h-72v133q0 48 -18 55q-114 43 -402 43q-106 0 -172 -16v-547q99 -6 238 -6q181 0 217 22
q13 12 16 54l11 106h61q-2 -80 -4 -140t-2 -97t2 -94.5t4 -133.5h-61l-11 121q-3 43 -16 51q-34 25 -217 25q-174 0 -238 -6v-574q66 -16 172 -16q366 0 414 26q23 13 42.5 77t29.5 153h71q-15 -76 -23.5 -163t-8.5 -173q-60 -2 -144.5 -3.5t-121 -2t-138.5 -0.5
q-104 2 -181 3t-127 2t-138 1q-51 0 -64.5 -0.5t-60 -2t-94.5 -3.5v61l73 6q72 7 86 31q19 29 19 154zM545 1810h110l230 -288h-64l-221 178l-221 -178h-64z" />
    <glyph glyph-name="Edieresis" unicode="&#xcb;" horiz-adv-x="1251" 
d="M248 246v919q0 125 -19 154q-17 28 -86 31l-98 6v61q76 -2 151.5 -3.5t96 -2t98.5 -0.5q68 1 146 2t140.5 2t98.5 1.5t98 0.5q145 0 265 -6q-18 -72 -25.5 -154t-7.5 -157h-72v133q0 48 -18 55q-114 43 -402 43q-106 0 -172 -16v-547q99 -6 238 -6q181 0 217 22
q13 12 16 54l11 106h61q-2 -80 -4 -140t-2 -97t2 -94.5t4 -133.5h-61l-11 121q-3 43 -16 51q-34 25 -217 25q-174 0 -238 -6v-574q66 -16 172 -16q366 0 414 26q23 13 42.5 77t29.5 153h71q-15 -76 -23.5 -163t-8.5 -173q-60 -2 -144.5 -3.5t-121 -2t-138.5 -0.5
q-104 2 -181 3t-127 2t-138 1q-51 0 -64.5 -0.5t-60 -2t-94.5 -3.5v61l73 6q72 7 86 31q19 29 19 154zM432 1729q47 0 75 -28t28 -75q0 -46 -28 -74t-75 -28q-46 0 -74 28t-28 74q0 47 28 75t74 28zM801 1729q46 0 74 -28t28 -75q0 -46 -28 -74t-74 -28q-47 0 -75 28t-28 74
q0 47 28 75t75 28z" />
    <glyph glyph-name="Igrave" unicode="&#xcc;" horiz-adv-x="690" 
d="M442 1165v-919q0 -125 19 -154q17 -28 86 -31l98 -6v-61q-159 6 -297 6q-142 0 -303 -6v61l98 6q69 3 86 31q19 29 19 154v919q0 125 -19 154q-17 28 -86 31l-98 6v61q160 -6 303 -6q138 0 297 6v-61l-98 -6q-69 -3 -86 -31q-19 -29 -19 -154zM485 1550l-260 168
q-41 27 -56 41t-15 41q0 29 15 46.5t42 17.5q36 0 94 -60l254 -254h-74z" />
    <glyph glyph-name="Iacute" unicode="&#xcd;" horiz-adv-x="690" 
d="M442 1165v-919q0 -125 19 -154q17 -28 86 -31l98 -6v-61q-159 6 -297 6q-142 0 -303 -6v61l98 6q69 3 86 31q19 29 19 154v919q0 125 -19 154q-17 28 -86 31l-98 6v61q160 -6 303 -6q138 0 297 6v-61l-98 -6q-69 -3 -86 -31q-19 -29 -19 -154zM184 1540l258 252
q59 59 95 59q27 0 42 -17t15 -46q0 -26 -19 -44.5t-53 -37.5l-264 -166h-74z" />
    <glyph glyph-name="Icircumflex" unicode="&#xce;" horiz-adv-x="690" 
d="M442 1165v-919q0 -125 19 -154q17 -28 86 -31l98 -6v-61q-159 6 -297 6q-142 0 -303 -6v61l98 6q69 3 86 31q19 29 19 154v919q0 125 -19 154q-17 28 -86 31l-98 6v61q160 -6 303 -6q138 0 297 6v-61l-98 -6q-69 -3 -86 -31q-19 -29 -19 -154zM299 1827h111l229 -289h-64
l-221 178l-221 -178h-63z" />
    <glyph glyph-name="Idieresis" unicode="&#xcf;" horiz-adv-x="690" 
d="M442 1165v-919q0 -125 19 -154q17 -28 86 -31l98 -6v-61q-159 6 -297 6q-142 0 -303 -6v61l98 6q69 3 86 31q19 29 19 154v919q0 125 -19 154q-17 28 -86 31l-98 6v61q160 -6 303 -6q138 0 297 6v-61l-98 -6q-69 -3 -86 -31q-19 -29 -19 -154zM166 1741q46 0 74 -28
t28 -75q0 -46 -28 -74t-74 -28q-47 0 -75 28t-28 74q0 47 28 75t75 28zM535 1741q46 0 74 -28t28 -75q0 -46 -28 -74t-74 -28q-47 0 -75 28t-28 74q0 47 28 75t75 28z" />
    <glyph glyph-name="Eth" unicode="&#xd0;" horiz-adv-x="1585" 
d="M231 195v514h-202v73h202v383q0 124 -18 154q-9 15 -29 21.5t-57 9.5l-82 6v61q134 -2 235 -4t169 -2q89 0 119 0.5t103.5 2t133.5 3.5q160 0 296.5 -43t233 -123t150 -197.5t53.5 -260.5q0 -155 -56 -306t-157 -263.5t-227 -157.5q-71 -25 -113.5 -38t-119.5 -23.5
t-169 -10.5q-78 2 -127 3t-81 2t-93 1t-91.5 -1t-76.5 -2t-110 -3v47l63 33q51 26 51 121zM426 1319v-537h377v-73h-377v-609q65 -16 233 -16q91 0 171.5 10.5t146.5 40.5q177 84 259.5 235t82.5 365q0 184 -49.5 304t-137 183.5t-205.5 88t-268 24.5q-168 0 -233 -16z" />
    <glyph glyph-name="Ntilde" unicode="&#xd1;" horiz-adv-x="1702" 
d="M229 246v919q0 124 -18 154q-9 15 -29 21.5t-57 9.5l-90 6v61q86 -2 148.5 -4t97.5 -2q17 0 44.5 2t65.5 4l979 -1208h6v956q0 124 -18 154q-9 15 -29 21.5t-57 9.5l-90 6v61q82 -2 142 -4t95 -2q40 0 101.5 2t144.5 4v-61l-90 -6q-38 -3 -57.5 -9.5t-28.5 -21.5
q-19 -31 -19 -154v-1130q0 -18 2.5 -37.5t4.5 -38.5l-185 33l-964 1198h-4v-944q0 -124 18 -154q14 -24 86 -31l90 -6v-61q-60 2 -99.5 3t-66 2t-80.5 1q-49 0 -75.5 -1t-67 -2t-94.5 -3v61l90 6q72 7 86 31q18 30 18 154zM1122 1739h58q-8 -65 -52 -119q-57 -74 -145 -74
q-30 0 -55.5 6t-58 22t-54.5 25q-54 27 -88 27q-66 0 -96 -80h-53q14 82 66 132.5t132 50.5q34 0 59 -9.5t78 -33.5q76 -37 109 -37q43 4 63.5 24.5t36.5 65.5z" />
    <glyph glyph-name="Ograve" unicode="&#xd2;" horiz-adv-x="1610" 
d="M772 -41q-207 0 -373.5 91.5t-260 260.5t-93.5 394q0 208 94 379.5t269.5 269.5t406.5 98q220 0 390 -81t265 -238.5t95 -380.5q0 -217 -104.5 -399t-286.5 -288t-402 -106zM782 1366q-132 0 -229.5 -43.5t-161.5 -122.5t-95.5 -184.5t-31.5 -235.5q0 -137 33.5 -267.5
t105 -237.5t181.5 -168.5t254 -61.5q125 0 221.5 47t159.5 131.5t95 202.5t32 262q0 206 -62 358.5t-189.5 236t-312.5 83.5zM926 1554l-260 168q-43 29 -57.5 42t-14.5 40q0 29 15 46.5t42 17.5q36 0 94 -60l254 -254h-73z" />
    <glyph glyph-name="Oacute" unicode="&#xd3;" horiz-adv-x="1610" 
d="M772 -41q-207 0 -373.5 91.5t-260 260.5t-93.5 394q0 208 94 379.5t269.5 269.5t406.5 98q220 0 390 -81t265 -238.5t95 -380.5q0 -217 -104.5 -399t-286.5 -288t-402 -106zM782 1366q-132 0 -229.5 -43.5t-161.5 -122.5t-95.5 -184.5t-31.5 -235.5q0 -137 33.5 -267.5
t105 -237.5t181.5 -168.5t254 -61.5q125 0 221.5 47t159.5 131.5t95 202.5t32 262q0 206 -62 358.5t-189.5 236t-312.5 83.5zM686 1565l258 252q61 59 94 59q27 0 42.5 -17t15.5 -47q0 -27 -19 -44.5t-53 -36.5l-264 -166h-74z" />
    <glyph glyph-name="Ocircumflex" unicode="&#xd4;" horiz-adv-x="1610" 
d="M772 -41q-207 0 -373.5 91.5t-260 260.5t-93.5 394q0 208 94 379.5t269.5 269.5t406.5 98q220 0 390 -81t265 -238.5t95 -380.5q0 -217 -104.5 -399t-286.5 -288t-402 -106zM782 1366q-132 0 -229.5 -43.5t-161.5 -122.5t-95.5 -184.5t-31.5 -235.5q0 -137 33.5 -267.5
t105 -237.5t181.5 -168.5t254 -61.5q125 0 221.5 47t159.5 131.5t95 202.5t32 262q0 206 -62 358.5t-189.5 236t-312.5 83.5zM752 1796h110l230 -289h-64l-221 179l-221 -179h-64z" />
    <glyph glyph-name="Otilde" unicode="&#xd5;" horiz-adv-x="1610" 
d="M772 -41q-207 0 -373.5 91.5t-260 260.5t-93.5 394q0 208 94 379.5t269.5 269.5t406.5 98q220 0 390 -81t265 -238.5t95 -380.5q0 -217 -104.5 -399t-286.5 -288t-402 -106zM782 1366q-132 0 -229.5 -43.5t-161.5 -122.5t-95.5 -184.5t-31.5 -235.5q0 -137 33.5 -267.5
t105 -237.5t181.5 -168.5t254 -61.5q125 0 221.5 47t159.5 131.5t95 202.5t32 262q0 206 -62 358.5t-189.5 236t-312.5 83.5zM1049 1747h57q-8 -64 -51 -119q-59 -74 -146 -74q-31 0 -57 6.5t-57.5 22l-53.5 25.5q-57 26 -88 26q-66 0 -96 -80h-53q14 82 66 132.5t132 50.5
q34 0 60.5 -10t77.5 -33q74 -37 108 -37q43 4 64 25t37 65z" />
    <glyph glyph-name="Odieresis" unicode="&#xd6;" horiz-adv-x="1610" 
d="M772 -41q-207 0 -373.5 91.5t-260 260.5t-93.5 394q0 208 94 379.5t269.5 269.5t406.5 98q220 0 390 -81t265 -238.5t95 -380.5q0 -217 -104.5 -399t-286.5 -288t-402 -106zM782 1366q-132 0 -229.5 -43.5t-161.5 -122.5t-95.5 -184.5t-31.5 -235.5q0 -137 33.5 -267.5
t105 -237.5t181.5 -168.5t254 -61.5q125 0 221.5 47t159.5 131.5t95 202.5t32 262q0 206 -62 358.5t-189.5 236t-312.5 83.5zM629 1745q46 0 74 -28t28 -75q0 -46 -28 -74t-74 -28q-47 0 -75 28t-28 74q0 47 28 75t75 28zM997 1745q47 0 75 -28t28 -75q0 -46 -28 -74
t-75 -28q-46 0 -74 28t-28 74q0 47 28 75t74 28z" />
    <glyph glyph-name="multiply" unicode="&#xd7;" horiz-adv-x="1241" 
d="M539 522l-369 369l84 80l367 -367l366 367l84 -80l-371 -369l371 -368l-84 -80l-366 366l-367 -366l-84 80z" />
    <glyph glyph-name="Oslash" unicode="&#xd8;" horiz-adv-x="1706" 
d="M315 137l-186 -174l-68 60l193 180q-162 189 -162 510q0 155 53.5 290.5t155 237t244 156.5t317.5 55q109 0 204 -19t178 -57.5t147 -93.5l176 170l65 -61l-180 -170q160 -184 160 -469q0 -217 -104.5 -399t-286.5 -288t-402 -106q-142 0 -271 41.5t-233 136.5z
M1313 1087l-864 -819q46 -67 110.5 -117.5t147 -78t178.5 -27.5q125 0 221.5 47t159.5 131.5t95 202.5t32 262q0 247 -80 399zM401 342l861 825q-71 94 -189.5 146.5t-243.5 52.5q-132 0 -229.5 -43.5t-161.5 -122.5t-95.5 -184.5t-31.5 -235.5q0 -267 90 -438z" />
    <glyph glyph-name="Ugrave" unicode="&#xd9;" horiz-adv-x="1593" 
d="M227 438v727q0 124 -18 154q-17 28 -86 31l-98 6v61q51 -2 152 -4t151 -2q46 0 146 2t151 4v-61l-99 -6q-68 -3 -86 -31q-18 -30 -18 -154v-704q0 -140 48 -223.5t139.5 -117.5t234.5 -34q190 0 306 94t116 330v655q0 125 -19 154q-9 15 -29 21.5t-57 9.5l-90 6v61
q82 -2 142 -4t96 -2q41 0 101.5 2t143.5 4v-61l-90 -6q-38 -3 -56.5 -9.5t-29.5 -21.5q-18 -30 -18 -154v-592q0 -167 -32.5 -281.5t-101.5 -188.5t-179 -109t-267 -35q-133 0 -235 23t-173.5 78t-108 148.5t-36.5 229.5zM940 1561l-260 168q-36 22 -54 38t-18 43
q0 29 15.5 46.5t42.5 17.5q33 0 94 -59l254 -254h-74z" />
    <glyph glyph-name="Uacute" unicode="&#xda;" horiz-adv-x="1593" 
d="M227 438v727q0 124 -18 154q-17 28 -86 31l-98 6v61q51 -2 152 -4t151 -2q46 0 146 2t151 4v-61l-99 -6q-68 -3 -86 -31q-18 -30 -18 -154v-704q0 -140 48 -223.5t139.5 -117.5t234.5 -34q190 0 306 94t116 330v655q0 125 -19 154q-9 15 -29 21.5t-57 9.5l-90 6v61
q82 -2 142 -4t96 -2q41 0 101.5 2t143.5 4v-61l-90 -6q-38 -3 -56.5 -9.5t-29.5 -21.5q-18 -30 -18 -154v-592q0 -167 -32.5 -281.5t-101.5 -188.5t-179 -109t-267 -35q-133 0 -235 23t-173.5 78t-108 148.5t-36.5 229.5zM803 1540l258 252q57 59 94 59q28 0 42.5 -17
t14.5 -46q0 -26 -18 -43.5t-53 -38.5l-264 -166h-74z" />
    <glyph glyph-name="Ucircumflex" unicode="&#xdb;" horiz-adv-x="1593" 
d="M227 438v727q0 124 -18 154q-17 28 -86 31l-98 6v61q51 -2 152 -4t151 -2q46 0 146 2t151 4v-61l-99 -6q-68 -3 -86 -31q-18 -30 -18 -154v-704q0 -140 48 -223.5t139.5 -117.5t234.5 -34q190 0 306 94t116 330v655q0 125 -19 154q-9 15 -29 21.5t-57 9.5l-90 6v61
q82 -2 142 -4t96 -2q41 0 101.5 2t143.5 4v-61l-90 -6q-38 -3 -56.5 -9.5t-29.5 -21.5q-18 -30 -18 -154v-592q0 -167 -32.5 -281.5t-101.5 -188.5t-179 -109t-267 -35q-133 0 -235 23t-173.5 78t-108 148.5t-36.5 229.5zM770 1825h111l229 -289h-63l-222 178l-221 -178h-63
z" />
    <glyph glyph-name="Udieresis" unicode="&#xdc;" horiz-adv-x="1593" 
d="M227 438v727q0 124 -18 154q-17 28 -86 31l-98 6v61q51 -2 152 -4t151 -2q46 0 146 2t151 4v-61l-99 -6q-68 -3 -86 -31q-18 -30 -18 -154v-704q0 -140 48 -223.5t139.5 -117.5t234.5 -34q190 0 306 94t116 330v655q0 125 -19 154q-9 15 -29 21.5t-57 9.5l-90 6v61
q82 -2 142 -4t96 -2q41 0 101.5 2t143.5 4v-61l-90 -6q-38 -3 -56.5 -9.5t-29.5 -21.5q-18 -30 -18 -154v-592q0 -167 -32.5 -281.5t-101.5 -188.5t-179 -109t-267 -35q-133 0 -235 23t-173.5 78t-108 148.5t-36.5 229.5zM647 1739q47 0 75 -28t28 -75q0 -46 -28 -74
t-75 -28q-46 0 -74 28t-28 74q0 47 28 75t74 28zM1016 1739q46 0 74 -28t28 -75q0 -46 -28 -74t-74 -28q-47 0 -75 28t-28 74q0 47 28 75t75 28z" />
    <glyph glyph-name="Yacute" unicode="&#xdd;" horiz-adv-x="1366" 
d="M451 1233l292 -535l211 334l75.5 124.5t80.5 140.5l66 124h163v-30q-85 -98 -189 -237.5t-188.5 -270.5t-125.5 -219q-29 -63 -29 -154v-264q0 -124 18 -154q18 -28 86 -31l99 -6v-61q-160 6 -297 6q-144 0 -303 -6v61l98 6q69 3 86 31q18 30 18 154v291q0 51 -18 81
l-254 443q-51 86 -100.5 145t-91.5 88.5t-70 32.5l-60 6v60l236 49q31 0 52.5 -18t53.5 -58q55 -67 91 -133zM621 1544l258 252q57 59 94 59q28 0 42.5 -17t14.5 -46q0 -27 -17 -42.5t-55 -39.5l-264 -166h-73z" />
    <glyph glyph-name="Thorn" unicode="&#xde;" horiz-adv-x="1237" 
d="M463 1006v-760q0 -124 18 -154q18 -28 86 -31l99 -6v-61q-160 6 -297 6q-144 0 -303 -6v61l98 6q69 3 86 31q18 30 18 154v919q0 124 -18 154q-17 28 -86 31l-98 6v61q51 -2 152 -4t151 -2q46 0 146 2t151 4v-61l-99 -6q-68 -3 -86 -31q-18 -30 -18 -154v-55
q22 -4 104 -4q119 0 185 2q108 0 204.5 -32t158 -102.5t61.5 -178.5q0 -92 -36.5 -173t-99.5 -139t-141.5 -90.5t-159.5 -32.5q-86 0 -133 13l-22 76q63 -19 131 -19q66 0 124.5 38.5t95 105t36.5 151.5q0 104 -40 170t-114.5 96.5t-181.5 30.5t-172 -16z" />
    <glyph glyph-name="germandbls" unicode="&#xdf;" horiz-adv-x="1139" 
d="M369 954v-735q0 -94 22.5 -129t71.5 -35h57l43 174h55v-94q43 -38 75.5 -51.5t80.5 -13.5q61 0 108.5 42.5t47.5 104.5q0 91 -51 143t-140 95q-97 51 -143.5 92.5t-46.5 118.5q0 78 39 118l80 88q66 72 211 72q22 117 22 164q0 86 -29 152.5t-89 105.5t-148 39
t-145.5 -36.5t-89 -135.5t-31.5 -279zM197 209v579h-142v29l142 72v135q0 36 8.5 72.5t23 67t31.5 56l31 46.5q51 76 147 143q34 24 80 43.5t96.5 32t79.5 12.5q101 0 174 -37.5t110.5 -107.5t37.5 -168q0 -45 -12 -114.5t-30.5 -133t-47.5 -135.5q-41 25 -73.5 36t-80.5 11
q-46 0 -73 -26t-27 -60q0 -33 23 -62.5t54.5 -50t81 -46t66.5 -36.5q49 -28 85 -60t58.5 -76.5t22.5 -100.5q0 -49 -19 -111t-57 -92l-119 -90q-75 -55 -153 -55q-112 0 -199 41l-2 -29q-58 2 -126 4t-107 2q-53 0 -79 -1t-64.5 -2t-90.5 -3v61l74 6q53 3 65 29
q11 28 11 119z" />
    <glyph glyph-name="agrave" unicode="&#xe0;" 
d="M461 553l203 37q0 126 -63 194t-195 68q-67 0 -95.5 -8.5t-48.5 -34.5q-6 -8 -35 -68l-26 -63l-54 14v133l109 66q116 70 238 70q129 0 200.5 -40t102 -127.5t30.5 -240.5v-375q0 -56 7 -88q6 -28 51 -31l80 -4v-61q-34 2 -60 3t-43 2t-51 1q-35 0 -52.5 -1t-43.5 -2
t-62 -3l11 174l-254 -176q-24 -17 -95 -17q-109 0 -179 64.5t-70 183.5q0 109 55.5 176t139 99.5t200.5 54.5zM664 254v270q-181 -25 -299 -71q-52 -20 -87.5 -78t-35.5 -115q0 -52 22.5 -89.5t58.5 -58t78 -20.5q43 0 87 23t110 71q35 26 66 68zM645 1063l-260 168
q-36 22 -54 39t-18 43q0 28 15 45.5t43 17.5q33 0 94 -59l254 -254h-74z" />
    <glyph glyph-name="aacute" unicode="&#xe1;" 
d="M461 553l203 37q0 126 -63 194t-195 68q-67 0 -95.5 -8.5t-48.5 -34.5q-6 -8 -35 -68l-26 -63l-54 14v133l109 66q116 70 238 70q129 0 200.5 -40t102 -127.5t30.5 -240.5v-375q0 -56 7 -88q6 -28 51 -31l80 -4v-61q-34 2 -60 3t-43 2t-51 1q-35 0 -52.5 -1t-43.5 -2
t-62 -3l11 174l-254 -176q-24 -17 -95 -17q-109 0 -179 64.5t-70 183.5q0 109 55.5 176t139 99.5t200.5 54.5zM664 254v270q-181 -25 -299 -71q-52 -20 -87.5 -78t-35.5 -115q0 -52 22.5 -89.5t58.5 -58t78 -20.5q43 0 87 23t110 71q35 26 66 68zM344 1063l258 252
q61 59 94 59q28 0 43 -17t15 -46q0 -26 -19 -44.5t-53 -37.5l-264 -166h-74z" />
    <glyph glyph-name="acircumflex" unicode="&#xe2;" 
d="M461 553l203 37q0 126 -63 194t-195 68q-67 0 -95.5 -8.5t-48.5 -34.5q-6 -8 -35 -68l-26 -63l-54 14v133l109 66q116 70 238 70q129 0 200.5 -40t102 -127.5t30.5 -240.5v-375q0 -56 7 -88q6 -28 51 -31l80 -4v-61q-34 2 -60 3t-43 2t-51 1q-35 0 -52.5 -1t-43.5 -2
t-62 -3l11 174l-254 -176q-24 -17 -95 -17q-109 0 -179 64.5t-70 183.5q0 109 55.5 176t139 99.5t200.5 54.5zM664 254v270q-181 -25 -299 -71q-52 -20 -87.5 -78t-35.5 -115q0 -52 22.5 -89.5t58.5 -58t78 -20.5q43 0 87 23t110 71q35 26 66 68zM428 1323h111l229 -289h-63
l-222 178l-221 -178h-63z" />
    <glyph glyph-name="atilde" unicode="&#xe3;" 
d="M461 553l203 37q0 126 -63 194t-195 68q-67 0 -95.5 -8.5t-48.5 -34.5q-6 -8 -35 -68l-26 -63l-54 14v133l109 66q116 70 238 70q129 0 200.5 -40t102 -127.5t30.5 -240.5v-375q0 -56 7 -88q6 -28 51 -31l80 -4v-61q-34 2 -60 3t-43 2t-51 1q-35 0 -52.5 -1t-43.5 -2
t-62 -3l11 174l-254 -176q-24 -17 -95 -17q-109 0 -179 64.5t-70 183.5q0 109 55.5 176t139 99.5t200.5 54.5zM664 254v270q-181 -25 -299 -71q-52 -20 -87.5 -78t-35.5 -115q0 -52 22.5 -89.5t58.5 -58t78 -20.5q43 0 87 23t110 71q35 26 66 68zM758 1255h57
q-9 -65 -51 -118q-59 -74 -146 -74q-31 0 -55.5 6t-50.5 18l-61 29q-62 27 -89 27q-64 0 -96 -80h-53q14 83 66 132.5t133 49.5q32 0 68 -13.5t69 -29.5q82 -37 108 -37q43 4 64 25t37 65z" />
    <glyph glyph-name="adieresis" unicode="&#xe4;" 
d="M461 553l203 37q0 126 -63 194t-195 68q-67 0 -95.5 -8.5t-48.5 -34.5q-6 -8 -35 -68l-26 -63l-54 14v133l109 66q116 70 238 70q129 0 200.5 -40t102 -127.5t30.5 -240.5v-375q0 -56 7 -88q6 -28 51 -31l80 -4v-61q-34 2 -60 3t-43 2t-51 1q-35 0 -52.5 -1t-43.5 -2
t-62 -3l11 174l-254 -176q-24 -17 -95 -17q-109 0 -179 64.5t-70 183.5q0 109 55.5 176t139 99.5t200.5 54.5zM664 254v270q-181 -25 -299 -71q-52 -20 -87.5 -78t-35.5 -115q0 -52 22.5 -89.5t58.5 -58t78 -20.5q43 0 87 23t110 71q35 26 66 68zM305 1251q47 0 75 -28
t28 -74t-28 -74t-75 -28q-46 0 -74 28t-28 74t28 74t74 28zM674 1251q46 0 74 -28t28 -74t-28 -74t-74 -28q-47 0 -75 28t-28 74t28 74t75 28z" />
    <glyph glyph-name="aring" unicode="&#xe5;" 
d="M461 553l203 37q0 126 -63 194t-195 68q-67 0 -95.5 -8.5t-48.5 -34.5q-6 -8 -35 -68l-26 -63l-54 14v133l109 66q116 70 238 70q129 0 200.5 -40t102 -127.5t30.5 -240.5v-375q0 -56 7 -88q6 -28 51 -31l80 -4v-61q-34 2 -60 3t-43 2t-51 1q-35 0 -52.5 -1t-43.5 -2
t-62 -3l11 174l-254 -176q-24 -17 -95 -17q-109 0 -179 64.5t-70 183.5q0 109 55.5 176t139 99.5t200.5 54.5zM664 254v270q-181 -25 -299 -71q-52 -20 -87.5 -78t-35.5 -115q0 -52 22.5 -89.5t58.5 -58t78 -20.5q43 0 87 23t110 71q35 26 66 68zM520 1425q77 0 131 -53
t54 -129q0 -75 -54.5 -128.5t-130.5 -53.5q-75 0 -129.5 53.5t-54.5 128.5q0 76 54 129t130 53zM520 1360q-51 0 -81.5 -31.5t-30.5 -85.5q0 -53 31 -85t81 -32q51 0 82 32t31 85q0 54 -30.5 85.5t-82.5 31.5z" />
    <glyph glyph-name="ae" unicode="&#xe6;" horiz-adv-x="1552" 
d="M141 817l201 109q35 18 63.5 26.5t86.5 8.5q93 0 168.5 -36t125.5 -110q88 73 161.5 109.5t162.5 36.5q171 0 280 -102t109 -273q0 -58 -4 -86q-170 -29 -371 -29h-299q0 -123 41 -213t124 -140t206 -50q66 0 123 24t135 72l29 -21l-41 -69q-10 -15 -63.5 -42.5t-129 -50
t-139.5 -22.5q-134 0 -239.5 55.5t-165.5 167.5l-252 -196q-32 -27 -121 -27q-71 0 -132.5 29t-100 85.5t-38.5 133.5q0 130 53 184t171 88q119 36 264 51l115 13q-4 309 -244 309q-41 0 -103 -18.5t-77 -45.5q-27 -44 -45 -110l-54 12v127zM664 240v237
q-143 -16 -221.5 -32t-153.5 -58q-23 -22 -37 -62t-14 -73q0 -160 182 -160q126 0 244 148zM1120 893q-70 0 -124 -22t-90.5 -64t-56.5 -107t-20 -147q107 -12 263 -12q123 0 237 6q0 99 -28.5 177.5t-78 123.5t-102.5 45z" />
    <glyph glyph-name="ccedilla" unicode="&#xe7;" horiz-adv-x="909" 
d="M817 637h-57l-15 125q-10 22 -46.5 43t-83 35t-83.5 14q-57 0 -108.5 -15t-96 -54t-69.5 -104t-25 -161q0 -114 30 -200.5t85.5 -144t122.5 -83.5t145 -26q50 0 108 17t101 42l21 -31l-43 -65q-14 -20 -98 -45t-187 -25q-122 0 -230 56t-171.5 163t-63.5 254
q0 133 51.5 232t124.5 151q76 57 174 98q110 48 197 48q135 0 246 -72q-14 -55 -21.5 -120t-7.5 -132zM289 -203l73 185h62l-45 -119q16 4 53 4q65 0 108.5 -32.5t43.5 -94.5q0 -81 -68 -117.5t-156 -36.5q-18 0 -41 2t-35 4.5t-37 9.5t-42 11l24 55q74 -18 111 -18
q51 0 77.5 17.5t26.5 66.5q0 28 -21 45.5t-50 17.5q-30 0 -72 -10z" />
    <glyph glyph-name="egrave" unicode="&#xe8;" horiz-adv-x="981" 
d="M518 893q-119 0 -194.5 -87t-75.5 -253q106 -12 260 -12q120 0 227 6q0 94 -24.5 174.5t-72.5 126t-120 45.5zM528 961q172 0 281 -102t109 -273q0 -58 -5 -86q-168 -29 -370 -29h-299q0 -89 22.5 -163t69.5 -128.5t116.5 -83t161.5 -28.5q47 0 88.5 12.5t81 34.5
l84.5 49l27 -21l-41 -69q-9 -15 -63 -42.5t-128 -50t-137 -22.5q-150 0 -257 60t-161.5 166t-54.5 247q0 96 17 171t51 130.5t80 89.5q73 58 127 82q120 56 200 56zM637 1063l-260 168q-36 22 -54 39t-18 43q0 28 15 45.5t42 17.5q34 0 95 -59l254 -254h-74z" />
    <glyph glyph-name="eacute" unicode="&#xe9;" horiz-adv-x="981" 
d="M518 893q-119 0 -194.5 -87t-75.5 -253q106 -12 260 -12q120 0 227 6q0 94 -24.5 174.5t-72.5 126t-120 45.5zM528 961q172 0 281 -102t109 -273q0 -58 -5 -86q-168 -29 -370 -29h-299q0 -89 22.5 -163t69.5 -128.5t116.5 -83t161.5 -28.5q47 0 88.5 12.5t81 34.5
l84.5 49l27 -21l-41 -69q-9 -15 -63 -42.5t-128 -50t-137 -22.5q-150 0 -257 60t-161.5 166t-54.5 247q0 96 17 171t51 130.5t80 89.5q73 58 127 82q120 56 200 56zM377 1063l258 252q61 59 94 59q28 0 42.5 -17t14.5 -46q0 -26 -18 -43.5t-53 -38.5l-264 -166h-74z" />
    <glyph glyph-name="ecircumflex" unicode="&#xea;" horiz-adv-x="981" 
d="M518 893q-119 0 -194.5 -87t-75.5 -253q106 -12 260 -12q120 0 227 6q0 94 -24.5 174.5t-72.5 126t-120 45.5zM528 961q172 0 281 -102t109 -273q0 -58 -5 -86q-168 -29 -370 -29h-299q0 -89 22.5 -163t69.5 -128.5t116.5 -83t161.5 -28.5q47 0 88.5 12.5t81 34.5
l84.5 49l27 -21l-41 -69q-9 -15 -63 -42.5t-128 -50t-137 -22.5q-150 0 -257 60t-161.5 166t-54.5 247q0 96 17 171t51 130.5t80 89.5q73 58 127 82q120 56 200 56zM426 1329h111l229 -289h-64l-221 179l-221 -179h-63z" />
    <glyph glyph-name="edieresis" unicode="&#xeb;" horiz-adv-x="981" 
d="M518 893q-119 0 -194.5 -87t-75.5 -253q106 -12 260 -12q120 0 227 6q0 94 -24.5 174.5t-72.5 126t-120 45.5zM528 961q172 0 281 -102t109 -273q0 -58 -5 -86q-168 -29 -370 -29h-299q0 -89 22.5 -163t69.5 -128.5t116.5 -83t161.5 -28.5q47 0 88.5 12.5t81 34.5
l84.5 49l27 -21l-41 -69q-9 -15 -63 -42.5t-128 -50t-137 -22.5q-150 0 -257 60t-161.5 166t-54.5 247q0 96 17 171t51 130.5t80 89.5q73 58 127 82q120 56 200 56zM313 1247q47 0 75 -28t28 -74q0 -47 -28 -75t-75 -28q-46 0 -74 28t-28 75q0 46 28 74t74 28zM682 1247
q46 0 74 -28t28 -74q0 -47 -28 -75t-74 -28t-74 28t-28 75q0 46 28 74t74 28z" />
    <glyph glyph-name="igrave" unicode="&#xec;" horiz-adv-x="588" 
d="M385 952v-743q0 -90 10 -119q12 -26 66 -29l94 -6v-61q-50 2 -101 3.5t-71 2t-84 0.5t-84 -0.5t-71 -2t-101 -3.5v61l94 6q54 3 66 29q10 29 10 119v461q0 103 -14 127q-18 22 -76 22h-76v58q82 8 168.5 32.5t151.5 51.5zM373 1090l-260 167q-43 29 -57.5 42t-14.5 40
q0 29 15 46.5t42 17.5q35 0 95 -60l253 -253h-73z" />
    <glyph glyph-name="iacute" unicode="&#xed;" horiz-adv-x="588" 
d="M385 952v-743q0 -90 10 -119q12 -26 66 -29l94 -6v-61q-50 2 -101 3.5t-71 2t-84 0.5t-84 -0.5t-71 -2t-101 -3.5v61l94 6q54 3 66 29q10 29 10 119v461q0 103 -14 127q-18 22 -76 22h-76v58q82 8 168.5 32.5t151.5 51.5zM113 1120l258 252q58 60 94 60q27 0 42 -17
t15 -47q0 -27 -15 -41t-56 -41l-265 -166h-73z" />
    <glyph glyph-name="icircumflex" unicode="&#xee;" horiz-adv-x="588" 
d="M385 952v-743q0 -90 10 -119q12 -26 66 -29l94 -6v-61q-50 2 -101 3.5t-71 2t-84 0.5t-84 -0.5t-71 -2t-101 -3.5v61l94 6q54 3 66 29q10 29 10 119v461q0 103 -14 127q-18 22 -76 22h-76v58q82 8 168.5 32.5t151.5 51.5zM221 1401h111l229 -289h-63l-222 178l-221 -178
h-63z" />
    <glyph glyph-name="idieresis" unicode="&#xef;" horiz-adv-x="588" 
d="M385 952v-743q0 -90 10 -119q12 -26 66 -29l94 -6v-61q-50 2 -101 3.5t-71 2t-84 0.5t-84 -0.5t-71 -2t-101 -3.5v61l94 6q54 3 66 29q10 29 10 119v461q0 103 -14 127q-18 22 -76 22h-76v58q82 8 168.5 32.5t151.5 51.5zM98 1305q47 0 75 -28t28 -75q0 -46 -28 -74
t-75 -28q-46 0 -74 28t-28 74q0 47 28 75t74 28zM467 1305q46 0 74 -28t28 -75q0 -46 -28 -74t-74 -28t-74 28t-28 74q0 47 28 75t74 28z" />
    <glyph glyph-name="eth" unicode="&#xf0;" horiz-adv-x="1118" 
d="M563 27q85 0 151 58.5t102 171t36 259.5q0 132 -48.5 217t-119 122.5t-143.5 37.5q-151 0 -218 -105t-67 -266q0 -115 30.5 -229.5t100.5 -190t176 -75.5zM254 1126l278 136q-44 43 -114.5 87.5t-134.5 75.5l69 66q78 -46 154.5 -96.5t118.5 -87.5l293 143l36 -61
l-268 -132q156 -149 251 -325.5t95 -390.5q0 -159 -57 -289.5t-172 -209.5t-279 -83q-135 0 -239 61.5t-161.5 171t-57.5 246.5q0 154 61 272t175 184.5t265 66.5q52 0 113.5 -15.5t93.5 -36.5l4 4q-83 187 -200 291l-287 -139z" />
    <glyph glyph-name="ntilde" unicode="&#xf1;" horiz-adv-x="1192" 
d="M352 643v-434q0 -90 10 -119q13 -26 66 -29l92 -6v-61q-48 2 -99.5 3.5t-70.5 2t-84 0.5q-64 0 -84 -0.5t-71 -2t-99 -3.5v61l92 6q54 3 66 29q10 29 10 119v461q0 103 -14 127q-16 22 -76 22h-76v58q82 8 168.5 32.5t151.5 51.5l18 -9v-174h4l152 131q34 30 69.5 41
t96.5 11q338 0 338 -357v-395q0 -90 10 -119q11 -26 65 -29l84 -6v-61q-34 2 -70.5 3.5t-47.5 2t-49 0.5q-39 0 -50.5 -0.5l-46.5 -2t-67 -3.5v581q0 81 -29.5 141t-82.5 90t-124 30q-60 0 -119 -30.5t-96 -75.5t-37 -87zM866 1264h58q-8 -65 -52 -119q-57 -74 -145 -74
q-30 0 -55.5 6t-58 22t-54.5 25q-54 27 -88 27q-66 0 -96 -80h-53q14 83 66 132.5t132 49.5q32 0 68 -13.5t69 -29.5q80 -36 109 -36q43 4 63.5 24.5t36.5 65.5z" />
    <glyph glyph-name="ograve" unicode="&#xf2;" horiz-adv-x="1118" 
d="M516 -41q-97 0 -180.5 36t-145 102t-93 153.5t-31.5 187.5q0 155 62 273t180.5 184t279.5 66q95 0 180.5 -35t149.5 -99t99.5 -150.5t35.5 -182.5q0 -153 -69 -276t-191 -191t-277 -68zM541 893q-152 0 -218.5 -103t-66.5 -264q0 -87 17.5 -173.5t57 -160.5t106.5 -119.5
t159 -45.5q131 0 198.5 110t67.5 266q0 132 -39.5 244.5t-113.5 179t-168 66.5zM690 1053l-260 168q-36 22 -54 39t-18 43q0 28 15.5 45.5t42.5 17.5q33 0 94 -59l254 -254h-74z" />
    <glyph glyph-name="oacute" unicode="&#xf3;" horiz-adv-x="1118" 
d="M516 -41q-97 0 -180.5 36t-145 102t-93 153.5t-31.5 187.5q0 155 62 273t180.5 184t279.5 66q95 0 180.5 -35t149.5 -99t99.5 -150.5t35.5 -182.5q0 -153 -69 -276t-191 -191t-277 -68zM541 893q-152 0 -218.5 -103t-66.5 -264q0 -87 17.5 -173.5t57 -160.5t106.5 -119.5
t159 -45.5q131 0 198.5 110t67.5 266q0 132 -39.5 244.5t-113.5 179t-168 66.5zM399 1073l258 252q59 59 95 59q27 0 42 -17t15 -46q0 -26 -19 -44.5t-53 -37.5l-264 -166h-74z" />
    <glyph glyph-name="ocircumflex" unicode="&#xf4;" horiz-adv-x="1118" 
d="M516 -41q-97 0 -180.5 36t-145 102t-93 153.5t-31.5 187.5q0 155 62 273t180.5 184t279.5 66q95 0 180.5 -35t149.5 -99t99.5 -150.5t35.5 -182.5q0 -153 -69 -276t-191 -191t-277 -68zM541 893q-152 0 -218.5 -103t-66.5 -264q0 -87 17.5 -173.5t57 -160.5t106.5 -119.5
t159 -45.5q131 0 198.5 110t67.5 266q0 132 -39.5 244.5t-113.5 179t-168 66.5zM510 1323h111l229 -289h-64l-221 178l-221 -178h-63z" />
    <glyph glyph-name="otilde" unicode="&#xf5;" horiz-adv-x="1118" 
d="M516 -41q-97 0 -180.5 36t-145 102t-93 153.5t-31.5 187.5q0 155 62 273t180.5 184t279.5 66q95 0 180.5 -35t149.5 -99t99.5 -150.5t35.5 -182.5q0 -153 -69 -276t-191 -191t-277 -68zM541 893q-152 0 -218.5 -103t-66.5 -264q0 -87 17.5 -173.5t57 -160.5t106.5 -119.5
t159 -45.5q131 0 198.5 110t67.5 266q0 132 -39.5 244.5t-113.5 179t-168 66.5zM803 1255h57q-9 -65 -51 -118q-59 -74 -145 -74q-30 0 -55.5 6t-51.5 18l-61 29q-62 27 -88 27q-65 0 -97 -80h-53q14 83 66 132.5t133 49.5q32 0 68 -13.5t69 -29.5q82 -37 108 -37
q43 4 64 25t37 65z" />
    <glyph glyph-name="odieresis" unicode="&#xf6;" horiz-adv-x="1118" 
d="M516 -41q-97 0 -180.5 36t-145 102t-93 153.5t-31.5 187.5q0 155 62 273t180.5 184t279.5 66q95 0 180.5 -35t149.5 -99t99.5 -150.5t35.5 -182.5q0 -153 -69 -276t-191 -191t-277 -68zM541 893q-152 0 -218.5 -103t-66.5 -264q0 -87 17.5 -173.5t57 -160.5t106.5 -119.5
t159 -45.5q131 0 198.5 110t67.5 266q0 132 -39.5 244.5t-113.5 179t-168 66.5zM387 1241q48 0 75 -28t27 -74q0 -47 -27 -75t-75 -28q-46 0 -74 28t-28 75q0 46 28 74t74 28zM756 1241q46 0 74 -28t28 -74q0 -47 -28 -75t-74 -28q-47 0 -75 28t-28 75q0 46 28 74t75 28z
" />
    <glyph glyph-name="divide" unicode="&#xf7;" horiz-adv-x="1241" 
d="M104 477v115h1033v-115h-1033zM621 811q-47 0 -82 36t-35 83q0 45 35 82t82 37q48 0 84 -36t36 -83q0 -50 -34.5 -84.5t-85.5 -34.5zM621 20q-46 0 -81.5 36.5t-35.5 82.5t35.5 82.5t81.5 36.5q48 0 84 -35t36 -84q0 -48 -35.5 -83.5t-84.5 -35.5z" />
    <glyph glyph-name="oslash" unicode="&#xf8;" horiz-adv-x="1139" 
d="M33 0l137 131q-94 129 -94 307q0 152 64.5 270.5t182.5 185.5t275 67q88 0 165.5 -29.5t139.5 -83.5l127 123l55 -51l-129 -125q107 -132 107 -301q0 -153 -69 -276t-191.5 -191t-276.5 -68q-184 0 -309 117l-127 -123zM827 670l-487 -475q92 -168 266 -168
q63 0 113.5 30.5t84 82t51 119t17.5 144.5q0 140 -45 267zM307 266l488 475q-26 45 -64 79t-84 53.5t-96 19.5q-152 0 -218.5 -103t-66.5 -264q0 -137 41 -260z" />
    <glyph glyph-name="ugrave" unicode="&#xf9;" horiz-adv-x="1235" 
d="M1030 952v-743q0 -90 10 -119q13 -26 66 -29l84 -6v-61q-34 2 -71.5 3.5t-48 2t-48.5 0.5q-39 0 -50 -0.5t-48.5 -2t-73.5 -3.5q8 114 8 188l-137 -127q-89 -80 -229 -80q-100 0 -161.5 29t-88.5 79.5t-33 104.5t-6 138v344q0 104 -15.5 126.5t-74.5 22.5h-76v58
q82 8 170 32.5t149 51.5l19 -9v-604q0 -87 17.5 -140t65.5 -80.5t140 -27.5q64 0 124 37.5t98 93.5t38 105v334q0 103 -14 127q-18 22 -76 22h-76v58q82 8 168.5 32.5t151.5 51.5zM702 1094l-260 168q-35 21 -53 37.5t-18 43.5q0 29 15 46.5t42 17.5q35 0 94 -59l254 -254
h-74z" />
    <glyph glyph-name="uacute" unicode="&#xfa;" horiz-adv-x="1235" 
d="M1030 952v-743q0 -90 10 -119q13 -26 66 -29l84 -6v-61q-34 2 -71.5 3.5t-48 2t-48.5 0.5q-39 0 -50 -0.5t-48.5 -2t-73.5 -3.5q8 114 8 188l-137 -127q-89 -80 -229 -80q-100 0 -161.5 29t-88.5 79.5t-33 104.5t-6 138v344q0 104 -15.5 126.5t-74.5 22.5h-76v58
q82 8 170 32.5t149 51.5l19 -9v-604q0 -87 17.5 -140t65.5 -80.5t140 -27.5q64 0 124 37.5t98 93.5t38 105v334q0 103 -14 127q-18 22 -76 22h-76v58q82 8 168.5 32.5t151.5 51.5zM535 1083l258 252q58 60 94 60q27 0 42 -17t15 -47q0 -27 -17 -42.5t-55 -39.5l-264 -166
h-73z" />
    <glyph glyph-name="ucircumflex" unicode="&#xfb;" horiz-adv-x="1235" 
d="M1030 952v-743q0 -90 10 -119q13 -26 66 -29l84 -6v-61q-34 2 -71.5 3.5t-48 2t-48.5 0.5q-39 0 -50 -0.5t-48.5 -2t-73.5 -3.5q8 114 8 188l-137 -127q-89 -80 -229 -80q-100 0 -161.5 29t-88.5 79.5t-33 104.5t-6 138v344q0 104 -15.5 126.5t-74.5 22.5h-76v58
q82 8 170 32.5t149 51.5l19 -9v-604q0 -87 17.5 -140t65.5 -80.5t140 -27.5q64 0 124 37.5t98 93.5t38 105v334q0 103 -14 127q-18 22 -76 22h-76v58q82 8 168.5 32.5t151.5 51.5zM580 1370h110l230 -289h-64l-221 179l-221 -179h-64z" />
    <glyph glyph-name="udieresis" unicode="&#xfc;" horiz-adv-x="1235" 
d="M1030 952v-743q0 -90 10 -119q13 -26 66 -29l84 -6v-61q-34 2 -71.5 3.5t-48 2t-48.5 0.5q-39 0 -50 -0.5t-48.5 -2t-73.5 -3.5q8 114 8 188l-137 -127q-89 -80 -229 -80q-100 0 -161.5 29t-88.5 79.5t-33 104.5t-6 138v344q0 104 -15.5 126.5t-74.5 22.5h-76v58
q82 8 170 32.5t149 51.5l19 -9v-604q0 -87 17.5 -140t65.5 -80.5t140 -27.5q64 0 124 37.5t98 93.5t38 105v334q0 103 -14 127q-18 22 -76 22h-76v58q82 8 168.5 32.5t151.5 51.5zM446 1274q47 0 75 -28t28 -75q0 -46 -28 -74t-75 -28q-46 0 -74 28t-28 74q0 47 28 75t74 28
zM815 1274q47 0 75 -28t28 -75q0 -46 -28 -74t-75 -28q-46 0 -74 28t-28 74q0 47 28 75t74 28z" />
    <glyph glyph-name="yacute" unicode="&#xfd;" horiz-adv-x="1139" 
d="M608 176l244 598q12 31 12 49q0 48 -86 56l-53 4v57q64 -2 113.5 -4t81.5 -2q33 0 80.5 2t113.5 4v-57l-57 -4q-37 -3 -75.5 -59t-96.5 -189l-416 -959q-37 -83 -75.5 -137t-95.5 -84.5t-140 -30.5q-52 0 -103 31l49 154h27q20 -18 53 -32.5t52 -14.5q55 4 96.5 46.5
t68.5 95t58 126.5l47 125q-35 97 -115 291l-223 536q-22 54 -47 76t-60 25l-36 4v57q78 -2 138 -4t99 -2q41 0 100.5 2t137.5 4v-57l-78 -4q-68 -3 -68 -54q0 -36 19 -80l131 -344q45 -123 104 -225zM522 1063l258 252q61 59 94 59q28 0 43 -17t15 -46q0 -26 -19 -44.5
t-53 -37.5l-264 -166h-74z" />
    <glyph glyph-name="thorn" unicode="&#xfe;" horiz-adv-x="1231" 
d="M338 616v-415q56 -64 127.5 -92.5t163.5 -28.5q132 0 219.5 104.5t87.5 296.5q0 153 -82 249.5t-238 96.5q-101 0 -167.5 -47t-100.5 -108q-10 -19 -10 -56zM166 -360v1630q0 43 -10 63.5t-41 20.5h-115v57q205 30 319 76l19 -17v-710h4l109 110q41 42 110.5 66.5
t136.5 24.5q109 0 205 -53t153.5 -148.5t57.5 -216.5q0 -102 -47.5 -214t-114.5 -161l-204 -148q-44 -31 -86.5 -38t-100.5 -7q-106 0 -223 52v-387q0 -91 10 -119q11 -26 66 -29l94 -6v-61q-50 2 -101 3.5t-71 2t-84 0.5t-84 -0.5t-71 -2t-101 -3.5v61l94 6q54 3 66 29
q10 27 10 119z" />
    <glyph glyph-name="ydieresis" unicode="&#xff;" horiz-adv-x="1139" 
d="M608 176l244 598q12 31 12 49q0 48 -86 56l-53 4v57q64 -2 113.5 -4t81.5 -2q33 0 80.5 2t113.5 4v-57l-57 -4q-37 -3 -75.5 -59t-96.5 -189l-416 -959q-37 -83 -75.5 -137t-95.5 -84.5t-140 -30.5q-52 0 -103 31l49 154h27q20 -18 53 -32.5t52 -14.5q55 4 96.5 46.5
t68.5 95t58 126.5l47 125q-35 97 -115 291l-223 536q-22 54 -47 76t-60 25l-36 4v57q78 -2 138 -4t99 -2q41 0 100.5 2t137.5 4v-57l-78 -4q-68 -3 -68 -54q0 -36 19 -80l131 -344q45 -123 104 -225zM412 1245q46 0 74 -28t28 -74q0 -47 -28 -75t-74 -28q-47 0 -75 28
t-28 75q0 46 28 74t75 28zM780 1245q47 0 75 -28t28 -74q0 -47 -28 -75t-75 -28q-46 0 -74 28t-28 75q0 46 28 74t74 28z" />
    <glyph glyph-name="lslash" horiz-adv-x="596" 
d="M213 799v471q0 43 -10 63.5t-41 20.5h-115v57q204 30 320 76l18 -17v-567l211 129l31 -65l-242 -148v-610q0 -90 10 -119q12 -26 66 -29l94 -6v-61q-50 2 -101 3.5t-71 2t-84 0.5t-84 -0.5t-71 -2t-101 -3.5v61l94 6q54 3 66 29q10 29 10 119v504l-209 -127l-33 65z" />
    <glyph glyph-name="dotaccent" horiz-adv-x="512" 
d="M256 1305q46 0 74 -28t28 -75q0 -46 -28 -74t-74 -28t-74 28t-28 74q0 47 28 75t74 28z" />
    <glyph glyph-name="hungarumlaut" horiz-adv-x="778" 
d="M6 1036l262 303q25 28 56 48t53 20q31 0 49 -20t18 -52q0 -27 -17 -44.5t-62 -53.5l-277 -201h-82zM334 1036l262 303q25 28 56 48t53 20q31 0 49 -20t18 -52q0 -27 -19.5 -46.5t-60.5 -51.5l-276 -201h-82z" />
    <glyph glyph-name="fi" horiz-adv-x="1239" 
d="M698 1468v-157l-24 -13q-61 58 -135 58q-64 0 -95.5 -24.5t-43 -86.5t-11.5 -182v-174l248 8l-14 -109h-234v-579q0 -90 10 -119q13 -26 66 -29l106 -6v-61q-58 2 -112.5 3.5l-73 2t-82.5 0.5t-84 -0.5t-71 -2t-101 -3.5v61l94 6q54 3 66 29q10 29 10 119v579l-141 -8v45
l141 64v86q0 67 9 120.5t28 96.5t49 78l119 135q37 43 87 64.5t97 21.5q42 0 92 -23zM1032 946v-737q0 -90 10 -119q13 -26 66 -29l94 -6v-61q-50 2 -101 3.5t-70.5 2t-84.5 0.5q-64 0 -84 -0.5t-71 -2t-101 -3.5v61l94 6q54 3 66 29q10 29 10 119v457q0 103 -14 127
q-16 22 -76 22h-76v57q94 11 177.5 35t142.5 54zM954 1407q41 0 72 -31t31 -71t-31.5 -70.5t-71.5 -30.5q-38 0 -69 31t-31 70t30.5 70.5t69.5 31.5z" />
    <glyph glyph-name="sac" unicode="&#xf008;" horiz-adv-x="682" 
d="M160 1036l258 252q58 60 94 60q27 0 42 -17t15 -47q0 -27 -15 -41t-56 -41l-265 -166h-73z" />
    <glyph glyph-name="huyen" unicode="&#xf00d;" horiz-adv-x="682" 
d="M440 1036l-260 168q-41 27 -56 41t-15 41q0 29 15 46.5t42 17.5q34 0 94 -60l254 -254h-74z" />
    <glyph glyph-name="hoi" unicode="&#xf012;" horiz-adv-x="682" 
d="M195 1036l45 92q65 25 127 25q84 0 141 -33t57 -92q0 -35 -27.5 -64t-78.5 -65q-57 -40 -82 -61t-25 -43q0 -18 19 -35l-47 -12q-43 16 -43 55q0 24 17.5 45.5t59.5 58.5q88 60 88 107q0 28 -29.5 49t-82.5 24q-53 0 -72 -24l-20 -39z" />
    <glyph glyph-name="nga" unicode="&#xf01d;" horiz-adv-x="682" 
d="M621 1311h57q-8 -64 -51 -119q-59 -74 -146 -74q-31 0 -57 6.5t-57.5 22t-53.5 24.5q-54 27 -88 27q-66 0 -96 -80h-53q14 83 66 132.5t132 49.5q32 0 68 -13t70 -30q77 -36 108 -36q43 4 64 24.5t37 65.5z" />
    <glyph glyph-name="nang" unicode="&#xf02a;" horiz-adv-x="596" 
d="M-43 1126q40 0 71 -31t31 -71q0 -39 -31.5 -69.5t-70.5 -30.5q-38 0 -69 31t-31 69q0 39 30.5 70.5t69.5 31.5z" />
    <glyph glyph-name="aa" horiz-adv-x="682" 
d="M53 1360h56q0 -74 63.5 -121t138.5 -47q49 0 96 20.5t77 59.5t30 88h55q0 -74 -30 -137t-88.5 -100.5t-139.5 -37.5q-120 0 -189 79.5t-69 195.5z" />
    <glyph glyph-name="ab" horiz-adv-x="682" 
d="M279 1386h110l229 -288h-63l-221 178l-221 -178h-64z" />
    <glyph glyph-name="dth" unicode="&#x111;" horiz-adv-x="1251" 
d="M844 895v-2v207h-361v94h361v76q0 43 -10 63.5t-41 20.5h-115v57q206 30 319 76l19 -17v-276h133v-94h-133v-891q0 -90 10 -119q12 -26 66 -29l94 -6v-61l-85 3t-48.5 2t-53.5 1q-35 0 -52.5 -1t-43 -2t-61.5 -3l10 188l-227 -190q-22 -17 -131 -17q-207 0 -314.5 131.5
t-107.5 342.5q0 131 55 233.5t137 144.5l180 95q76 39 152 39q61 0 119 -17t129 -49zM844 451v264q0 20 -47.5 56t-116.5 63.5t-125 27.5q-157 -5 -231 -96.5t-74 -278.5q0 -97 36.5 -189.5t109 -150t173.5 -57.5q61 0 118 35t106 94q32 39 41.5 81.5t9.5 105.5v45z" />
    <glyph glyph-name="dth" unicode="&#x20ab;" horiz-adv-x="1251" 
d="M844 895v-2v207h-361v94h361v76q0 43 -10 63.5t-41 20.5h-115v57q206 30 319 76l19 -17v-276h133v-94h-133v-891q0 -90 10 -119q12 -26 66 -29l94 -6v-61l-85 3t-48.5 2t-53.5 1q-35 0 -52.5 -1t-43 -2t-61.5 -3l10 188l-227 -190q-22 -17 -131 -17q-207 0 -314.5 131.5
t-107.5 342.5q0 131 55 233.5t137 144.5l180 95q76 39 152 39q61 0 119 -17t129 -49zM844 451v264q0 20 -47.5 56t-116.5 63.5t-125 27.5q-157 -5 -231 -96.5t-74 -278.5q0 -97 36.5 -189.5t109 -150t173.5 -57.5q61 0 118 35t106 94q32 39 41.5 81.5t9.5 105.5v45z" />
    <glyph glyph-name="dhoa" unicode="&#x110;" horiz-adv-x="1585" 
d="M231 195v514h-202v73h202v383q0 124 -18 154q-9 15 -29 21.5t-57 9.5l-82 6v61q134 -2 235 -4t169 -2q89 0 119 0.5t103.5 2t133.5 3.5q160 0 296.5 -43t233 -123t150 -197.5t53.5 -260.5q0 -155 -56 -306t-157 -263.5t-227 -157.5q-71 -25 -113.5 -38t-119.5 -23.5
t-169 -10.5q-78 2 -127 3t-81 2t-93 1t-91.5 -1t-76.5 -2t-110 -3v47l63 33q51 26 51 121zM426 1319v-537h377v-73h-377v-609q65 -16 233 -16q91 0 171.5 10.5t146.5 40.5q177 84 259.5 235t82.5 365q0 184 -49.5 304t-137 183.5t-205.5 88t-268 24.5q-168 0 -233 -16z" />
    <glyph glyph-name="octh" unicode="&#x1a1;" horiz-adv-x="1118" 
d="M516 -41q-97 0 -180.5 36t-145 102t-93 153.5t-31.5 187.5q0 155 62 273t180.5 184t279.5 66q108 0 199.5 -45.5t152.5 -119t86 -151.5q31 13 47.5 94.5t16.5 194.5q10 1 131 27q0 -79 -29.5 -170t-71 -152t-76.5 -61q9 -30 9 -84q0 -153 -69 -276t-191 -191t-277 -68z
M541 893q-152 0 -218.5 -103t-66.5 -264q0 -87 17.5 -173.5t57 -160.5t106.5 -119.5t159 -45.5q131 0 198.5 110t67.5 266q0 132 -39.5 244.5t-113.5 179t-168 66.5z" />
    <glyph glyph-name="ochoa" unicode="&#x1a0;" horiz-adv-x="1618" 
d="M768 -41q-207 0 -373.5 91.5t-260 260.5t-93.5 394q0 208 94 379.5t269.5 269.5t406.5 98q165 -1 301 -47t226.5 -118.5t136.5 -153.5q24 11 40 51t24.5 105.5t8.5 133.5q14 1 54.5 10.5t76.5 16.5q0 -79 -29 -170t-71 -152t-76 -61q23 -38 40.5 -118t17.5 -197
q0 -217 -104.5 -399t-286.5 -288t-402 -106zM778 1366q-132 0 -229.5 -43.5t-161.5 -122.5t-95.5 -184.5t-31.5 -235.5q0 -137 33.5 -267.5t105 -237.5t181.5 -168.5t254 -61.5q125 0 221.5 47t159.5 132t94.5 202.5t31.5 261.5q0 317 -142.5 497.5t-420.5 180.5z" />
    <glyph glyph-name="ucth" unicode="&#x1b0;" horiz-adv-x="1235" 
d="M1030 952h2v-315q14 0 35 44t36 112.5t15 140.5q24 1 142 27q0 -87 -41.5 -182.5t-97.5 -159.5t-91 -64v-346q0 -90 10 -119q13 -26 66 -29l84 -6v-61q-34 2 -71.5 3.5t-48 2t-48.5 0.5q-39 0 -50 -0.5t-48.5 -2t-73.5 -3.5q8 114 8 188l-137 -127q-89 -80 -229 -80
q-100 0 -161.5 29t-88.5 79.5t-33 104.5t-6 138v344q0 104 -15.5 126.5t-74.5 22.5h-76v58q82 8 170 32.5t149 51.5l19 -9v-604q0 -87 17.5 -140t65.5 -80.5t140 -27.5q64 0 124 37.5t98 93.5t38 105v334q0 103 -14 127q-18 22 -76 22h-76v58q82 8 168.5 32.5t151.5 51.5z
" />
    <glyph glyph-name="uchoa" unicode="&#x1af;" horiz-adv-x="1593" 
d="M227 438v725q0 124 -18 154q-17 28 -86 31l-98 6v61h600v-61l-99 -6q-68 -3 -86 -31q-18 -30 -18 -154v-704q0 -140 48 -223.5t139.5 -117.5t234.5 -34q190 0 306 94t116 330v655q0 125 -19 154q-14 24 -86 31l-90 6v61h289v-332q15 2 36 46t36.5 113t15.5 140
q11 1 141 27q0 -86 -41.5 -182t-97 -159.5t-90.5 -63.5v-431q0 -167 -32.5 -281.5t-101.5 -188.5t-179 -109t-267 -35q-133 0 -235 23t-173.5 78t-108 148.5t-36.5 229.5z" />
    <glyph glyph-name="aath" unicode="&#x103;" 
d="M461 553l203 37q0 126 -63 194t-195 68q-67 0 -95.5 -8.5t-48.5 -34.5q-6 -8 -35 -68l-26 -63l-54 14v133l109 66q116 70 238 70q129 0 200.5 -40t102 -127.5t30.5 -240.5v-375q0 -56 7 -88q6 -28 51 -31l80 -4v-61q-34 2 -60 3t-43 2t-51 1q-35 0 -52.5 -1t-43.5 -2
t-62 -3l11 174l-254 -176q-24 -17 -95 -17q-109 0 -179 64.5t-70 183.5q0 109 55.5 176t139 99.5t200.5 54.5zM664 254v270q-181 -25 -299 -71q-52 -20 -87.5 -78t-35.5 -115q0 -52 22.5 -89.5t58.5 -58t78 -20.5q43 0 87 23t110 71q35 26 66 68zM264 1313h55
q0 -50 30.5 -88.5t77.5 -59t95 -20.5t95 20.5t77.5 59t30.5 88.5h55q0 -74 -30 -137t-88.5 -100.5t-139.5 -37.5q-120 0 -189 79.5t-69 195.5z" />
    <glyph glyph-name="aahoa" unicode="&#x102;" horiz-adv-x="1593" 
d="M836 1434l495 -1164l26.5 -58.5t39.5 -80.5q20 -34 38 -50t44 -20l69 -6v-61q-67 2 -146 4t-126 2q-50 0 -79 -1t-74 -2t-119 -3v61l96 6q36 2 60 12.5t24 28.5q0 26 -43 131l-94 236h-590l-58 -137q-22 -51 -46.5 -120.5t-24.5 -92.5q0 -29 21 -40t77 -18l76 -6v-61
q-66 2 -105 3t-64 2t-67 1q-40 0 -108 -2t-127 -4v61l75 6q36 4 64.5 31.5t46.5 69.5l365 829l114 259t74 184h66zM492 551h518l-258 610zM549 1800h55q0 -51 30.5 -89t77.5 -58.5t95 -20.5t95 20.5t77.5 58.5t30.5 89h55q0 -73 -30 -136t-88.5 -100.5t-139.5 -37.5
q-120 0 -189 79.5t-69 194.5z" />
    <glyph glyph-name="abth" 
d="M461 553l203 37q0 126 -63 194t-195 68q-67 0 -95.5 -8.5t-48.5 -34.5q-6 -8 -35 -68l-26 -63l-54 14v133l109 66q116 70 238 70q129 0 200.5 -40t102 -127.5t30.5 -240.5v-375q0 -56 7 -88q6 -28 51 -31l80 -4v-61q-34 2 -60 3t-43 2t-51 1q-35 0 -52.5 -1t-43.5 -2
t-62 -3l11 174l-254 -176q-24 -17 -95 -17q-109 0 -179 64.5t-70 183.5q0 109 55.5 176t139 99.5t200.5 54.5zM664 254v270q-181 -25 -299 -71q-52 -20 -87.5 -78t-35.5 -115q0 -52 22.5 -89.5t58.5 -58t78 -20.5q43 0 87 23t110 71q35 26 66 68zM428 1323h111l229 -289h-63
l-222 178l-221 -178h-63z" />
    <glyph glyph-name="abhoa" horiz-adv-x="1593" 
d="M836 1434l495 -1164l26.5 -58.5t39.5 -80.5q20 -34 38 -50t44 -20l69 -6v-61q-67 2 -146 4t-126 2q-50 0 -79 -1t-74 -2t-119 -3v61l96 6q36 2 60 12.5t24 28.5q0 26 -43 131l-94 236h-590l-58 -137q-22 -51 -46.5 -120.5t-24.5 -92.5q0 -29 21 -40t77 -18l76 -6v-61
q-66 2 -105 3t-64 2t-67 1q-40 0 -108 -2t-127 -4v61l75 6q36 4 64.5 31.5t46.5 69.5l365 829l114 259t74 184h66zM492 551h518l-258 610zM733 1800h111l229 -289h-63l-222 179l-221 -179h-63z" />
    <glyph glyph-name="ebth" horiz-adv-x="981" 
d="M518 893q-119 0 -194.5 -87t-75.5 -253q106 -12 260 -12q120 0 227 6q0 94 -24.5 174.5t-72.5 126t-120 45.5zM528 961q172 0 281 -102t109 -273q0 -58 -5 -86q-168 -29 -370 -29h-299q0 -89 22.5 -163t69.5 -128.5t116.5 -83t161.5 -28.5q47 0 88.5 12.5t81 34.5
l84.5 49l27 -21l-41 -69q-9 -15 -63 -42.5t-128 -50t-137 -22.5q-150 0 -257 60t-161.5 166t-54.5 247q0 96 17 171t51 130.5t80 89.5q73 58 127 82q120 56 200 56zM426 1329h111l229 -289h-64l-221 179l-221 -179h-63z" />
    <glyph glyph-name="ebhoa" horiz-adv-x="1251" 
d="M248 246v919q0 125 -19 154q-17 28 -86 31l-98 6v61q76 -2 151.5 -3.5t96 -2t98.5 -0.5q68 1 146 2t140.5 2t98.5 1.5t98 0.5q145 0 265 -6q-18 -72 -25.5 -154t-7.5 -157h-72v133q0 48 -18 55q-114 43 -402 43q-106 0 -172 -16v-547q99 -6 238 -6q181 0 217 22
q13 12 16 54l11 106h61q-2 -80 -4 -140t-2 -97t2 -94.5t4 -133.5h-61l-11 121q-3 43 -16 51q-34 25 -217 25q-174 0 -238 -6v-574q66 -16 172 -16q366 0 414 26q23 13 42.5 77t29.5 153h71q-15 -76 -23.5 -163t-8.5 -173q-60 -2 -144.5 -3.5t-121 -2t-138.5 -0.5
q-104 2 -181 3t-127 2t-138 1q-51 0 -64.5 -0.5t-60 -2t-94.5 -3.5v61l73 6q72 7 86 31q19 29 19 154zM545 1810h110l230 -288h-64l-221 178l-221 -178h-64z" />
    <glyph glyph-name="obth" horiz-adv-x="1118" 
d="M516 -41q-97 0 -180.5 36t-145 102t-93 153.5t-31.5 187.5q0 155 62 273t180.5 184t279.5 66q95 0 180.5 -35t149.5 -99t99.5 -150.5t35.5 -182.5q0 -153 -69 -276t-191 -191t-277 -68zM541 893q-152 0 -218.5 -103t-66.5 -264q0 -87 17.5 -173.5t57 -160.5t106.5 -119.5
t159 -45.5q131 0 198.5 110t67.5 266q0 132 -39.5 244.5t-113.5 179t-168 66.5zM510 1323h111l229 -289h-64l-221 178l-221 -178h-63z" />
    <glyph glyph-name="obhoa" horiz-adv-x="1610" 
d="M772 -41q-207 0 -373.5 91.5t-260 260.5t-93.5 394q0 208 94 379.5t269.5 269.5t406.5 98q220 0 390 -81t265 -238.5t95 -380.5q0 -217 -104.5 -399t-286.5 -288t-402 -106zM782 1366q-132 0 -229.5 -43.5t-161.5 -122.5t-95.5 -184.5t-31.5 -235.5q0 -137 33.5 -267.5
t105 -237.5t181.5 -168.5t254 -61.5q125 0 221.5 47t159.5 131.5t95 202.5t32 262q0 206 -62 358.5t-189.5 236t-312.5 83.5zM752 1796h110l230 -289h-64l-221 179l-221 -179h-64z" />
    <glyph glyph-name="athsac" 
d="M461 553l203 37q0 126 -63 194t-195 68q-67 0 -95.5 -8.5t-48.5 -34.5q-6 -8 -35 -68l-26 -63l-54 14v133l109 66q116 70 238 70q129 0 200.5 -40t102 -127.5t30.5 -240.5v-375q0 -56 7 -88q6 -28 51 -31l80 -4v-61q-34 2 -60 3t-43 2t-51 1q-35 0 -52.5 -1t-43.5 -2
t-62 -3l11 174l-254 -176q-24 -17 -95 -17q-109 0 -179 64.5t-70 183.5q0 109 55.5 176t139 99.5t200.5 54.5zM664 254v270q-181 -25 -299 -71q-52 -20 -87.5 -78t-35.5 -115q0 -52 22.5 -89.5t58.5 -58t78 -20.5q43 0 87 23t110 71q35 26 66 68zM344 1063l258 252
q61 59 94 59q28 0 43 -17t15 -46q0 -26 -19 -44.5t-53 -37.5l-264 -166h-74z" />
    <glyph glyph-name="athhuyen" 
d="M461 553l203 37q0 126 -63 194t-195 68q-67 0 -95.5 -8.5t-48.5 -34.5q-6 -8 -35 -68l-26 -63l-54 14v133l109 66q116 70 238 70q129 0 200.5 -40t102 -127.5t30.5 -240.5v-375q0 -56 7 -88q6 -28 51 -31l80 -4v-61q-34 2 -60 3t-43 2t-51 1q-35 0 -52.5 -1t-43.5 -2
t-62 -3l11 174l-254 -176q-24 -17 -95 -17q-109 0 -179 64.5t-70 183.5q0 109 55.5 176t139 99.5t200.5 54.5zM664 254v270q-181 -25 -299 -71q-52 -20 -87.5 -78t-35.5 -115q0 -52 22.5 -89.5t58.5 -58t78 -20.5q43 0 87 23t110 71q35 26 66 68zM645 1063l-260 168
q-36 22 -54 39t-18 43q0 28 15 45.5t43 17.5q33 0 94 -59l254 -254h-74z" />
    <glyph glyph-name="athhoi" unicode="&#x1ea3;" 
d="M461 553l203 37q0 126 -63 194t-195 68q-67 0 -95.5 -8.5t-48.5 -34.5q-6 -8 -35 -68l-26 -63l-54 14v133l109 66q116 70 238 70q129 0 200.5 -40t102 -127.5t30.5 -240.5v-375q0 -56 7 -88q6 -28 51 -31l80 -4v-61q-34 2 -60 3t-43 2t-51 1q-35 0 -52.5 -1t-43.5 -2
t-62 -3l11 174l-254 -176q-24 -17 -95 -17q-109 0 -179 64.5t-70 183.5q0 109 55.5 176t139 99.5t200.5 54.5zM664 254v270q-181 -25 -299 -71q-52 -20 -87.5 -78t-35.5 -115q0 -52 22.5 -89.5t58.5 -58t78 -20.5q43 0 87 23t110 71q35 26 66 68zM371 1346l45 92
q67 24 127 24q84 0 141 -33t57 -92q0 -35 -27.5 -64t-78.5 -65q-57 -40 -82 -61t-25 -43q0 -16 19 -35l-47 -12q-43 16 -43 55q0 24 18 45.5t60 59.5q88 60 88 106q0 28 -31 49.5t-82 24.5q-52 0 -72 -25l-20 -39z" />
    <glyph glyph-name="athnga" 
d="M461 553l203 37q0 126 -63 194t-195 68q-67 0 -95.5 -8.5t-48.5 -34.5q-6 -8 -35 -68l-26 -63l-54 14v133l109 66q116 70 238 70q129 0 200.5 -40t102 -127.5t30.5 -240.5v-375q0 -56 7 -88q6 -28 51 -31l80 -4v-61q-34 2 -60 3t-43 2t-51 1q-35 0 -52.5 -1t-43.5 -2
t-62 -3l11 174l-254 -176q-24 -17 -95 -17q-109 0 -179 64.5t-70 183.5q0 109 55.5 176t139 99.5t200.5 54.5zM664 254v270q-181 -25 -299 -71q-52 -20 -87.5 -78t-35.5 -115q0 -52 22.5 -89.5t58.5 -58t78 -20.5q43 0 87 23t110 71q35 26 66 68zM758 1255h57
q-9 -65 -51 -118q-59 -74 -146 -74q-31 0 -55.5 6t-50.5 18l-61 29q-62 27 -89 27q-64 0 -96 -80h-53q14 83 66 132.5t133 49.5q32 0 68 -13.5t69 -29.5q82 -37 108 -37q43 4 64 25t37 65z" />
    <glyph glyph-name="athnang" unicode="&#x1ea1;" 
d="M461 553l203 37q0 126 -63 194t-195 68q-67 0 -95.5 -8.5t-48.5 -34.5q-6 -8 -35 -68l-26 -63l-54 14v133l109 66q116 70 238 70q129 0 200.5 -40t102 -127.5t30.5 -240.5v-375q0 -56 7 -88q6 -28 51 -31l80 -4v-61q-34 2 -60 3t-43 2t-51 1q-35 0 -52.5 -1t-43.5 -2
t-62 -3l11 174l-254 -176q-24 -17 -95 -17q-109 0 -179 64.5t-70 183.5q0 109 55.5 176t139 99.5t200.5 54.5zM664 254v270q-181 -25 -299 -71q-52 -20 -87.5 -78t-35.5 -115q0 -52 22.5 -89.5t58.5 -58t78 -20.5q43 0 87 23t110 71q35 26 66 68zM463 -127q40 0 71 -31
t31 -71t-31.5 -70.5t-70.5 -30.5q-40 0 -70.5 30.5t-30.5 70.5t30 71t71 31z" />
    <glyph glyph-name="ahoasac" horiz-adv-x="1593" 
d="M836 1434l495 -1164l26.5 -58.5t39.5 -80.5q20 -34 38 -50t44 -20l69 -6v-61q-67 2 -146 4t-126 2q-50 0 -79 -1t-74 -2t-119 -3v61l96 6q36 2 60 12.5t24 28.5q0 26 -43 131l-94 236h-590l-58 -137q-22 -51 -46.5 -120.5t-24.5 -92.5q0 -29 21 -40t77 -18l76 -6v-61
q-66 2 -105 3t-64 2t-67 1q-40 0 -108 -2t-127 -4v61l75 6q36 4 64.5 31.5t46.5 69.5l365 829l114 259t74 184h66zM492 551h518l-258 610zM700 1536l258 252q59 59 95 59q28 0 42.5 -17t14.5 -46q0 -26 -19 -44.5t-53 -37.5l-264 -166h-74z" />
    <glyph glyph-name="ahoahuyen" horiz-adv-x="1593" 
d="M836 1434l495 -1164l26.5 -58.5t39.5 -80.5q20 -34 38 -50t44 -20l69 -6v-61q-67 2 -146 4t-126 2q-50 0 -79 -1t-74 -2t-119 -3v61l96 6q36 2 60 12.5t24 28.5q0 26 -43 131l-94 236h-590l-58 -137q-22 -51 -46.5 -120.5t-24.5 -92.5q0 -29 21 -40t77 -18l76 -6v-61
q-66 2 -105 3t-64 2t-67 1q-40 0 -108 -2t-127 -4v61l75 6q36 4 64.5 31.5t46.5 69.5l365 829l114 259t74 184h66zM492 551h518l-258 610zM889 1536l-260 168q-36 22 -54 39t-18 43q0 28 15 45.5t42 17.5q36 0 95 -59l254 -254h-74z" />
    <glyph glyph-name="ahoahoi" unicode="&#x1ea2;" horiz-adv-x="1593" 
d="M836 1434l495 -1164l26.5 -58.5t39.5 -80.5q20 -34 38 -50t44 -20l69 -6v-61q-67 2 -146 4t-126 2q-50 0 -79 -1t-74 -2t-119 -3v61l96 6q36 2 60 12.5t24 28.5q0 26 -43 131l-94 236h-590l-58 -137q-22 -51 -46.5 -120.5t-24.5 -92.5q0 -29 21 -40t77 -18l76 -6v-61
q-66 2 -105 3t-64 2t-67 1q-40 0 -108 -2t-127 -4v61l75 6q36 4 64.5 31.5t46.5 69.5l365 829l114 259t74 184h66zM492 551h518l-258 610zM666 1829l45 92q70 25 127 25q84 0 141 -33t57 -92q0 -36 -26 -63.5t-80 -65.5q-57 -40 -82 -61t-25 -44q0 -14 19 -35l-47 -12
q-43 16 -43 55q0 24 19.5 47.5t57.5 57.5q89 61 89 106q0 28 -31 49.5t-82 24.5q-52 0 -72 -25l-20 -38z" />
    <glyph glyph-name="ahoanga" horiz-adv-x="1593" 
d="M836 1434l495 -1164l26.5 -58.5t39.5 -80.5q20 -34 38 -50t44 -20l69 -6v-61q-67 2 -146 4t-126 2q-50 0 -79 -1t-74 -2t-119 -3v61l96 6q36 2 60 12.5t24 28.5q0 26 -43 131l-94 236h-590l-58 -137q-22 -51 -46.5 -120.5t-24.5 -92.5q0 -29 21 -40t77 -18l76 -6v-61
q-66 2 -105 3t-64 2t-67 1q-40 0 -108 -2t-127 -4v61l75 6q36 4 64.5 31.5t46.5 69.5l365 829l114 259t74 184h66zM492 551h518l-258 610zM1032 1729h58q-11 -68 -52 -119q-57 -74 -145 -74q-30 0 -55.5 6t-58 22t-54.5 25q-62 27 -88 27q-66 0 -96 -80h-54
q16 83 67.5 132.5t131.5 49.5q32 0 68 -13.5t69 -29.5q82 -37 109 -37q45 6 64.5 26t35.5 65z" />
    <glyph glyph-name="ahoanang" unicode="&#x1ea0;" horiz-adv-x="1593" 
d="M836 1434l495 -1164l26.5 -58.5t39.5 -80.5q20 -34 38 -50t44 -20l69 -6v-61q-67 2 -146 4t-126 2q-50 0 -79 -1t-74 -2t-119 -3v61l96 6q36 2 60 12.5t24 28.5q0 26 -43 131l-94 236h-590l-58 -137q-22 -51 -46.5 -120.5t-24.5 -92.5q0 -29 21 -40t77 -18l76 -6v-61
q-66 2 -105 3t-64 2t-67 1q-40 0 -108 -2t-127 -4v61l75 6q36 4 64.5 31.5t46.5 69.5l365 829l114 259t74 184h66zM492 551h518l-258 610zM788 -109q41 0 72 -31t31 -71q0 -39 -31.5 -69.5t-71.5 -30.5q-38 0 -69 31t-31 69q0 39 30.5 70.5t69.5 31.5z" />
    <glyph glyph-name="ethsac" horiz-adv-x="981" 
d="M518 893q-119 0 -194.5 -87t-75.5 -253q106 -12 260 -12q120 0 227 6q0 94 -24.5 174.5t-72.5 126t-120 45.5zM528 961q172 0 281 -102t109 -273q0 -58 -5 -86q-168 -29 -370 -29h-299q0 -89 22.5 -163t69.5 -128.5t116.5 -83t161.5 -28.5q47 0 88.5 12.5t81 34.5
l84.5 49l27 -21l-41 -69q-9 -15 -63 -42.5t-128 -50t-137 -22.5q-150 0 -257 60t-161.5 166t-54.5 247q0 96 17 171t51 130.5t80 89.5q73 58 127 82q120 56 200 56zM377 1063l258 252q61 59 94 59q28 0 42.5 -17t14.5 -46q0 -26 -18 -43.5t-53 -38.5l-264 -166h-74z" />
    <glyph glyph-name="ethhuyen" horiz-adv-x="981" 
d="M518 893q-119 0 -194.5 -87t-75.5 -253q106 -12 260 -12q120 0 227 6q0 94 -24.5 174.5t-72.5 126t-120 45.5zM528 961q172 0 281 -102t109 -273q0 -58 -5 -86q-168 -29 -370 -29h-299q0 -89 22.5 -163t69.5 -128.5t116.5 -83t161.5 -28.5q47 0 88.5 12.5t81 34.5
l84.5 49l27 -21l-41 -69q-9 -15 -63 -42.5t-128 -50t-137 -22.5q-150 0 -257 60t-161.5 166t-54.5 247q0 96 17 171t51 130.5t80 89.5q73 58 127 82q120 56 200 56zM637 1063l-260 168q-36 22 -54 39t-18 43q0 28 15 45.5t42 17.5q34 0 95 -59l254 -254h-74z" />
    <glyph glyph-name="ethhoi" unicode="&#x1ebb;" horiz-adv-x="981" 
d="M518 893q-119 0 -194.5 -87t-75.5 -253q106 -12 260 -12q120 0 227 6q0 94 -24.5 174.5t-72.5 126t-120 45.5zM528 961q172 0 281 -102t109 -273q0 -58 -5 -86q-168 -29 -370 -29h-299q0 -89 22.5 -163t69.5 -128.5t116.5 -83t161.5 -28.5q47 0 88.5 12.5t81 34.5
l84.5 49l27 -21l-41 -69q-9 -15 -63 -42.5t-128 -50t-137 -22.5q-150 0 -257 60t-161.5 166t-54.5 247q0 96 17 171t51 130.5t80 89.5q73 58 127 82q120 56 200 56zM362 1356l46 92q68 25 127 25q84 0 141 -33t57 -92q0 -36 -28.5 -66.5t-77.5 -62.5q-54 -36 -80.5 -58.5
t-26.5 -46.5q0 -18 19 -35l-47 -12q-43 16 -43 55q0 24 18 46t59 59q45 32 66.5 55.5t21.5 50.5q0 28 -30.5 49.5t-81.5 24.5q-54 0 -72 -25l-20 -39z" />
    <glyph glyph-name="ethnga" unicode="&#x1ebd;" horiz-adv-x="981" 
d="M518 893q-119 0 -194.5 -87t-75.5 -253q106 -12 260 -12q120 0 227 6q0 94 -24.5 174.5t-72.5 126t-120 45.5zM528 961q172 0 281 -102t109 -273q0 -58 -5 -86q-168 -29 -370 -29h-299q0 -89 22.5 -163t69.5 -128.5t116.5 -83t161.5 -28.5q47 0 88.5 12.5t81 34.5
l84.5 49l27 -21l-41 -69q-9 -15 -63 -42.5t-128 -50t-137 -22.5q-150 0 -257 60t-161.5 166t-54.5 247q0 96 17 171t51 130.5t80 89.5q73 58 127 82q120 56 200 56zM729 1255h57q-9 -65 -51 -118q-57 -74 -145 -74q-30 0 -55.5 6t-51.5 18l-61 29q-62 27 -88 27
q-66 0 -96 -80h-54q16 83 67.5 132.5t131.5 49.5q32 0 68 -13.5t69 -29.5q82 -37 109 -37q44 4 64 25t36 65z" />
    <glyph glyph-name="ethnang" unicode="&#x1eb9;" horiz-adv-x="981" 
d="M518 893q-119 0 -194.5 -87t-75.5 -253q106 -12 260 -12q120 0 227 6q0 94 -24.5 174.5t-72.5 126t-120 45.5zM528 961q172 0 281 -102t109 -273q0 -58 -5 -86q-168 -29 -370 -29h-299q0 -89 22.5 -163t69.5 -128.5t116.5 -83t161.5 -28.5q47 0 88.5 12.5t81 34.5
l84.5 49l27 -21l-41 -69q-9 -15 -63 -42.5t-128 -50t-137 -22.5q-150 0 -257 60t-161.5 166t-54.5 247q0 96 17 171t51 130.5t80 89.5q73 58 127 82q120 56 200 56zM485 -143q42 0 72.5 -31.5t30.5 -71.5q0 -39 -31.5 -69.5t-71.5 -30.5q-38 0 -69 31t-31 69q0 39 30 71
t70 32z" />
    <glyph glyph-name="ehoasac" horiz-adv-x="1251" 
d="M248 246v919q0 125 -19 154q-17 28 -86 31l-98 6v61q76 -2 151.5 -3.5t96 -2t98.5 -0.5q68 1 146 2t140.5 2t98.5 1.5t98 0.5q145 0 265 -6q-18 -72 -25.5 -154t-7.5 -157h-72v133q0 48 -18 55q-114 43 -402 43q-106 0 -172 -16v-547q99 -6 238 -6q181 0 217 22
q13 12 16 54l11 106h61q-2 -80 -4 -140t-2 -97t2 -94.5t4 -133.5h-61l-11 121q-3 43 -16 51q-34 25 -217 25q-174 0 -238 -6v-574q66 -16 172 -16q366 0 414 26q23 13 42.5 77t29.5 153h71q-15 -76 -23.5 -163t-8.5 -173q-60 -2 -144.5 -3.5t-121 -2t-138.5 -0.5
q-104 2 -181 3t-127 2t-138 1q-51 0 -64.5 -0.5t-60 -2t-94.5 -3.5v61l73 6q72 7 86 31q19 29 19 154zM602 1540l258 252q59 59 94 59q28 0 43 -17t15 -46q0 -26 -19 -44.5t-53 -37.5l-264 -166h-74z" />
    <glyph glyph-name="ehoahuyen" horiz-adv-x="1251" 
d="M248 246v919q0 125 -19 154q-17 28 -86 31l-98 6v61q76 -2 151.5 -3.5t96 -2t98.5 -0.5q68 1 146 2t140.5 2t98.5 1.5t98 0.5q145 0 265 -6q-18 -72 -25.5 -154t-7.5 -157h-72v133q0 48 -18 55q-114 43 -402 43q-106 0 -172 -16v-547q99 -6 238 -6q181 0 217 22
q13 12 16 54l11 106h61q-2 -80 -4 -140t-2 -97t2 -94.5t4 -133.5h-61l-11 121q-3 43 -16 51q-34 25 -217 25q-174 0 -238 -6v-574q66 -16 172 -16q366 0 414 26q23 13 42.5 77t29.5 153h71q-15 -76 -23.5 -163t-8.5 -173q-60 -2 -144.5 -3.5t-121 -2t-138.5 -0.5
q-104 2 -181 3t-127 2t-138 1q-51 0 -64.5 -0.5t-60 -2t-94.5 -3.5v61l73 6q72 7 86 31q19 29 19 154zM760 1540l-260 168q-36 22 -54 39t-18 43q0 28 15 45.5t42 17.5q36 0 95 -59l254 -254h-74z" />
    <glyph glyph-name="ehoahoi" unicode="&#x1eba;" horiz-adv-x="1251" 
d="M248 246v919q0 125 -19 154q-17 28 -86 31l-98 6v61q76 -2 151.5 -3.5t96 -2t98.5 -0.5q68 1 146 2t140.5 2t98.5 1.5t98 0.5q145 0 265 -6q-18 -72 -25.5 -154t-7.5 -157h-72v133q0 48 -18 55q-114 43 -402 43q-106 0 -172 -16v-547q99 -6 238 -6q181 0 217 22
q13 12 16 54l11 106h61q-2 -80 -4 -140t-2 -97t2 -94.5t4 -133.5h-61l-11 121q-3 43 -16 51q-34 25 -217 25q-174 0 -238 -6v-574q66 -16 172 -16q366 0 414 26q23 13 42.5 77t29.5 153h71q-15 -76 -23.5 -163t-8.5 -173q-60 -2 -144.5 -3.5t-121 -2t-138.5 -0.5
q-104 2 -181 3t-127 2t-138 1q-51 0 -64.5 -0.5t-60 -2t-94.5 -3.5v61l73 6q72 7 86 31q19 29 19 154zM485 1833l45 92q70 25 127 25q83 0 141 -33t58 -92q0 -35 -27.5 -64t-78.5 -65q-54 -36 -80.5 -58.5t-26.5 -46.5q0 -16 19 -35l-48 -12q-43 17 -43 55q0 24 18 45.5
t60 59.5q88 62 88 106q0 28 -30.5 49.5t-81.5 24.5q-53 0 -72 -24l-21 -39z" />
    <glyph glyph-name="ehoanga" unicode="&#x1ebc;" horiz-adv-x="1251" 
d="M248 246v919q0 125 -19 154q-17 28 -86 31l-98 6v61q76 -2 151.5 -3.5t96 -2t98.5 -0.5q68 1 146 2t140.5 2t98.5 1.5t98 0.5q145 0 265 -6q-18 -72 -25.5 -154t-7.5 -157h-72v133q0 48 -18 55q-114 43 -402 43q-106 0 -172 -16v-547q99 -6 238 -6q181 0 217 22
q13 12 16 54l11 106h61q-2 -80 -4 -140t-2 -97t2 -94.5t4 -133.5h-61l-11 121q-3 43 -16 51q-34 25 -217 25q-174 0 -238 -6v-574q66 -16 172 -16q366 0 414 26q23 13 42.5 77t29.5 153h71q-15 -76 -23.5 -163t-8.5 -173q-60 -2 -144.5 -3.5t-121 -2t-138.5 -0.5
q-104 2 -181 3t-127 2t-138 1q-51 0 -64.5 -0.5t-60 -2t-94.5 -3.5v61l73 6q72 7 86 31q19 29 19 154zM852 1712h57q-9 -66 -51 -119q-58 -73 -145 -73q-30 0 -55.5 6t-51.5 18l-61 29q-60 26 -88 26q-66 0 -97 -79h-53q16 83 67.5 132.5t131.5 49.5q34 0 59 -9.5t78 -33.5
q82 -37 109 -37q42 4 63 25t37 65z" />
    <glyph glyph-name="ehoanang" unicode="&#x1eb8;" horiz-adv-x="1251" 
d="M248 246v919q0 125 -19 154q-17 28 -86 31l-98 6v61q76 -2 151.5 -3.5t96 -2t98.5 -0.5q68 1 146 2t140.5 2t98.5 1.5t98 0.5q145 0 265 -6q-18 -72 -25.5 -154t-7.5 -157h-72v133q0 48 -18 55q-114 43 -402 43q-106 0 -172 -16v-547q99 -6 238 -6q181 0 217 22
q13 12 16 54l11 106h61q-2 -80 -4 -140t-2 -97t2 -94.5t4 -133.5h-61l-11 121q-3 43 -16 51q-34 25 -217 25q-174 0 -238 -6v-574q66 -16 172 -16q366 0 414 26q23 13 42.5 77t29.5 153h71q-15 -76 -23.5 -163t-8.5 -173q-60 -2 -144.5 -3.5t-121 -2t-138.5 -0.5
q-104 2 -181 3t-127 2t-138 1q-51 0 -64.5 -0.5t-60 -2t-94.5 -3.5v61l73 6q72 7 86 31q19 29 19 154zM608 -109q41 0 72 -31t31 -71q0 -39 -31.5 -69.5t-71.5 -30.5q-38 0 -69 31t-31 69q0 39 30.5 70.5t69.5 31.5z" />
    <glyph glyph-name="othsac" horiz-adv-x="1118" 
d="M516 -41q-97 0 -180.5 36t-145 102t-93 153.5t-31.5 187.5q0 155 62 273t180.5 184t279.5 66q95 0 180.5 -35t149.5 -99t99.5 -150.5t35.5 -182.5q0 -153 -69 -276t-191 -191t-277 -68zM541 893q-152 0 -218.5 -103t-66.5 -264q0 -87 17.5 -173.5t57 -160.5t106.5 -119.5
t159 -45.5q131 0 198.5 110t67.5 266q0 132 -39.5 244.5t-113.5 179t-168 66.5zM399 1073l258 252q59 59 95 59q27 0 42 -17t15 -46q0 -26 -19 -44.5t-53 -37.5l-264 -166h-74z" />
    <glyph glyph-name="othhuyen" horiz-adv-x="1118" 
d="M516 -41q-97 0 -180.5 36t-145 102t-93 153.5t-31.5 187.5q0 155 62 273t180.5 184t279.5 66q95 0 180.5 -35t149.5 -99t99.5 -150.5t35.5 -182.5q0 -153 -69 -276t-191 -191t-277 -68zM541 893q-152 0 -218.5 -103t-66.5 -264q0 -87 17.5 -173.5t57 -160.5t106.5 -119.5
t159 -45.5q131 0 198.5 110t67.5 266q0 132 -39.5 244.5t-113.5 179t-168 66.5zM690 1053l-260 168q-36 22 -54 39t-18 43q0 28 15.5 45.5t42.5 17.5q33 0 94 -59l254 -254h-74z" />
    <glyph glyph-name="othhoi" unicode="&#x1ecf;" horiz-adv-x="1118" 
d="M516 -41q-97 0 -180.5 36t-145 102t-93 153.5t-31.5 187.5q0 155 62 273t180.5 184t279.5 66q95 0 180.5 -35t149.5 -99t99.5 -150.5t35.5 -182.5q0 -153 -69 -276t-191 -191t-277 -68zM541 893q-152 0 -218.5 -103t-66.5 -264q0 -87 17.5 -173.5t57 -160.5t106.5 -119.5
t159 -45.5q131 0 198.5 110t67.5 266q0 132 -39.5 244.5t-113.5 179t-168 66.5zM416 1335l45 92q65 25 127 25q84 0 141 -33t57 -92q0 -35 -27.5 -64t-78.5 -65q-57 -40 -82 -61t-25 -43q0 -16 19 -35l-47 -12q-43 16 -43 55q0 24 17.5 45t60.5 59q88 62 88 107q0 28 -30 49
t-83 24q-52 0 -72 -24l-20 -39z" />
    <glyph glyph-name="othnga" horiz-adv-x="1118" 
d="M516 -41q-97 0 -180.5 36t-145 102t-93 153.5t-31.5 187.5q0 155 62 273t180.5 184t279.5 66q95 0 180.5 -35t149.5 -99t99.5 -150.5t35.5 -182.5q0 -153 -69 -276t-191 -191t-277 -68zM541 893q-152 0 -218.5 -103t-66.5 -264q0 -87 17.5 -173.5t57 -160.5t106.5 -119.5
t159 -45.5q131 0 198.5 110t67.5 266q0 132 -39.5 244.5t-113.5 179t-168 66.5zM803 1255h57q-9 -65 -51 -118q-59 -74 -145 -74q-30 0 -55.5 6t-51.5 18l-61 29q-62 27 -88 27q-65 0 -97 -80h-53q14 83 66 132.5t133 49.5q32 0 68 -13.5t69 -29.5q82 -37 108 -37
q43 4 64 25t37 65z" />
    <glyph glyph-name="othnang" unicode="&#x1ecd;" horiz-adv-x="1118" 
d="M516 -41q-97 0 -180.5 36t-145 102t-93 153.5t-31.5 187.5q0 155 62 273t180.5 184t279.5 66q95 0 180.5 -35t149.5 -99t99.5 -150.5t35.5 -182.5q0 -153 -69 -276t-191 -191t-277 -68zM541 893q-152 0 -218.5 -103t-66.5 -264q0 -87 17.5 -173.5t57 -160.5t106.5 -119.5
t159 -45.5q131 0 198.5 110t67.5 266q0 132 -39.5 244.5t-113.5 179t-168 66.5zM559 -143q41 0 72 -31t31 -72q0 -40 -32 -70t-71 -30q-38 0 -69 31t-31 69q0 39 30 71t70 32z" />
    <glyph glyph-name="ohoasac" horiz-adv-x="1610" 
d="M772 -41q-207 0 -373.5 91.5t-260 260.5t-93.5 394q0 208 94 379.5t269.5 269.5t406.5 98q220 0 390 -81t265 -238.5t95 -380.5q0 -217 -104.5 -399t-286.5 -288t-402 -106zM782 1366q-132 0 -229.5 -43.5t-161.5 -122.5t-95.5 -184.5t-31.5 -235.5q0 -137 33.5 -267.5
t105 -237.5t181.5 -168.5t254 -61.5q125 0 221.5 47t159.5 131.5t95 202.5t32 262q0 206 -62 358.5t-189.5 236t-312.5 83.5zM686 1565l258 252q61 59 94 59q27 0 42.5 -17t15.5 -47q0 -27 -19 -44.5t-53 -36.5l-264 -166h-74z" />
    <glyph glyph-name="ohoahuyen" horiz-adv-x="1610" 
d="M772 -41q-207 0 -373.5 91.5t-260 260.5t-93.5 394q0 208 94 379.5t269.5 269.5t406.5 98q220 0 390 -81t265 -238.5t95 -380.5q0 -217 -104.5 -399t-286.5 -288t-402 -106zM782 1366q-132 0 -229.5 -43.5t-161.5 -122.5t-95.5 -184.5t-31.5 -235.5q0 -137 33.5 -267.5
t105 -237.5t181.5 -168.5t254 -61.5q125 0 221.5 47t159.5 131.5t95 202.5t32 262q0 206 -62 358.5t-189.5 236t-312.5 83.5zM926 1554l-260 168q-43 29 -57.5 42t-14.5 40q0 29 15 46.5t42 17.5q36 0 94 -60l254 -254h-73z" />
    <glyph glyph-name="ohoahoi" unicode="&#x1ece;" horiz-adv-x="1610" 
d="M772 -41q-207 0 -373.5 91.5t-260 260.5t-93.5 394q0 208 94 379.5t269.5 269.5t406.5 98q220 0 390 -81t265 -238.5t95 -380.5q0 -217 -104.5 -399t-286.5 -288t-402 -106zM782 1366q-132 0 -229.5 -43.5t-161.5 -122.5t-95.5 -184.5t-31.5 -235.5q0 -137 33.5 -267.5
t105 -237.5t181.5 -168.5t254 -61.5q125 0 221.5 47t159.5 131.5t95 202.5t32 262q0 206 -62 358.5t-189.5 236t-312.5 83.5zM692 1837l45 92q65 25 127 25q83 0 141 -33t58 -92q0 -35 -26.5 -63t-80.5 -66q-57 -40 -81.5 -60.5t-24.5 -44.5q0 -16 18 -34l-47 -13
q-43 18 -43 56q0 23 18 44.5t60 59.5q88 62 88 107q0 27 -31 48.5t-82 24.5q-52 0 -71 -24l-21 -39z" />
    <glyph glyph-name="ohoanga" horiz-adv-x="1610" 
d="M772 -41q-207 0 -373.5 91.5t-260 260.5t-93.5 394q0 208 94 379.5t269.5 269.5t406.5 98q220 0 390 -81t265 -238.5t95 -380.5q0 -217 -104.5 -399t-286.5 -288t-402 -106zM782 1366q-132 0 -229.5 -43.5t-161.5 -122.5t-95.5 -184.5t-31.5 -235.5q0 -137 33.5 -267.5
t105 -237.5t181.5 -168.5t254 -61.5q125 0 221.5 47t159.5 131.5t95 202.5t32 262q0 206 -62 358.5t-189.5 236t-312.5 83.5zM1049 1747h57q-8 -64 -51 -119q-59 -74 -146 -74q-31 0 -57 6.5t-57.5 22l-53.5 25.5q-57 26 -88 26q-66 0 -96 -80h-53q14 82 66 132.5t132 50.5
q34 0 60.5 -10t77.5 -33q74 -37 108 -37q43 4 64 25t37 65z" />
    <glyph glyph-name="ohoanang" unicode="&#x1ecc;" horiz-adv-x="1610" 
d="M772 -41q-207 0 -373.5 91.5t-260 260.5t-93.5 394q0 208 94 379.5t269.5 269.5t406.5 98q220 0 390 -81t265 -238.5t95 -380.5q0 -217 -104.5 -399t-286.5 -288t-402 -106zM782 1366q-132 0 -229.5 -43.5t-161.5 -122.5t-95.5 -184.5t-31.5 -235.5q0 -137 33.5 -267.5
t105 -237.5t181.5 -168.5t254 -61.5q125 0 221.5 47t159.5 131.5t95 202.5t32 262q0 206 -62 358.5t-189.5 236t-312.5 83.5zM805 -143q41 0 71.5 -31.5t30.5 -71.5q0 -39 -31.5 -69.5t-70.5 -30.5q-38 0 -69 31t-31 69q0 39 30 71t70 32z" />
    <glyph glyph-name="ithsac" horiz-adv-x="588" 
d="M385 952v-743q0 -90 10 -119q12 -26 66 -29l94 -6v-61q-50 2 -101 3.5t-71 2t-84 0.5t-84 -0.5t-71 -2t-101 -3.5v61l94 6q54 3 66 29q10 29 10 119v461q0 103 -14 127q-18 22 -76 22h-76v58q82 8 168.5 32.5t151.5 51.5zM113 1120l258 252q58 60 94 60q27 0 42 -17
t15 -47q0 -27 -15 -41t-56 -41l-265 -166h-73z" />
    <glyph glyph-name="ithhuyen" horiz-adv-x="588" 
d="M385 952v-743q0 -90 10 -119q12 -26 66 -29l94 -6v-61q-50 2 -101 3.5t-71 2t-84 0.5t-84 -0.5t-71 -2t-101 -3.5v61l94 6q54 3 66 29q10 29 10 119v461q0 103 -14 127q-18 22 -76 22h-76v58q82 8 168.5 32.5t151.5 51.5zM373 1090l-260 167q-43 29 -57.5 42t-14.5 40
q0 29 15 46.5t42 17.5q35 0 95 -60l253 -253h-73z" />
    <glyph glyph-name="ithhoi" unicode="&#x1ec9;" horiz-adv-x="588" 
d="M385 952v-743q0 -90 10 -119q12 -26 66 -29l94 -6v-61q-50 2 -101 3.5t-71 2t-84 0.5t-84 -0.5t-71 -2t-101 -3.5v61l94 6q54 3 66 29q10 29 10 119v461q0 103 -14 127q-18 22 -76 22h-76v58q82 8 168.5 32.5t151.5 51.5zM160 1393l45 92q67 24 127 24q84 0 141 -33
t57 -92q0 -35 -27.5 -64t-78.5 -65q-64 -44 -85.5 -62.5t-21.5 -41.5q0 -16 19 -35l-47 -12q-43 16 -43 55q0 24 18 45.5t60 59.5q88 60 88 106q0 28 -31 49.5t-82 24.5q-52 0 -72 -25l-20 -39z" />
    <glyph glyph-name="ithnga" unicode="&#x129;" horiz-adv-x="588" 
d="M385 952v-743q0 -90 10 -119q12 -26 66 -29l94 -6v-61q-50 2 -101 3.5t-71 2t-84 0.5t-84 -0.5t-71 -2t-101 -3.5v61l94 6q54 3 66 29q10 29 10 119v461q0 103 -14 127q-18 22 -76 22h-76v58q82 8 168.5 32.5t151.5 51.5zM526 1292h58q-9 -66 -52 -118q-57 -74 -145 -74
q-30 0 -54.5 5.5t-58 21.5l-55.5 26q-59 27 -88 27q-66 0 -96 -80h-53q14 83 66 132.5t132 49.5q34 0 59 -9.5t78 -33.5q82 -37 109 -37q44 4 64 25t36 65z" />
    <glyph glyph-name="ithnang" unicode="&#x1ecb;" horiz-adv-x="596" 
d="M385 952v-743q0 -90 10 -119q12 -26 66 -29l94 -6v-61q-50 2 -101 3.5t-71 2t-84 0.5t-84 -0.5t-71 -2t-101 -3.5v61l94 6q54 3 66 29q10 29 10 119v461q0 103 -14 127q-18 22 -76 22h-76v58q82 8 168.5 32.5t151.5 51.5zM299 1335q40 0 71 -31t31 -71q0 -39 -31.5 -69.5
t-70.5 -30.5q-38 0 -69 31t-31 69q0 39 30.5 70.5t69.5 31.5zM299 -150q40 0 71 -31t31 -71q0 -39 -31.5 -69.5t-70.5 -30.5q-38 0 -69 31t-31 69q0 39 30.5 70.5t69.5 31.5z" />
    <glyph glyph-name="ihoasac" horiz-adv-x="690" 
d="M442 1165v-919q0 -125 19 -154q17 -28 86 -31l98 -6v-61q-159 6 -297 6q-142 0 -303 -6v61l98 6q69 3 86 31q19 29 19 154v919q0 125 -19 154q-17 28 -86 31l-98 6v61q160 -6 303 -6q138 0 297 6v-61l-98 -6q-69 -3 -86 -31q-19 -29 -19 -154zM184 1540l258 252
q59 59 95 59q27 0 42 -17t15 -46q0 -26 -19 -44.5t-53 -37.5l-264 -166h-74z" />
    <glyph glyph-name="ihoahuyen" horiz-adv-x="690" 
d="M442 1165v-919q0 -125 19 -154q17 -28 86 -31l98 -6v-61q-159 6 -297 6q-142 0 -303 -6v61l98 6q69 3 86 31q19 29 19 154v919q0 125 -19 154q-17 28 -86 31l-98 6v61q160 -6 303 -6q138 0 297 6v-61l-98 -6q-69 -3 -86 -31q-19 -29 -19 -154zM485 1550l-260 168
q-41 27 -56 41t-15 41q0 29 15 46.5t42 17.5q36 0 94 -60l254 -254h-74z" />
    <glyph glyph-name="ihoahoi" unicode="&#x1ec8;" horiz-adv-x="690" 
d="M442 1165v-919q0 -125 19 -154q17 -28 86 -31l98 -6v-61q-159 6 -297 6q-142 0 -303 -6v61l98 6q69 3 86 31q19 29 19 154v919q0 125 -19 154q-17 28 -86 31l-98 6v61q160 -6 303 -6q138 0 297 6v-61l-98 -6q-69 -3 -86 -31q-19 -29 -19 -154zM221 1843l45 92
q65 25 127 25q83 0 141 -33t58 -92q0 -35 -26.5 -63t-80.5 -66q-57 -40 -81.5 -60.5t-24.5 -43.5q0 -17 18 -35l-47 -13q-43 18 -43 56q0 24 17.5 45t60.5 59q88 62 88 107q0 27 -31 48.5t-82 24.5q-52 0 -71 -24l-21 -39z" />
    <glyph glyph-name="ihoanga" unicode="&#x128;" horiz-adv-x="690" 
d="M442 1165v-919q0 -125 19 -154q17 -28 86 -31l98 -6v-61q-159 6 -297 6q-142 0 -303 -6v61l98 6q69 3 86 31q19 29 19 154v919q0 125 -19 154q-17 28 -86 31l-98 6v61q160 -6 303 -6q138 0 297 6v-61l-98 -6q-69 -3 -86 -31q-19 -29 -19 -154zM598 1733h57
q-9 -66 -51 -119q-59 -74 -145 -74q-30 0 -56.5 6.5t-66 25.5t-45.5 21q-56 27 -88 27q-65 0 -97 -80h-53q15 83 67 132.5t132 49.5q32 0 68 -13.5t69 -29.5q82 -37 109 -37q45 6 64.5 26t35.5 65z" />
    <glyph glyph-name="ihoanang" unicode="&#x1eca;" horiz-adv-x="690" 
d="M442 1165v-919q0 -125 19 -154q17 -28 86 -31l98 -6v-61q-159 6 -297 6q-142 0 -303 -6v61l98 6q69 3 86 31q19 29 19 154v919q0 125 -19 154q-17 28 -86 31l-98 6v61q160 -6 303 -6q138 0 297 6v-61l-98 -6q-69 -3 -86 -31q-19 -29 -19 -154zM344 -139q40 0 71 -31
t31 -72q0 -39 -31.5 -69.5t-70.5 -30.5q-38 0 -69 31t-31 69q0 40 30.5 71.5t69.5 31.5z" />
    <glyph glyph-name="uthsac" horiz-adv-x="1235" 
d="M1030 952v-743q0 -90 10 -119q13 -26 66 -29l84 -6v-61q-34 2 -71.5 3.5t-48 2t-48.5 0.5q-39 0 -50 -0.5t-48.5 -2t-73.5 -3.5q8 114 8 188l-137 -127q-89 -80 -229 -80q-100 0 -161.5 29t-88.5 79.5t-33 104.5t-6 138v344q0 104 -15.5 126.5t-74.5 22.5h-76v58
q82 8 170 32.5t149 51.5l19 -9v-604q0 -87 17.5 -140t65.5 -80.5t140 -27.5q64 0 124 37.5t98 93.5t38 105v334q0 103 -14 127q-18 22 -76 22h-76v58q82 8 168.5 32.5t151.5 51.5zM535 1083l258 252q58 60 94 60q27 0 42 -17t15 -47q0 -27 -17 -42.5t-55 -39.5l-264 -166
h-73z" />
    <glyph glyph-name="uthhuyen" horiz-adv-x="1235" 
d="M1030 952v-743q0 -90 10 -119q13 -26 66 -29l84 -6v-61q-34 2 -71.5 3.5t-48 2t-48.5 0.5q-39 0 -50 -0.5t-48.5 -2t-73.5 -3.5q8 114 8 188l-137 -127q-89 -80 -229 -80q-100 0 -161.5 29t-88.5 79.5t-33 104.5t-6 138v344q0 104 -15.5 126.5t-74.5 22.5h-76v58
q82 8 170 32.5t149 51.5l19 -9v-604q0 -87 17.5 -140t65.5 -80.5t140 -27.5q64 0 124 37.5t98 93.5t38 105v334q0 103 -14 127q-18 22 -76 22h-76v58q82 8 168.5 32.5t151.5 51.5zM702 1094l-260 168q-35 21 -53 37.5t-18 43.5q0 29 15 46.5t42 17.5q35 0 94 -59l254 -254
h-74z" />
    <glyph glyph-name="uthhoi" unicode="&#x1ee7;" horiz-adv-x="1235" 
d="M1030 952v-743q0 -90 10 -119q13 -26 66 -29l84 -6v-61q-34 2 -71.5 3.5t-48 2t-48.5 0.5q-39 0 -50 -0.5t-48.5 -2t-73.5 -3.5q8 114 8 188l-137 -127q-89 -80 -229 -80q-100 0 -161.5 29t-88.5 79.5t-33 104.5t-6 138v344q0 104 -15.5 126.5t-74.5 22.5h-76v58
q82 8 170 32.5t149 51.5l19 -9v-604q0 -87 17.5 -140t65.5 -80.5t140 -27.5q64 0 124 37.5t98 93.5t38 105v334q0 103 -14 127q-18 22 -76 22h-76v58q82 8 168.5 32.5t151.5 51.5zM469 1376l45 92q65 25 127 25q83 0 141 -33t58 -92q0 -36 -28 -64.5t-79 -64.5
q-57 -40 -81.5 -60.5t-24.5 -43.5q0 -17 18 -35l-47 -13q-43 18 -43 56q0 24 17.5 45t60.5 59q88 62 88 107q0 28 -30 49t-83 24q-52 0 -71 -24l-21 -39z" />
    <glyph glyph-name="uthnga" unicode="&#x169;" horiz-adv-x="1235" 
d="M1030 952v-743q0 -90 10 -119q13 -26 66 -29l84 -6v-61q-34 2 -71.5 3.5t-48 2t-48.5 0.5q-39 0 -50 -0.5t-48.5 -2t-73.5 -3.5q8 114 8 188l-137 -127q-89 -80 -229 -80q-100 0 -161.5 29t-88.5 79.5t-33 104.5t-6 138v344q0 104 -15.5 126.5t-74.5 22.5h-76v58
q82 8 170 32.5t149 51.5l19 -9v-604q0 -87 17.5 -140t65.5 -80.5t140 -27.5q64 0 124 37.5t98 93.5t38 105v334q0 103 -14 127q-18 22 -76 22h-76v58q82 8 168.5 32.5t151.5 51.5zM887 1276h57q-9 -66 -51 -119q-59 -74 -145 -74q-30 0 -56.5 6.5t-51.5 18.5l-60 29
q-60 26 -88 26q-65 0 -97 -80h-53q14 82 66 132.5t133 50.5q34 0 59 -9.5t78 -33.5q76 -37 108 -37q43 4 64 25t37 65z" />
    <glyph glyph-name="uthnang" unicode="&#x1ee5;" horiz-adv-x="1235" 
d="M1030 952v-743q0 -90 10 -119q13 -26 66 -29l84 -6v-61q-34 2 -71.5 3.5t-48 2t-48.5 0.5q-39 0 -50 -0.5t-48.5 -2t-73.5 -3.5q8 114 8 188l-137 -127q-89 -80 -229 -80q-100 0 -161.5 29t-88.5 79.5t-33 104.5t-6 138v344q0 104 -15.5 126.5t-74.5 22.5h-76v58
q82 8 170 32.5t149 51.5l19 -9v-604q0 -87 17.5 -140t65.5 -80.5t140 -27.5q64 0 124 37.5t98 93.5t38 105v334q0 103 -14 127q-18 22 -76 22h-76v58q82 8 168.5 32.5t151.5 51.5zM612 -147q42 0 72.5 -31.5t30.5 -71.5q0 -39 -31.5 -69.5t-71.5 -30.5q-38 0 -69 31t-31 69
q0 39 30 71t70 32z" />
    <glyph glyph-name="uhoasac" horiz-adv-x="1593" 
d="M227 438v727q0 124 -18 154q-17 28 -86 31l-98 6v61q51 -2 152 -4t151 -2q46 0 146 2t151 4v-61l-99 -6q-68 -3 -86 -31q-18 -30 -18 -154v-704q0 -140 48 -223.5t139.5 -117.5t234.5 -34q190 0 306 94t116 330v655q0 125 -19 154q-9 15 -29 21.5t-57 9.5l-90 6v61
q82 -2 142 -4t96 -2q41 0 101.5 2t143.5 4v-61l-90 -6q-38 -3 -56.5 -9.5t-29.5 -21.5q-18 -30 -18 -154v-592q0 -167 -32.5 -281.5t-101.5 -188.5t-179 -109t-267 -35q-133 0 -235 23t-173.5 78t-108 148.5t-36.5 229.5zM803 1540l258 252q57 59 94 59q28 0 42.5 -17
t14.5 -46q0 -26 -18 -43.5t-53 -38.5l-264 -166h-74z" />
    <glyph glyph-name="uhoahuyen" horiz-adv-x="1593" 
d="M227 438v727q0 124 -18 154q-17 28 -86 31l-98 6v61q51 -2 152 -4t151 -2q46 0 146 2t151 4v-61l-99 -6q-68 -3 -86 -31q-18 -30 -18 -154v-704q0 -140 48 -223.5t139.5 -117.5t234.5 -34q190 0 306 94t116 330v655q0 125 -19 154q-9 15 -29 21.5t-57 9.5l-90 6v61
q82 -2 142 -4t96 -2q41 0 101.5 2t143.5 4v-61l-90 -6q-38 -3 -56.5 -9.5t-29.5 -21.5q-18 -30 -18 -154v-592q0 -167 -32.5 -281.5t-101.5 -188.5t-179 -109t-267 -35q-133 0 -235 23t-173.5 78t-108 148.5t-36.5 229.5zM940 1561l-260 168q-36 22 -54 38t-18 43
q0 29 15.5 46.5t42.5 17.5q33 0 94 -59l254 -254h-74z" />
    <glyph glyph-name="uhoahoi" unicode="&#x1ee6;" horiz-adv-x="1593" 
d="M227 438v727q0 124 -18 154q-17 28 -86 31l-98 6v61q51 -2 152 -4t151 -2q46 0 146 2t151 4v-61l-99 -6q-68 -3 -86 -31q-18 -30 -18 -154v-704q0 -140 48 -223.5t139.5 -117.5t234.5 -34q190 0 306 94t116 330v655q0 125 -19 154q-9 15 -29 21.5t-57 9.5l-90 6v61
q82 -2 142 -4t96 -2q41 0 101.5 2t143.5 4v-61l-90 -6q-38 -3 -56.5 -9.5t-29.5 -21.5q-18 -30 -18 -154v-592q0 -167 -32.5 -281.5t-101.5 -188.5t-179 -109t-267 -35q-133 0 -235 23t-173.5 78t-108 148.5t-36.5 229.5zM717 1823l45 92q67 24 127 24q84 0 141 -32t57 -92
q0 -36 -28.5 -66.5t-77.5 -62.5q-57 -40 -82 -61t-25 -44q0 -16 19 -35l-47 -12q-43 16 -43 55q0 24 18 45.5t60 59.5q88 60 88 106q0 28 -31 49.5t-82 24.5q-52 0 -72 -25l-20 -39z" />
    <glyph glyph-name="uhoanga" unicode="&#x168;" horiz-adv-x="1593" 
d="M227 438v727q0 124 -18 154q-17 28 -86 31l-98 6v61q51 -2 152 -4t151 -2q46 0 146 2t151 4v-61l-99 -6q-68 -3 -86 -31q-18 -30 -18 -154v-704q0 -140 48 -223.5t139.5 -117.5t234.5 -34q190 0 306 94t116 330v655q0 125 -19 154q-9 15 -29 21.5t-57 9.5l-90 6v61
q82 -2 142 -4t96 -2q41 0 101.5 2t143.5 4v-61l-90 -6q-38 -3 -56.5 -9.5t-29.5 -21.5q-18 -30 -18 -154v-592q0 -167 -32.5 -281.5t-101.5 -188.5t-179 -109t-267 -35q-133 0 -235 23t-173.5 78t-108 148.5t-36.5 229.5zM1165 1722h58q-9 -64 -52 -118q-57 -74 -145 -74
q-30 0 -54.5 5.5t-58 21.5l-55.5 26q-59 27 -88 27q-66 0 -96 -80h-53q14 83 66 132.5t132 49.5q32 0 68 -13.5t69 -29.5q82 -37 109 -37q44 4 64 25t36 65z" />
    <glyph glyph-name="uhoanang" unicode="&#x1ee4;" horiz-adv-x="1593" 
d="M227 438v727q0 124 -18 154q-17 28 -86 31l-98 6v61q51 -2 152 -4t151 -2q46 0 146 2t151 4v-61l-99 -6q-68 -3 -86 -31q-18 -30 -18 -154v-704q0 -140 48 -223.5t139.5 -117.5t234.5 -34q190 0 306 94t116 330v655q0 125 -19 154q-9 15 -29 21.5t-57 9.5l-90 6v61
q82 -2 142 -4t96 -2q41 0 101.5 2t143.5 4v-61l-90 -6q-38 -3 -56.5 -9.5t-29.5 -21.5q-18 -30 -18 -154v-592q0 -167 -32.5 -281.5t-101.5 -188.5t-179 -109t-267 -35q-133 0 -235 23t-173.5 78t-108 148.5t-36.5 229.5zM788 -143q42 0 72.5 -31.5t30.5 -71.5
q0 -39 -31.5 -69.5t-71.5 -30.5q-38 0 -69 31t-31 69q0 39 30 71t70 32z" />
    <glyph glyph-name="ythsac" horiz-adv-x="1139" 
d="M608 176l244 598q12 31 12 49q0 48 -86 56l-53 4v57q64 -2 113.5 -4t81.5 -2q33 0 80.5 2t113.5 4v-57l-57 -4q-37 -3 -75.5 -59t-96.5 -189l-416 -959q-37 -83 -75.5 -137t-95.5 -84.5t-140 -30.5q-52 0 -103 31l49 154h27q20 -18 53 -32.5t52 -14.5q55 4 96.5 46.5
t68.5 95t58 126.5l47 125q-35 97 -115 291l-223 536q-22 54 -47 76t-60 25l-36 4v57q78 -2 138 -4t99 -2q41 0 100.5 2t137.5 4v-57l-78 -4q-68 -3 -68 -54q0 -36 19 -80l131 -344q45 -123 104 -225zM522 1063l258 252q61 59 94 59q28 0 43 -17t15 -46q0 -26 -19 -44.5
t-53 -37.5l-264 -166h-74z" />
    <glyph glyph-name="ythhuyen" unicode="&#x1ef3;" horiz-adv-x="1139" 
d="M608 176l244 598q12 31 12 49q0 48 -86 56l-53 4v57q64 -2 113.5 -4t81.5 -2q33 0 80.5 2t113.5 4v-57l-57 -4q-37 -3 -75.5 -59t-96.5 -189l-416 -959q-37 -83 -75.5 -137t-95.5 -84.5t-140 -30.5q-52 0 -103 31l49 154h27q20 -18 53 -32.5t52 -14.5q55 4 96.5 46.5
t68.5 95t58 126.5l47 125q-35 97 -115 291l-223 536q-22 54 -47 76t-60 25l-36 4v57q78 -2 138 -4t99 -2q41 0 100.5 2t137.5 4v-57l-78 -4q-68 -3 -68 -54q0 -36 19 -80l131 -344q45 -123 104 -225zM721 1063l-260 168q-36 22 -54 39t-18 43q0 28 15 45.5t42 17.5
q34 0 95 -59l254 -254h-74z" />
    <glyph glyph-name="ythhoi" unicode="&#x1ef7;" horiz-adv-x="1139" 
d="M608 176l244 598q12 31 12 49q0 48 -86 56l-53 4v57q64 -2 113.5 -4t81.5 -2q33 0 80.5 2t113.5 4v-57l-57 -4q-37 -3 -75.5 -59t-96.5 -189l-416 -959q-37 -83 -75.5 -137t-95.5 -84.5t-140 -30.5q-52 0 -103 31l49 154h27q20 -18 53 -32.5t52 -14.5q55 4 96.5 46.5
t68.5 95t58 126.5l47 125q-35 97 -115 291l-223 536q-22 54 -47 76t-60 25l-36 4v57q78 -2 138 -4t99 -2q41 0 100.5 2t137.5 4v-57l-78 -4q-68 -3 -68 -54q0 -36 19 -80l131 -344q45 -123 104 -225zM477 1325l45 92q65 25 127 25q83 0 141 -33t58 -92q0 -35 -26.5 -63
t-80.5 -66q-57 -40 -81.5 -60.5t-24.5 -44.5q0 -16 18 -34l-47 -13q-43 18 -43 56q0 23 18 44.5t60 59.5q88 62 88 107q0 27 -31 48.5t-82 24.5q-52 0 -71 -24l-21 -39z" />
    <glyph glyph-name="ythnga" unicode="&#x1ef9;" horiz-adv-x="1139" 
d="M608 176l244 598q12 31 12 49q0 48 -86 56l-53 4v57q64 -2 113.5 -4t81.5 -2q33 0 80.5 2t113.5 4v-57l-57 -4q-37 -3 -75.5 -59t-96.5 -189l-416 -959q-37 -83 -75.5 -137t-95.5 -84.5t-140 -30.5q-52 0 -103 31l49 154h27q20 -18 53 -32.5t52 -14.5q55 4 96.5 46.5
t68.5 95t58 126.5l47 125q-35 97 -115 291l-223 536q-22 54 -47 76t-60 25l-36 4v57q78 -2 138 -4t99 -2q41 0 100.5 2t137.5 4v-57l-78 -4q-68 -3 -68 -54q0 -36 19 -80l131 -344q45 -123 104 -225zM885 1255h57q-9 -65 -51 -118q-59 -74 -146 -74q-31 0 -55.5 6t-50.5 18
l-61 29q-62 27 -89 27q-64 0 -96 -80h-53q14 83 66 132.5t133 49.5q32 0 68 -13.5t69 -29.5q82 -37 108 -37q43 4 64 25t37 65z" />
    <glyph glyph-name="ythnang" unicode="&#x1ef5;" horiz-adv-x="1139" 
d="M608 176l244 598q12 31 12 49q0 48 -86 56l-53 4v57q64 -2 113.5 -4t81.5 -2q33 0 80.5 2t113.5 4v-57l-57 -4q-37 -3 -75.5 -59t-96.5 -189l-416 -959q-37 -83 -75.5 -137t-95.5 -84.5t-140 -30.5q-52 0 -103 31l49 154h27q20 -18 53 -32.5t52 -14.5q55 4 96.5 46.5
t68.5 95t58 126.5l47 125q-35 97 -115 291l-223 536q-22 54 -47 76t-60 25l-36 4v57q78 -2 138 -4t99 -2q41 0 100.5 2t137.5 4v-57l-78 -4q-68 -3 -68 -54q0 -36 19 -80l131 -344q45 -123 104 -225zM774 -375q40 0 71.5 -30.5t31.5 -71.5t-31.5 -71t-71.5 -30
q-39 0 -69.5 30.5t-30.5 70.5q0 39 30.5 70.5t69.5 31.5z" />
    <glyph glyph-name="yhoasac" horiz-adv-x="1366" 
d="M451 1233l292 -535l211 334l75.5 124.5t80.5 140.5l66 124h163v-30q-85 -98 -189 -237.5t-188.5 -270.5t-125.5 -219q-29 -63 -29 -154v-264q0 -124 18 -154q18 -28 86 -31l99 -6v-61q-160 6 -297 6q-144 0 -303 -6v61l98 6q69 3 86 31q18 30 18 154v291q0 51 -18 81
l-254 443q-51 86 -100.5 145t-91.5 88.5t-70 32.5l-60 6v60l236 49q31 0 52.5 -18t53.5 -58q55 -67 91 -133zM621 1544l258 252q57 59 94 59q28 0 42.5 -17t14.5 -46q0 -27 -17 -42.5t-55 -39.5l-264 -166h-73z" />
    <glyph glyph-name="yhoahuyen" unicode="&#x1ef2;" horiz-adv-x="1366" 
d="M451 1233l292 -535l211 334l75.5 124.5t80.5 140.5l66 124h163v-30q-85 -98 -189 -237.5t-188.5 -270.5t-125.5 -219q-29 -63 -29 -154v-264q0 -124 18 -154q18 -28 86 -31l99 -6v-61q-160 6 -297 6q-144 0 -303 -6v61l98 6q69 3 86 31q18 30 18 154v291q0 51 -18 81
l-254 443q-51 86 -100.5 145t-91.5 88.5t-70 32.5l-60 6v60l236 49q31 0 52.5 -18t53.5 -58q55 -67 91 -133zM870 1565l-260 168q-35 21 -53 38.5t-18 43.5q0 28 15 45.5t42 17.5q35 0 94 -59l254 -254h-74z" />
    <glyph glyph-name="yhoahoi" unicode="&#x1ef6;" horiz-adv-x="1366" 
d="M451 1233l292 -535l211 334l75.5 124.5t80.5 140.5l66 124h163v-30q-85 -98 -189 -237.5t-188.5 -270.5t-125.5 -219q-29 -63 -29 -154v-264q0 -124 18 -154q18 -28 86 -31l99 -6v-61q-160 6 -297 6q-144 0 -303 -6v61l98 6q69 3 86 31q18 30 18 154v291q0 51 -18 81
l-254 443q-51 86 -100.5 145t-91.5 88.5t-70 32.5l-60 6v60l236 49q31 0 52.5 -18t53.5 -58q55 -67 91 -133zM627 1837l45 92q65 25 127 25q84 0 141 -33t57 -92q0 -35 -27.5 -64t-78.5 -65q-57 -40 -82 -61t-25 -44q0 -15 19 -34l-47 -13q-43 18 -43 56q0 23 18 44.5
t60 59.5q88 62 88 107q0 27 -31 48.5t-82 24.5q-52 0 -72 -24l-20 -39z" />
    <glyph glyph-name="yhoanga" unicode="&#x1ef8;" horiz-adv-x="1366" 
d="M451 1233l292 -535l211 334l75.5 124.5t80.5 140.5l66 124h163v-30q-85 -98 -189 -237.5t-188.5 -270.5t-125.5 -219q-29 -63 -29 -154v-264q0 -124 18 -154q18 -28 86 -31l99 -6v-61q-160 6 -297 6q-144 0 -303 -6v61l98 6q69 3 86 31q18 30 18 154v291q0 51 -18 81
l-254 443q-51 86 -100.5 145t-91.5 88.5t-70 32.5l-60 6v60l236 49q31 0 52.5 -18t53.5 -58q55 -67 91 -133zM973 1767h57q-9 -65 -51 -118q-59 -74 -145 -74q-30 0 -55.5 6t-51.5 18l-61 29q-62 27 -88 27q-65 0 -97 -80h-53q14 83 66 132.5t133 49.5q32 0 68 -13.5
t69 -29.5q82 -37 108 -37q43 4 64 25t37 65z" />
    <glyph glyph-name="yhoanang" unicode="&#x1ef4;" horiz-adv-x="1366" 
d="M451 1233l292 -535l211 334l75.5 124.5t80.5 140.5l66 124h163v-30q-85 -98 -189 -237.5t-188.5 -270.5t-125.5 -219q-29 -63 -29 -154v-264q0 -124 18 -154q18 -28 86 -31l99 -6v-61q-160 6 -297 6q-144 0 -303 -6v61l98 6q69 3 86 31q18 30 18 154v291q0 51 -18 81
l-254 443q-51 86 -100.5 145t-91.5 88.5t-70 32.5l-60 6v60l236 49q31 0 52.5 -18t53.5 -58q55 -67 91 -133zM709 -160q40 0 71 -31t31 -71q0 -39 -31.5 -69.5t-70.5 -30.5t-70 31t-31 69q0 39 30.5 70.5t70.5 31.5z" />
    <glyph glyph-name="octhsac" unicode="&#x1edb;" horiz-adv-x="1118" 
d="M516 -41q-97 0 -180.5 36t-145 102t-93 153.5t-31.5 187.5q0 155 62 273t180.5 184t279.5 66q108 0 199.5 -45.5t152.5 -119t86 -151.5q31 13 47.5 94.5t16.5 194.5q10 1 131 27q0 -79 -29.5 -170t-71 -152t-76.5 -61q9 -30 9 -84q0 -153 -69 -276t-191 -191t-277 -68z
M541 893q-152 0 -218.5 -103t-66.5 -264q0 -87 17.5 -173.5t57 -160.5t106.5 -119.5t159 -45.5q131 0 198.5 110t67.5 266q0 132 -39.5 244.5t-113.5 179t-168 66.5zM399 1073l258 252q59 59 95 59q27 0 42 -17t15 -46q0 -26 -19 -44.5t-53 -37.5l-264 -166h-74z" />
    <glyph glyph-name="octhhuyen" unicode="&#x1edd;" horiz-adv-x="1118" 
d="M516 -41q-97 0 -180.5 36t-145 102t-93 153.5t-31.5 187.5q0 155 62 273t180.5 184t279.5 66q108 0 199.5 -45.5t152.5 -119t86 -151.5q31 13 47.5 94.5t16.5 194.5q10 1 131 27q0 -79 -29.5 -170t-71 -152t-76.5 -61q9 -30 9 -84q0 -153 -69 -276t-191 -191t-277 -68z
M541 893q-152 0 -218.5 -103t-66.5 -264q0 -87 17.5 -173.5t57 -160.5t106.5 -119.5t159 -45.5q131 0 198.5 110t67.5 266q0 132 -39.5 244.5t-113.5 179t-168 66.5zM690 1053l-260 168q-36 22 -54 39t-18 43q0 28 15.5 45.5t42.5 17.5q33 0 94 -59l254 -254h-74z" />
    <glyph glyph-name="octhhoi" unicode="&#x1edf;" horiz-adv-x="1118" 
d="M516 -41q-97 0 -180.5 36t-145 102t-93 153.5t-31.5 187.5q0 155 62 273t180.5 184t279.5 66q108 0 199.5 -45.5t152.5 -119t86 -151.5q31 13 47.5 94.5t16.5 194.5q10 1 131 27q0 -79 -29.5 -170t-71 -152t-76.5 -61q9 -30 9 -84q0 -153 -69 -276t-191 -191t-277 -68z
M541 893q-152 0 -218.5 -103t-66.5 -264q0 -87 17.5 -173.5t57 -160.5t106.5 -119.5t159 -45.5q131 0 198.5 110t67.5 266q0 132 -39.5 244.5t-113.5 179t-168 66.5zM416 1346l45 92q67 24 127 24q84 0 141 -33t57 -92q0 -35 -27.5 -64t-78.5 -65q-57 -40 -82 -61t-25 -43
q0 -16 19 -35l-47 -12q-43 16 -43 55q0 24 18 45.5t60 59.5q88 60 88 106q0 28 -31 49.5t-82 24.5q-52 0 -72 -25l-20 -39z" />
    <glyph glyph-name="octhnga" unicode="&#x1ee1;" horiz-adv-x="1118" 
d="M516 -41q-97 0 -180.5 36t-145 102t-93 153.5t-31.5 187.5q0 155 62 273t180.5 184t279.5 66q108 0 199.5 -45.5t152.5 -119t86 -151.5q31 13 47.5 94.5t16.5 194.5q10 1 131 27q0 -79 -29.5 -170t-71 -152t-76.5 -61q9 -30 9 -84q0 -153 -69 -276t-191 -191t-277 -68z
M541 893q-152 0 -218.5 -103t-66.5 -264q0 -87 17.5 -173.5t57 -160.5t106.5 -119.5t159 -45.5q131 0 198.5 110t67.5 266q0 132 -39.5 244.5t-113.5 179t-168 66.5zM803 1255h57q-9 -65 -51 -118q-59 -74 -145 -74q-30 0 -55.5 6t-51.5 18l-61 29q-62 27 -88 27
q-65 0 -97 -80h-53q14 83 66 132.5t133 49.5q32 0 68 -13.5t69 -29.5q82 -37 108 -37q43 4 64 25t37 65z" />
    <glyph glyph-name="octhnang" unicode="&#x1ee3;" horiz-adv-x="1118" 
d="M516 -41q-97 0 -180.5 36t-145 102t-93 153.5t-31.5 187.5q0 155 62 273t180.5 184t279.5 66q108 0 199.5 -45.5t152.5 -119t86 -151.5q31 13 47.5 94.5t16.5 194.5q10 1 131 27q0 -79 -29.5 -170t-71 -152t-76.5 -61q9 -30 9 -84q0 -153 -69 -276t-191 -191t-277 -68z
M541 893q-152 0 -218.5 -103t-66.5 -264q0 -87 17.5 -173.5t57 -160.5t106.5 -119.5t159 -45.5q131 0 198.5 110t67.5 266q0 132 -39.5 244.5t-113.5 179t-168 66.5zM559 -143q41 0 72 -31t31 -72q0 -40 -32 -70t-71 -30q-38 0 -69 31t-31 69q0 39 30 71t70 32z" />
    <glyph glyph-name="ochoasac" unicode="&#x1eda;" horiz-adv-x="1618" 
d="M768 -41q-207 0 -373.5 91.5t-260 260.5t-93.5 394q0 208 94 379.5t269.5 269.5t406.5 98q165 -1 301 -47t226.5 -118.5t136.5 -153.5q24 11 40 51t24.5 105.5t8.5 133.5q14 1 54.5 10.5t76.5 16.5q0 -79 -29 -170t-71 -152t-76 -61q23 -38 40.5 -118t17.5 -197
q0 -217 -104.5 -399t-286.5 -288t-402 -106zM778 1366q-132 0 -229.5 -43.5t-161.5 -122.5t-95.5 -184.5t-31.5 -235.5q0 -137 33.5 -267.5t105 -237.5t181.5 -168.5t254 -61.5q125 0 221.5 47t159.5 132t94.5 202.5t31.5 261.5q0 317 -142.5 497.5t-420.5 180.5zM682 1565
l258 252q61 59 94 59q27 0 42.5 -17t15.5 -47q0 -27 -19 -44.5t-53 -36.5l-264 -166h-74z" />
    <glyph glyph-name="ochoahuyen" unicode="&#x1edc;" horiz-adv-x="1618" 
d="M768 -41q-207 0 -373.5 91.5t-260 260.5t-93.5 394q0 208 94 379.5t269.5 269.5t406.5 98q165 -1 301 -47t226.5 -118.5t136.5 -153.5q24 11 40 51t24.5 105.5t8.5 133.5q14 1 54.5 10.5t76.5 16.5q0 -79 -29 -170t-71 -152t-76 -61q23 -38 40.5 -118t17.5 -197
q0 -217 -104.5 -399t-286.5 -288t-402 -106zM778 1366q-132 0 -229.5 -43.5t-161.5 -122.5t-95.5 -184.5t-31.5 -235.5q0 -137 33.5 -267.5t105 -237.5t181.5 -168.5t254 -61.5q125 0 221.5 47t159.5 132t94.5 202.5t31.5 261.5q0 317 -142.5 497.5t-420.5 180.5zM922 1554
l-260 168q-43 29 -57.5 42t-14.5 40q0 29 15 46.5t42 17.5q36 0 94 -60l254 -254h-73z" />
    <glyph glyph-name="ochoahoi" unicode="&#x1ede;" horiz-adv-x="1618" 
d="M768 -41q-207 0 -373.5 91.5t-260 260.5t-93.5 394q0 208 94 379.5t269.5 269.5t406.5 98q165 -1 301 -47t226.5 -118.5t136.5 -153.5q24 11 40 51t24.5 105.5t8.5 133.5q14 1 54.5 10.5t76.5 16.5q0 -79 -29 -170t-71 -152t-76 -61q23 -38 40.5 -118t17.5 -197
q0 -217 -104.5 -399t-286.5 -288t-402 -106zM778 1366q-132 0 -229.5 -43.5t-161.5 -122.5t-95.5 -184.5t-31.5 -235.5q0 -137 33.5 -267.5t105 -237.5t181.5 -168.5t254 -61.5q125 0 221.5 47t159.5 132t94.5 202.5t31.5 261.5q0 317 -142.5 497.5t-420.5 180.5zM698 1837
l45 92q65 25 127 25q83 0 141 -33t58 -92q0 -35 -27.5 -64t-78.5 -65q-54 -36 -80.5 -58.5t-26.5 -46.5q0 -16 18 -34l-47 -13q-43 18 -43 56q0 23 18 44.5t60 59.5q88 62 88 107q0 27 -30.5 48.5t-81.5 24.5q-53 0 -72 -24l-21 -39z" />
    <glyph glyph-name="ochoanga" unicode="&#x1ee0;" horiz-adv-x="1618" 
d="M768 -41q-207 0 -373.5 91.5t-260 260.5t-93.5 394q0 208 94 379.5t269.5 269.5t406.5 98q165 -1 301 -47t226.5 -118.5t136.5 -153.5q24 11 40 51t24.5 105.5t8.5 133.5q14 1 54.5 10.5t76.5 16.5q0 -79 -29 -170t-71 -152t-76 -61q23 -38 40.5 -118t17.5 -197
q0 -217 -104.5 -399t-286.5 -288t-402 -106zM778 1366q-132 0 -229.5 -43.5t-161.5 -122.5t-95.5 -184.5t-31.5 -235.5q0 -137 33.5 -267.5t105 -237.5t181.5 -168.5t254 -61.5q125 0 221.5 47t159.5 132t94.5 202.5t31.5 261.5q0 317 -142.5 497.5t-420.5 180.5zM1044 1747
h58q-8 -64 -51 -119q-59 -74 -146 -74q-30 0 -55.5 6t-58 22l-54.5 26q-57 26 -88 26q-66 0 -96 -80h-53q14 82 66 132.5t132 50.5q34 0 60.5 -10t77.5 -33q74 -37 108 -37q43 4 63 24t37 66z" />
    <glyph glyph-name="ochoanang" unicode="&#x1ee2;" horiz-adv-x="1618" 
d="M768 -41q-207 0 -373.5 91.5t-260 260.5t-93.5 394q0 208 94 379.5t269.5 269.5t406.5 98q165 -1 301 -47t226.5 -118.5t136.5 -153.5q24 11 40 51t24.5 105.5t8.5 133.5q14 1 54.5 10.5t76.5 16.5q0 -79 -29 -170t-71 -152t-76 -61q23 -38 40.5 -118t17.5 -197
q0 -217 -104.5 -399t-286.5 -288t-402 -106zM778 1366q-132 0 -229.5 -43.5t-161.5 -122.5t-95.5 -184.5t-31.5 -235.5q0 -137 33.5 -267.5t105 -237.5t181.5 -168.5t254 -61.5q125 0 221.5 47t159.5 132t94.5 202.5t31.5 261.5q0 317 -142.5 497.5t-420.5 180.5zM801 -143
q41 0 71.5 -31.5t30.5 -71.5q0 -39 -31.5 -69.5t-70.5 -30.5q-40 0 -70.5 30.5t-30.5 69.5q0 40 30 71.5t71 31.5z" />
    <glyph glyph-name="ucthsac" unicode="&#x1ee9;" horiz-adv-x="1235" 
d="M1030 952h2v-315q14 0 35 44t36 112.5t15 140.5q24 1 142 27q0 -87 -41.5 -182.5t-97.5 -159.5t-91 -64v-346q0 -90 10 -119q13 -26 66 -29l84 -6v-61q-34 2 -71.5 3.5t-48 2t-48.5 0.5q-39 0 -50 -0.5t-48.5 -2t-73.5 -3.5q8 114 8 188l-137 -127q-89 -80 -229 -80
q-100 0 -161.5 29t-88.5 79.5t-33 104.5t-6 138v344q0 104 -15.5 126.5t-74.5 22.5h-76v58q82 8 170 32.5t149 51.5l19 -9v-604q0 -87 17.5 -140t65.5 -80.5t140 -27.5q64 0 124 37.5t98 93.5t38 105v334q0 103 -14 127q-18 22 -76 22h-76v58q82 8 168.5 32.5t151.5 51.5z
M588 1069l258 252q57 59 94 59q28 0 42.5 -17t14.5 -46q0 -26 -18 -43.5t-53 -38.5l-264 -166h-74z" />
    <glyph glyph-name="ucthhuyen" unicode="&#x1eeb;" horiz-adv-x="1235" 
d="M1030 952h2v-315q14 0 35 44t36 112.5t15 140.5q24 1 142 27q0 -87 -41.5 -182.5t-97.5 -159.5t-91 -64v-346q0 -90 10 -119q13 -26 66 -29l84 -6v-61q-34 2 -71.5 3.5t-48 2t-48.5 0.5q-39 0 -50 -0.5t-48.5 -2t-73.5 -3.5q8 114 8 188l-137 -127q-89 -80 -229 -80
q-100 0 -161.5 29t-88.5 79.5t-33 104.5t-6 138v344q0 104 -15.5 126.5t-74.5 22.5h-76v58q82 8 170 32.5t149 51.5l19 -9v-604q0 -87 17.5 -140t65.5 -80.5t140 -27.5q64 0 124 37.5t98 93.5t38 105v334q0 103 -14 127q-18 22 -76 22h-76v58q82 8 168.5 32.5t151.5 51.5z
M684 1069l-260 168q-36 22 -54 39t-18 43q0 28 15 45.5t43 17.5q35 0 94 -59l254 -254h-74z" />
    <glyph glyph-name="ucthhoi" unicode="&#x1eed;" horiz-adv-x="1235" 
d="M1030 952h2v-315q14 0 35 44t36 112.5t15 140.5q24 1 142 27q0 -87 -41.5 -182.5t-97.5 -159.5t-91 -64v-346q0 -90 10 -119q13 -26 66 -29l84 -6v-61q-34 2 -71.5 3.5t-48 2t-48.5 0.5q-39 0 -50 -0.5t-48.5 -2t-73.5 -3.5q8 114 8 188l-137 -127q-89 -80 -229 -80
q-100 0 -161.5 29t-88.5 79.5t-33 104.5t-6 138v344q0 104 -15.5 126.5t-74.5 22.5h-76v58q82 8 170 32.5t149 51.5l19 -9v-604q0 -87 17.5 -140t65.5 -80.5t140 -27.5q64 0 124 37.5t98 93.5t38 105v334q0 103 -14 127q-18 22 -76 22h-76v58q82 8 168.5 32.5t151.5 51.5z
M502 1362l45 92q70 25 127 25q84 0 141 -33t57 -92q0 -36 -26 -63.5t-80 -65.5q-57 -40 -82 -61t-25 -44q0 -14 19 -35l-47 -12q-43 16 -43 55q0 24 18 45.5t60 59.5q45 32 66.5 55.5t21.5 50.5q0 28 -31 49.5t-82 24.5q-52 0 -72 -24l-20 -39z" />
    <glyph glyph-name="ucthnga" unicode="&#x1eef;" horiz-adv-x="1235" 
d="M1030 952h2v-315q14 0 35 44t36 112.5t15 140.5q24 1 142 27q0 -87 -41.5 -182.5t-97.5 -159.5t-91 -64v-346q0 -90 10 -119q13 -26 66 -29l84 -6v-61q-34 2 -71.5 3.5t-48 2t-48.5 0.5q-39 0 -50 -0.5t-48.5 -2t-73.5 -3.5q8 114 8 188l-137 -127q-89 -80 -229 -80
q-100 0 -161.5 29t-88.5 79.5t-33 104.5t-6 138v344q0 104 -15.5 126.5t-74.5 22.5h-76v58q82 8 170 32.5t149 51.5l19 -9v-604q0 -87 17.5 -140t65.5 -80.5t140 -27.5q64 0 124 37.5t98 93.5t38 105v334q0 103 -14 127q-18 22 -76 22h-76v58q82 8 168.5 32.5t151.5 51.5z
M920 1272h57q-8 -64 -51 -119q-59 -74 -146 -74q-31 0 -57 6.5t-57.5 22l-53.5 25.5q-57 26 -88 26q-66 0 -96 -80h-53q14 82 66 132.5t132 50.5q34 0 60.5 -10t77.5 -33q74 -37 108 -37q43 4 64 25t37 65z" />
    <glyph glyph-name="ucthnang" unicode="&#x1ef1;" horiz-adv-x="1235" 
d="M1030 952h2v-315q14 0 35 44t36 112.5t15 140.5q24 1 142 27q0 -87 -41.5 -182.5t-97.5 -159.5t-91 -64v-346q0 -90 10 -119q13 -26 66 -29l84 -6v-61q-34 2 -71.5 3.5t-48 2t-48.5 0.5q-39 0 -50 -0.5t-48.5 -2t-73.5 -3.5q8 114 8 188l-137 -127q-89 -80 -229 -80
q-100 0 -161.5 29t-88.5 79.5t-33 104.5t-6 138v344q0 104 -15.5 126.5t-74.5 22.5h-76v58q82 8 170 32.5t149 51.5l19 -9v-604q0 -87 17.5 -140t65.5 -80.5t140 -27.5q64 0 124 37.5t98 93.5t38 105v334q0 103 -14 127q-18 22 -76 22h-76v58q82 8 168.5 32.5t151.5 51.5z
M655 -141q41 0 72 -31t31 -72q0 -39 -31.5 -69.5t-71.5 -30.5q-38 0 -69 31t-31 69q0 40 30.5 71.5t69.5 31.5z" />
    <glyph glyph-name="uchoasac" unicode="&#x1ee8;" horiz-adv-x="1593" 
d="M227 438v725q0 124 -18 154q-17 28 -86 31l-98 6v61h600v-61l-99 -6q-68 -3 -86 -31q-18 -30 -18 -154v-704q0 -140 48 -223.5t139.5 -117.5t234.5 -34q190 0 306 94t116 330v655q0 125 -19 154q-14 24 -86 31l-90 6v61h289v-332q15 2 36 46t36.5 113t15.5 140
q11 1 141 27q0 -86 -41.5 -182t-97 -159.5t-90.5 -63.5v-431q0 -167 -32.5 -281.5t-101.5 -188.5t-179 -109t-267 -35q-133 0 -235 23t-173.5 78t-108 148.5t-36.5 229.5zM803 1538l258 252q57 59 94 59q28 0 42.5 -17t14.5 -46q0 -26 -18 -43.5t-53 -38.5l-264 -166h-74z
" />
    <glyph glyph-name="uchoahuyen" unicode="&#x1eea;" horiz-adv-x="1593" 
d="M227 438v725q0 124 -18 154q-17 28 -86 31l-98 6v61h600v-61l-99 -6q-68 -3 -86 -31q-18 -30 -18 -154v-704q0 -140 48 -223.5t139.5 -117.5t234.5 -34q190 0 306 94t116 330v655q0 125 -19 154q-14 24 -86 31l-90 6v61h289v-332q15 2 36 46t36.5 113t15.5 140
q11 1 141 27q0 -86 -41.5 -182t-97 -159.5t-90.5 -63.5v-431q0 -167 -32.5 -281.5t-101.5 -188.5t-179 -109t-267 -35q-133 0 -235 23t-173.5 78t-108 148.5t-36.5 229.5zM940 1559l-260 167q-43 29 -57.5 42t-14.5 40q0 29 15.5 46.5t42.5 17.5q34 0 94 -60l254 -253h-74z
" />
    <glyph glyph-name="uchoahoi" unicode="&#x1eec;" horiz-adv-x="1593" 
d="M227 438v725q0 124 -18 154q-17 28 -86 31l-98 6v61h600v-61l-99 -6q-68 -3 -86 -31q-18 -30 -18 -154v-704q0 -140 48 -223.5t139.5 -117.5t234.5 -34q190 0 306 94t116 330v655q0 125 -19 154q-14 24 -86 31l-90 6v61h289v-332q15 2 36 46t36.5 113t15.5 140
q11 1 141 27q0 -86 -41.5 -182t-97 -159.5t-90.5 -63.5v-431q0 -167 -32.5 -281.5t-101.5 -188.5t-179 -109t-267 -35q-133 0 -235 23t-173.5 78t-108 148.5t-36.5 229.5zM717 1821l45 92q67 24 127 24q84 0 141 -33t57 -92q0 -35 -27.5 -64t-78.5 -65q-64 -44 -85.5 -62.5
t-21.5 -41.5q0 -16 19 -35l-47 -12q-43 16 -43 55q0 24 18 45.5t60 59.5q88 60 88 106q0 28 -31 49.5t-82 24.5q-52 0 -72 -25l-20 -39z" />
    <glyph glyph-name="uchoanga" unicode="&#x1eee;" horiz-adv-x="1593" 
d="M227 438v725q0 124 -18 154q-17 28 -86 31l-98 6v61h600v-61l-99 -6q-68 -3 -86 -31q-18 -30 -18 -154v-704q0 -140 48 -223.5t139.5 -117.5t234.5 -34q190 0 306 94t116 330v655q0 125 -19 154q-14 24 -86 31l-90 6v61h289v-332q15 2 36 46t36.5 113t15.5 140
q11 1 141 27q0 -86 -41.5 -182t-97 -159.5t-90.5 -63.5v-431q0 -167 -32.5 -281.5t-101.5 -188.5t-179 -109t-267 -35q-133 0 -235 23t-173.5 78t-108 148.5t-36.5 229.5zM1165 1720h58q-9 -66 -52 -118q-57 -74 -145 -74q-30 0 -54.5 5.5t-58 21.5l-55.5 26q-59 27 -88 27
q-66 0 -96 -80h-53q14 83 66 132.5t132 49.5q32 0 68 -13.5t69 -29.5q82 -37 109 -37q44 4 64 25t36 65z" />
    <glyph glyph-name="uchoanang" unicode="&#x1ef0;" horiz-adv-x="1593" 
d="M227 438v725q0 124 -18 154q-17 28 -86 31l-98 6v61h600v-61l-99 -6q-68 -3 -86 -31q-18 -30 -18 -154v-704q0 -140 48 -223.5t139.5 -117.5t234.5 -34q190 0 306 94t116 330v655q0 125 -19 154q-14 24 -86 31l-90 6v61h289v-332q15 2 36 46t36.5 113t15.5 140
q11 1 141 27q0 -86 -41.5 -182t-97 -159.5t-90.5 -63.5v-431q0 -167 -32.5 -281.5t-101.5 -188.5t-179 -109t-267 -35q-133 0 -235 23t-173.5 78t-108 148.5t-36.5 229.5zM788 -145q42 0 72.5 -31.5t30.5 -71.5q0 -39 -31.5 -69.5t-71.5 -30.5q-38 0 -69 31t-31 69
q0 39 30 71t70 32z" />
    <glyph glyph-name="aathsac" unicode="&#x1eaf;" 
d="M461 553l203 37q0 126 -63 194t-195 68q-67 0 -95.5 -8.5t-48.5 -34.5q-6 -8 -35 -68l-26 -63l-54 14v133l109 66q116 70 238 70q129 0 200.5 -40t102 -127.5t30.5 -240.5v-375q0 -56 7 -88q6 -28 51 -31l80 -4v-61q-34 2 -60 3t-43 2t-51 1q-35 0 -52.5 -1t-43.5 -2
t-62 -3l11 174l-254 -176q-24 -17 -95 -17q-109 0 -179 64.5t-70 183.5q0 109 55.5 176t139 99.5t200.5 54.5zM664 254v270q-181 -25 -299 -71q-52 -20 -87.5 -78t-35.5 -115q0 -52 22.5 -89.5t58.5 -58t78 -20.5q43 0 87 23t110 71q35 26 66 68zM264 1313h55
q0 -50 30.5 -88.5t77.5 -59t95 -20.5t95 20.5t77.5 59t30.5 88.5h55q0 -74 -30 -137t-88.5 -100.5t-139.5 -37.5q-120 0 -189 79.5t-69 195.5zM457 1374l258 252q58 60 94 60q27 0 42 -17t15 -47q0 -27 -15 -41t-56 -41l-265 -166h-73z" />
    <glyph glyph-name="aathhuyen" unicode="&#x1eb1;" 
d="M461 553l203 37q0 126 -63 194t-195 68q-67 0 -95.5 -8.5t-48.5 -34.5q-6 -8 -35 -68l-26 -63l-54 14v133l109 66q116 70 238 70q129 0 200.5 -40t102 -127.5t30.5 -240.5v-375q0 -56 7 -88q6 -28 51 -31l80 -4v-61q-34 2 -60 3t-43 2t-51 1q-35 0 -52.5 -1t-43.5 -2
t-62 -3l11 174l-254 -176q-24 -17 -95 -17q-109 0 -179 64.5t-70 183.5q0 109 55.5 176t139 99.5t200.5 54.5zM664 254v270q-181 -25 -299 -71q-52 -20 -87.5 -78t-35.5 -115q0 -52 22.5 -89.5t58.5 -58t78 -20.5q43 0 87 23t110 71q35 26 66 68zM264 1313h55
q0 -50 30.5 -88.5t77.5 -59t95 -20.5t95 20.5t77.5 59t30.5 88.5h55q0 -74 -30 -137t-88.5 -100.5t-139.5 -37.5q-120 0 -189 79.5t-69 195.5zM522 1364l-260 168q-36 22 -54 39t-18 43q0 28 15 45.5t43 17.5q35 0 94 -59l254 -254h-74z" />
    <glyph glyph-name="aathhoi" unicode="&#x1eb3;" 
d="M461 553l203 37q0 126 -63 194t-195 68q-67 0 -95.5 -8.5t-48.5 -34.5q-6 -8 -35 -68l-26 -63l-54 14v133l109 66q116 70 238 70q129 0 200.5 -40t102 -127.5t30.5 -240.5v-375q0 -56 7 -88q6 -28 51 -31l80 -4v-61q-34 2 -60 3t-43 2t-51 1q-35 0 -52.5 -1t-43.5 -2
t-62 -3l11 174l-254 -176q-24 -17 -95 -17q-109 0 -179 64.5t-70 183.5q0 109 55.5 176t139 99.5t200.5 54.5zM664 254v270q-181 -25 -299 -71q-52 -20 -87.5 -78t-35.5 -115q0 -52 22.5 -89.5t58.5 -58t78 -20.5q43 0 87 23t110 71q35 26 66 68zM264 1313h55
q0 -50 30.5 -88.5t77.5 -59t95 -20.5t95 20.5t77.5 59t30.5 88.5h55q0 -74 -30 -137t-88.5 -100.5t-139.5 -37.5q-120 0 -189 79.5t-69 195.5zM391 1647l45 92q67 24 127 24q83 0 141 -33t58 -92q0 -35 -26.5 -63t-80.5 -66q-64 -44 -85 -62t-21 -42q0 -17 18 -35l-47 -12
q-43 17 -43 55q0 24 18 45.5t60 59.5q88 60 88 106q0 28 -31 49.5t-82 24.5q-53 0 -71 -25l-21 -39z" />
    <glyph glyph-name="aathnga" unicode="&#x1eb5;" 
d="M461 553l203 37q0 126 -63 194t-195 68q-67 0 -95.5 -8.5t-48.5 -34.5q-6 -8 -35 -68l-26 -63l-54 14v133l109 66q116 70 238 70q129 0 200.5 -40t102 -127.5t30.5 -240.5v-375q0 -56 7 -88q6 -28 51 -31l80 -4v-61q-34 2 -60 3t-43 2t-51 1q-35 0 -52.5 -1t-43.5 -2
t-62 -3l11 174l-254 -176q-24 -17 -95 -17q-109 0 -179 64.5t-70 183.5q0 109 55.5 176t139 99.5t200.5 54.5zM664 254v270q-181 -25 -299 -71q-52 -20 -87.5 -78t-35.5 -115q0 -52 22.5 -89.5t58.5 -58t78 -20.5q43 0 87 23t110 71q35 26 66 68zM264 1313h55
q0 -50 30.5 -88.5t77.5 -59t95 -20.5t95 20.5t77.5 59t30.5 88.5h55q0 -74 -30 -137t-88.5 -100.5t-139.5 -37.5q-120 0 -189 79.5t-69 195.5zM758 1608h57q-9 -66 -51 -119q-59 -74 -146 -74q-31 0 -56.5 6.5t-65 25.5t-45.5 21q-56 27 -89 27q-64 0 -96 -80h-53
q14 83 66 132.5t133 49.5q32 0 68 -13.5t69 -29.5q80 -36 108 -36q43 4 64 24.5t37 65.5z" />
    <glyph glyph-name="aathnang" unicode="&#x1eb7;" 
d="M461 553l203 37q0 126 -63 194t-195 68q-67 0 -95.5 -8.5t-48.5 -34.5q-6 -8 -35 -68l-26 -63l-54 14v133l109 66q116 70 238 70q129 0 200.5 -40t102 -127.5t30.5 -240.5v-375q0 -56 7 -88q6 -28 51 -31l80 -4v-61q-34 2 -60 3t-43 2t-51 1q-35 0 -52.5 -1t-43.5 -2
t-62 -3l11 174l-254 -176q-24 -17 -95 -17q-109 0 -179 64.5t-70 183.5q0 109 55.5 176t139 99.5t200.5 54.5zM664 254v270q-181 -25 -299 -71q-52 -20 -87.5 -78t-35.5 -115q0 -52 22.5 -89.5t58.5 -58t78 -20.5q43 0 87 23t110 71q35 26 66 68zM264 1313h55
q0 -50 30.5 -88.5t77.5 -59t95 -20.5t95 20.5t77.5 59t30.5 88.5h55q0 -74 -30 -137t-88.5 -100.5t-139.5 -37.5q-120 0 -189 79.5t-69 195.5zM494 -127q40 0 71 -31t31 -71t-31.5 -70.5t-70.5 -30.5t-70 31t-31 70t30.5 70.5t70.5 31.5z" />
    <glyph glyph-name="aahoasac" unicode="&#x1eae;" horiz-adv-x="1593" 
d="M836 1434l495 -1164l26.5 -58.5t39.5 -80.5q20 -34 38 -50t44 -20l69 -6v-61q-67 2 -146 4t-126 2q-50 0 -79 -1t-74 -2t-119 -3v61l96 6q36 2 60 12.5t24 28.5q0 26 -43 131l-94 236h-590l-58 -137q-22 -51 -46.5 -120.5t-24.5 -92.5q0 -29 21 -40t77 -18l76 -6v-61
q-66 2 -105 3t-64 2t-67 1q-40 0 -108 -2t-127 -4v61l75 6q36 4 64.5 31.5t46.5 69.5l365 829l114 259t74 184h66zM492 551h518l-258 610zM549 1800h55q0 -51 30.5 -89t77.5 -58.5t95 -20.5t95 20.5t77.5 58.5t30.5 89h55q0 -73 -30 -136t-88.5 -100.5t-139.5 -37.5
q-120 0 -189 79.5t-69 194.5zM741 1862l258 252q61 59 95 59q26 0 41.5 -17t15.5 -47q0 -27 -19 -44.5t-53 -36.5l-264 -166h-74z" />
    <glyph glyph-name="aahoahuyen" unicode="&#x1eb0;" horiz-adv-x="1593" 
d="M836 1434l495 -1164l26.5 -58.5t39.5 -80.5q20 -34 38 -50t44 -20l69 -6v-61q-67 2 -146 4t-126 2q-50 0 -79 -1t-74 -2t-119 -3v61l96 6q36 2 60 12.5t24 28.5q0 26 -43 131l-94 236h-590l-58 -137q-22 -51 -46.5 -120.5t-24.5 -92.5q0 -29 21 -40t77 -18l76 -6v-61
q-66 2 -105 3t-64 2t-67 1q-40 0 -108 -2t-127 -4v61l75 6q36 4 64.5 31.5t46.5 69.5l365 829l114 259t74 184h66zM492 551h518l-258 610zM549 1800h55q0 -51 30.5 -89t77.5 -58.5t95 -20.5t95 20.5t77.5 58.5t30.5 89h55q0 -73 -30 -136t-88.5 -100.5t-139.5 -37.5
q-120 0 -189 79.5t-69 194.5zM807 1851l-260 168q-43 29 -57.5 42t-14.5 40q0 29 15.5 46.5t41.5 17.5q35 0 95 -60l254 -254h-74z" />
    <glyph glyph-name="aahoahoi" unicode="&#x1eb2;" horiz-adv-x="1593" 
d="M836 1434l495 -1164l26.5 -58.5t39.5 -80.5q20 -34 38 -50t44 -20l69 -6v-61q-67 2 -146 4t-126 2q-50 0 -79 -1t-74 -2t-119 -3v61l96 6q36 2 60 12.5t24 28.5q0 26 -43 131l-94 236h-590l-58 -137q-22 -51 -46.5 -120.5t-24.5 -92.5q0 -29 21 -40t77 -18l76 -6v-61
q-66 2 -105 3t-64 2t-67 1q-40 0 -108 -2t-127 -4v61l75 6q36 4 64.5 31.5t46.5 69.5l365 829l114 259t74 184h66zM492 551h518l-258 610zM549 1800h55q0 -51 30.5 -89t77.5 -58.5t95 -20.5t95 20.5t77.5 58.5t30.5 89h55q0 -73 -30 -136t-88.5 -100.5t-139.5 -37.5
q-120 0 -189 79.5t-69 194.5zM666 2124l45 92q70 25 127 25q84 0 141 -33t57 -92q0 -36 -28.5 -66.5t-77.5 -62.5q-57 -40 -82 -61t-25 -44q0 -16 19 -35l-47 -12q-43 16 -43 55q0 24 19.5 47.5t57.5 57.5q89 61 89 106q0 28 -31 49.5t-82 24.5q-52 0 -72 -25l-20 -39z" />
    <glyph glyph-name="aahoanga" unicode="&#x1eb4;" horiz-adv-x="1593" 
d="M836 1434l495 -1164l26.5 -58.5t39.5 -80.5q20 -34 38 -50t44 -20l69 -6v-61q-67 2 -146 4t-126 2q-50 0 -79 -1t-74 -2t-119 -3v61l96 6q36 2 60 12.5t24 28.5q0 26 -43 131l-94 236h-590l-58 -137q-22 -51 -46.5 -120.5t-24.5 -92.5q0 -29 21 -40t77 -18l76 -6v-61
q-66 2 -105 3t-64 2t-67 1q-40 0 -108 -2t-127 -4v61l75 6q36 4 64.5 31.5t46.5 69.5l365 829l114 259t74 184h66zM492 551h518l-258 610zM549 1800h55q0 -51 30.5 -89t77.5 -58.5t95 -20.5t95 20.5t77.5 58.5t30.5 89h55q0 -73 -30 -136t-88.5 -100.5t-139.5 -37.5
q-120 0 -189 79.5t-69 194.5zM1042 2095h58q-8 -64 -51 -119q-58 -73 -146 -73q-30 0 -54.5 5.5t-58 21.5l-55.5 26q-57 26 -88 26q-67 0 -96 -79h-53q14 83 66 132.5t132 49.5q34 0 61.5 -10.5t76.5 -32.5q79 -37 108 -37q43 4 63 24t37 66z" />
    <glyph glyph-name="aahoanang" unicode="&#x1eb6;" horiz-adv-x="1593" 
d="M836 1434l495 -1164l26.5 -58.5t39.5 -80.5q20 -34 38 -50t44 -20l69 -6v-61q-67 2 -146 4t-126 2q-50 0 -79 -1t-74 -2t-119 -3v61l96 6q36 2 60 12.5t24 28.5q0 26 -43 131l-94 236h-590l-58 -137q-22 -51 -46.5 -120.5t-24.5 -92.5q0 -29 21 -40t77 -18l76 -6v-61
q-66 2 -105 3t-64 2t-67 1q-40 0 -108 -2t-127 -4v61l75 6q36 4 64.5 31.5t46.5 69.5l365 829l114 259t74 184h66zM492 551h518l-258 610zM549 1800h55q0 -51 30.5 -89t77.5 -58.5t95 -20.5t95 20.5t77.5 58.5t30.5 89h55q0 -73 -30 -136t-88.5 -100.5t-139.5 -37.5
q-120 0 -189 79.5t-69 194.5zM768 -131q40 0 71 -31t31 -71t-31.5 -70.5t-70.5 -30.5q-38 0 -69 31t-31 70t30.5 70.5t69.5 31.5z" />
    <glyph glyph-name="abthsac" unicode="&#x1ea5;" 
d="M461 553l203 37q0 126 -63 194t-195 68q-67 0 -95.5 -8.5t-48.5 -34.5q-6 -8 -35 -68l-26 -63l-54 14v133l109 66q116 70 238 70q129 0 200.5 -40t102 -127.5t30.5 -240.5v-375q0 -56 7 -88q6 -28 51 -31l80 -4v-61q-34 2 -60 3t-43 2t-51 1q-35 0 -52.5 -1t-43.5 -2
t-62 -3l11 174l-254 -176q-24 -17 -95 -17q-109 0 -179 64.5t-70 183.5q0 109 55.5 176t139 99.5t200.5 54.5zM664 254v270q-181 -25 -299 -71q-52 -20 -87.5 -78t-35.5 -115q0 -52 22.5 -89.5t58.5 -58t78 -20.5q43 0 87 23t110 71q35 26 66 68zM428 1323h111l229 -289h-63
l-222 178l-221 -178h-63zM682 1251l258 252q60 60 94 60q27 0 42.5 -17t15.5 -47q0 -27 -17 -42.5t-55 -39.5l-264 -166h-74z" />
    <glyph glyph-name="abthhuyen" unicode="&#x1ea7;" 
d="M461 553l203 37q0 126 -63 194t-195 68q-67 0 -95.5 -8.5t-48.5 -34.5q-6 -8 -35 -68l-26 -63l-54 14v133l109 66q116 70 238 70q129 0 200.5 -40t102 -127.5t30.5 -240.5v-375q0 -56 7 -88q6 -28 51 -31l80 -4v-61q-34 2 -60 3t-43 2t-51 1q-35 0 -52.5 -1t-43.5 -2
t-62 -3l11 174l-254 -176q-24 -17 -95 -17q-109 0 -179 64.5t-70 183.5q0 109 55.5 176t139 99.5t200.5 54.5zM664 254v270q-181 -25 -299 -71q-52 -20 -87.5 -78t-35.5 -115q0 -52 22.5 -89.5t58.5 -58t78 -20.5q43 0 87 23t110 71q35 26 66 68zM428 1323h111l229 -289h-63
l-222 178l-221 -178h-63zM696 1323l-260 168q-35 21 -53 38.5t-18 43.5q0 28 14 45.5t43 17.5q35 0 94 -59l254 -254h-74z" />
    <glyph glyph-name="abthhoi" unicode="&#x1ea9;" 
d="M461 553l203 37q0 126 -63 194t-195 68q-67 0 -95.5 -8.5t-48.5 -34.5q-6 -8 -35 -68l-26 -63l-54 14v133l109 66q116 70 238 70q129 0 200.5 -40t102 -127.5t30.5 -240.5v-375q0 -56 7 -88q6 -28 51 -31l80 -4v-61q-34 2 -60 3t-43 2t-51 1q-35 0 -52.5 -1t-43.5 -2
t-62 -3l11 174l-254 -176q-24 -17 -95 -17q-109 0 -179 64.5t-70 183.5q0 109 55.5 176t139 99.5t200.5 54.5zM664 254v270q-181 -25 -299 -71q-52 -20 -87.5 -78t-35.5 -115q0 -52 22.5 -89.5t58.5 -58t78 -20.5q43 0 87 23t110 71q35 26 66 68zM428 1323h111l229 -289h-63
l-222 178l-221 -178h-63zM565 1565l45 92q67 24 127 24q83 0 141 -33t58 -92q0 -35 -26.5 -63t-80.5 -66q-64 -44 -85 -62t-21 -42q0 -17 18 -35l-47 -12q-43 17 -43 55q0 24 18 45.5t60 59.5q88 60 88 106q0 28 -30.5 49.5t-81.5 24.5q-54 0 -72 -25l-21 -39z" />
    <glyph glyph-name="abthnga" unicode="&#x1eab;" 
d="M461 553l203 37q0 126 -63 194t-195 68q-67 0 -95.5 -8.5t-48.5 -34.5q-6 -8 -35 -68l-26 -63l-54 14v133l109 66q116 70 238 70q129 0 200.5 -40t102 -127.5t30.5 -240.5v-375q0 -56 7 -88q6 -28 51 -31l80 -4v-61q-34 2 -60 3t-43 2t-51 1q-35 0 -52.5 -1t-43.5 -2
t-62 -3l11 174l-254 -176q-24 -17 -95 -17q-109 0 -179 64.5t-70 183.5q0 109 55.5 176t139 99.5t200.5 54.5zM664 254v270q-181 -25 -299 -71q-52 -20 -87.5 -78t-35.5 -115q0 -52 22.5 -89.5t58.5 -58t78 -20.5q43 0 87 23t110 71q35 26 66 68zM428 1323h111l229 -289h-63
l-222 178l-221 -178h-63zM737 1618h58q-8 -65 -52 -119q-57 -74 -145 -74q-30 0 -55.5 6t-58 22l-54.5 26q-57 26 -88 26q-66 0 -96 -80h-53q14 82 66 132.5t132 50.5q34 0 59 -9.5t78 -33.5q76 -37 109 -37q44 4 64 25t36 65z" />
    <glyph glyph-name="abthnang" unicode="&#x1ead;" 
d="M461 553l203 37q0 126 -63 194t-195 68q-67 0 -95.5 -8.5t-48.5 -34.5q-6 -8 -35 -68l-26 -63l-54 14v133l109 66q116 70 238 70q129 0 200.5 -40t102 -127.5t30.5 -240.5v-375q0 -56 7 -88q6 -28 51 -31l80 -4v-61q-34 2 -60 3t-43 2t-51 1q-35 0 -52.5 -1t-43.5 -2
t-62 -3l11 174l-254 -176q-24 -17 -95 -17q-109 0 -179 64.5t-70 183.5q0 109 55.5 176t139 99.5t200.5 54.5zM664 254v270q-181 -25 -299 -71q-52 -20 -87.5 -78t-35.5 -115q0 -52 22.5 -89.5t58.5 -58t78 -20.5q43 0 87 23t110 71q35 26 66 68zM428 1323h111l229 -289h-63
l-222 178l-221 -178h-63zM453 -127q40 0 71 -31t31 -71t-31.5 -70.5t-70.5 -30.5t-70 31t-31 70t30.5 70.5t70.5 31.5z" />
    <glyph glyph-name="abhoasac" unicode="&#x1ea4;" horiz-adv-x="1593" 
d="M836 1434l495 -1164l26.5 -58.5t39.5 -80.5q20 -34 38 -50t44 -20l69 -6v-61q-67 2 -146 4t-126 2q-50 0 -79 -1t-74 -2t-119 -3v61l96 6q36 2 60 12.5t24 28.5q0 26 -43 131l-94 236h-590l-58 -137q-22 -51 -46.5 -120.5t-24.5 -92.5q0 -29 21 -40t77 -18l76 -6v-61
q-66 2 -105 3t-64 2t-67 1q-40 0 -108 -2t-127 -4v61l75 6q36 4 64.5 31.5t46.5 69.5l365 829l114 259t74 184h66zM492 551h518l-258 610zM733 1800h111l229 -289h-63l-222 179l-221 -179h-63zM987 1729l258 251q60 60 94 60q27 0 42.5 -17t15.5 -47q0 -27 -17 -42.5
t-55 -39.5l-264 -165h-74z" />
    <glyph glyph-name="abhoahuyen" unicode="&#x1ea6;" horiz-adv-x="1593" 
d="M836 1434l495 -1164l26.5 -58.5t39.5 -80.5q20 -34 38 -50t44 -20l69 -6v-61q-67 2 -146 4t-126 2q-50 0 -79 -1t-74 -2t-119 -3v61l96 6q36 2 60 12.5t24 28.5q0 26 -43 131l-94 236h-590l-58 -137q-22 -51 -46.5 -120.5t-24.5 -92.5q0 -29 21 -40t77 -18l76 -6v-61
q-66 2 -105 3t-64 2t-67 1q-40 0 -108 -2t-127 -4v61l75 6q36 4 64.5 31.5t46.5 69.5l365 829l114 259t74 184h66zM492 551h518l-258 610zM733 1800h111l229 -289h-63l-222 179l-221 -179h-63zM1001 1800l-260 168q-41 27 -56 41t-15 41q0 29 15 46.5t42 17.5q36 0 94 -60
l254 -254h-74z" />
    <glyph glyph-name="abhoahoi" unicode="&#x1ea8;" horiz-adv-x="1593" 
d="M836 1434l495 -1164l26.5 -58.5t39.5 -80.5q20 -34 38 -50t44 -20l69 -6v-61q-67 2 -146 4t-126 2q-50 0 -79 -1t-74 -2t-119 -3v61l96 6q36 2 60 12.5t24 28.5q0 26 -43 131l-94 236h-590l-58 -137q-22 -51 -46.5 -120.5t-24.5 -92.5q0 -29 21 -40t77 -18l76 -6v-61
q-66 2 -105 3t-64 2t-67 1q-40 0 -108 -2t-127 -4v61l75 6q36 4 64.5 31.5t46.5 69.5l365 829l114 259t74 184h66zM492 551h518l-258 610zM733 1800h111l229 -289h-63l-222 179l-221 -179h-63zM850 2011l45 92q65 25 127 25q83 0 141 -33t58 -92q0 -36 -28 -64.5t-79 -64.5
q-57 -40 -81.5 -60.5t-24.5 -44.5q0 -16 18 -34l-47 -13q-43 18 -43 56q0 24 17.5 45t60.5 59q88 62 88 107q0 27 -31 48.5t-82 24.5q-52 0 -71 -24l-21 -39z" />
    <glyph glyph-name="abhoanga" unicode="&#x1eaa;" horiz-adv-x="1593" 
d="M836 1434l495 -1164l26.5 -58.5t39.5 -80.5q20 -34 38 -50t44 -20l69 -6v-61q-67 2 -146 4t-126 2q-50 0 -79 -1t-74 -2t-119 -3v61l96 6q36 2 60 12.5t24 28.5q0 26 -43 131l-94 236h-590l-58 -137q-22 -51 -46.5 -120.5t-24.5 -92.5q0 -29 21 -40t77 -18l76 -6v-61
q-66 2 -105 3t-64 2t-67 1q-40 0 -108 -2t-127 -4v61l75 6q36 4 64.5 31.5t46.5 69.5l365 829l114 259t74 184h66zM492 551h518l-258 610zM733 1800h111l229 -289h-63l-222 179l-221 -179h-63zM1042 2095h58q-8 -64 -51 -119q-58 -73 -146 -73q-30 0 -54.5 5.5t-58 21.5
l-55.5 26q-57 26 -88 26q-67 0 -96 -79h-53q14 83 66 132.5t132 49.5q34 0 61.5 -10.5t76.5 -32.5q79 -37 108 -37q43 4 63 24t37 66z" />
    <glyph glyph-name="abhoanang" unicode="&#x1eac;" horiz-adv-x="1593" 
d="M836 1434l495 -1164l26.5 -58.5t39.5 -80.5q20 -34 38 -50t44 -20l69 -6v-61q-67 2 -146 4t-126 2q-50 0 -79 -1t-74 -2t-119 -3v61l96 6q36 2 60 12.5t24 28.5q0 26 -43 131l-94 236h-590l-58 -137q-22 -51 -46.5 -120.5t-24.5 -92.5q0 -29 21 -40t77 -18l76 -6v-61
q-66 2 -105 3t-64 2t-67 1q-40 0 -108 -2t-127 -4v61l75 6q36 4 64.5 31.5t46.5 69.5l365 829l114 259t74 184h66zM492 551h518l-258 610zM733 1800h111l229 -289h-63l-222 179l-221 -179h-63zM758 -152q40 0 71 -31t31 -71q0 -39 -31.5 -69.5t-70.5 -30.5q-40 0 -70.5 30.5
t-30.5 69.5q0 40 30 71t71 31z" />
    <glyph glyph-name="ebthsac" unicode="&#x1ebf;" horiz-adv-x="981" 
d="M518 893q-119 0 -194.5 -87t-75.5 -253q106 -12 260 -12q120 0 227 6q0 94 -24.5 174.5t-72.5 126t-120 45.5zM528 961q172 0 281 -102t109 -273q0 -58 -5 -86q-168 -29 -370 -29h-299q0 -89 22.5 -163t69.5 -128.5t116.5 -83t161.5 -28.5q47 0 88.5 12.5t81 34.5
l84.5 49l27 -21l-41 -69q-9 -15 -63 -42.5t-128 -50t-137 -22.5q-150 0 -257 60t-161.5 166t-54.5 247q0 96 17 171t51 130.5t80 89.5q73 58 127 82q120 56 200 56zM426 1329h111l229 -289h-64l-221 179l-221 -179h-63zM680 1257l258 252q60 60 94 60q27 0 42.5 -17
t15.5 -47q0 -27 -17 -42.5t-55 -39.5l-264 -166h-74z" />
    <glyph glyph-name="ebthhuyen" unicode="&#x1ec1;" horiz-adv-x="981" 
d="M518 893q-119 0 -194.5 -87t-75.5 -253q106 -12 260 -12q120 0 227 6q0 94 -24.5 174.5t-72.5 126t-120 45.5zM528 961q172 0 281 -102t109 -273q0 -58 -5 -86q-168 -29 -370 -29h-299q0 -89 22.5 -163t69.5 -128.5t116.5 -83t161.5 -28.5q47 0 88.5 12.5t81 34.5
l84.5 49l27 -21l-41 -69q-9 -15 -63 -42.5t-128 -50t-137 -22.5q-150 0 -257 60t-161.5 166t-54.5 247q0 96 17 171t51 130.5t80 89.5q73 58 127 82q120 56 200 56zM426 1329h111l229 -289h-64l-221 179l-221 -179h-63zM694 1329l-260 168q-43 29 -57.5 42t-14.5 40
q0 28 15 45.5t43 17.5q35 0 94 -59l254 -254h-74z" />
    <glyph glyph-name="ebthhoi" unicode="&#x1ec3;" horiz-adv-x="981" 
d="M518 893q-119 0 -194.5 -87t-75.5 -253q106 -12 260 -12q120 0 227 6q0 94 -24.5 174.5t-72.5 126t-120 45.5zM528 961q172 0 281 -102t109 -273q0 -58 -5 -86q-168 -29 -370 -29h-299q0 -89 22.5 -163t69.5 -128.5t116.5 -83t161.5 -28.5q47 0 88.5 12.5t81 34.5
l84.5 49l27 -21l-41 -69q-9 -15 -63 -42.5t-128 -50t-137 -22.5q-150 0 -257 60t-161.5 166t-54.5 247q0 96 17 171t51 130.5t80 89.5q73 58 127 82q120 56 200 56zM426 1329h111l229 -289h-64l-221 179l-221 -179h-63zM584 1550l45 92q65 25 127 25q84 0 141 -33t57 -92
q0 -35 -27.5 -64t-78.5 -65q-57 -40 -82 -61t-25 -43q0 -16 19 -35l-47 -12q-43 16 -43 55q0 24 17.5 45t60.5 59q88 62 88 107q0 28 -30.5 49.5t-82.5 24.5q-51 0 -72 -25l-20 -39z" />
    <glyph glyph-name="ebthnga" unicode="&#x1ec5;" horiz-adv-x="981" 
d="M518 893q-119 0 -194.5 -87t-75.5 -253q106 -12 260 -12q120 0 227 6q0 94 -24.5 174.5t-72.5 126t-120 45.5zM528 961q172 0 281 -102t109 -273q0 -58 -5 -86q-168 -29 -370 -29h-299q0 -89 22.5 -163t69.5 -128.5t116.5 -83t161.5 -28.5q47 0 88.5 12.5t81 34.5
l84.5 49l27 -21l-41 -69q-9 -15 -63 -42.5t-128 -50t-137 -22.5q-150 0 -257 60t-161.5 166t-54.5 247q0 96 17 171t51 130.5t80 89.5q73 58 127 82q120 56 200 56zM426 1329h111l229 -289h-64l-221 179l-221 -179h-63zM735 1624h58q-11 -68 -52 -119q-56 -73 -145 -73
q-30 0 -54.5 5.5t-58 21.5l-55.5 26q-57 26 -88 26q-67 0 -96 -79h-54q16 83 67.5 132.5t131.5 49.5q34 0 59 -9.5t78 -33.5q76 -37 109 -37q44 4 64 25t36 65z" />
    <glyph glyph-name="ebthnang" unicode="&#x1ec7;" horiz-adv-x="981" 
d="M518 893q-119 0 -194.5 -87t-75.5 -253q106 -12 260 -12q120 0 227 6q0 94 -24.5 174.5t-72.5 126t-120 45.5zM528 961q172 0 281 -102t109 -273q0 -58 -5 -86q-168 -29 -370 -29h-299q0 -89 22.5 -163t69.5 -128.5t116.5 -83t161.5 -28.5q47 0 88.5 12.5t81 34.5
l84.5 49l27 -21l-41 -69q-9 -15 -63 -42.5t-128 -50t-137 -22.5q-150 0 -257 60t-161.5 166t-54.5 247q0 96 17 171t51 130.5t80 89.5q73 58 127 82q120 56 200 56zM426 1329h111l229 -289h-64l-221 179l-221 -179h-63zM451 -121q40 0 71 -31t31 -71q0 -41 -31 -71t-71 -30
t-70.5 30.5t-30.5 70.5q0 39 30.5 70.5t70.5 31.5z" />
    <glyph glyph-name="ebhoasac" unicode="&#x1ebe;" horiz-adv-x="1251" 
d="M248 246v919q0 125 -19 154q-17 28 -86 31l-98 6v61q76 -2 151.5 -3.5t96 -2t98.5 -0.5q68 1 146 2t140.5 2t98.5 1.5t98 0.5q145 0 265 -6q-18 -72 -25.5 -154t-7.5 -157h-72v133q0 48 -18 55q-114 43 -402 43q-106 0 -172 -16v-547q99 -6 238 -6q181 0 217 22
q13 12 16 54l11 106h61q-2 -80 -4 -140t-2 -97t2 -94.5t4 -133.5h-61l-11 121q-3 43 -16 51q-34 25 -217 25q-174 0 -238 -6v-574q66 -16 172 -16q366 0 414 26q23 13 42.5 77t29.5 153h71q-15 -76 -23.5 -163t-8.5 -173q-60 -2 -144.5 -3.5t-121 -2t-138.5 -0.5
q-104 2 -181 3t-127 2t-138 1q-51 0 -64.5 -0.5t-60 -2t-94.5 -3.5v61l73 6q72 7 86 31q19 29 19 154zM545 1810h110l230 -288h-64l-221 178l-221 -178h-64zM799 1739l258 252q59 59 94 59q27 0 42 -17t15 -46q0 -26 -18 -43.5t-53 -38.5l-265 -166h-73z" />
    <glyph glyph-name="ebhoahuyen" unicode="&#x1ec0;" horiz-adv-x="1251" 
d="M248 246v919q0 125 -19 154q-17 28 -86 31l-98 6v61q76 -2 151.5 -3.5t96 -2t98.5 -0.5q68 1 146 2t140.5 2t98.5 1.5t98 0.5q145 0 265 -6q-18 -72 -25.5 -154t-7.5 -157h-72v133q0 48 -18 55q-114 43 -402 43q-106 0 -172 -16v-547q99 -6 238 -6q181 0 217 22
q13 12 16 54l11 106h61q-2 -80 -4 -140t-2 -97t2 -94.5t4 -133.5h-61l-11 121q-3 43 -16 51q-34 25 -217 25q-174 0 -238 -6v-574q66 -16 172 -16q366 0 414 26q23 13 42.5 77t29.5 153h71q-15 -76 -23.5 -163t-8.5 -173q-60 -2 -144.5 -3.5t-121 -2t-138.5 -0.5
q-104 2 -181 3t-127 2t-138 1q-51 0 -64.5 -0.5t-60 -2t-94.5 -3.5v61l73 6q72 7 86 31q19 29 19 154zM545 1810h110l230 -288h-64l-221 178l-221 -178h-64zM813 1810l-260 168q-43 29 -57.5 42t-14.5 40q0 29 15.5 46.5t42.5 17.5q34 0 94 -60l254 -254h-74z" />
    <glyph glyph-name="ebhoahoi" unicode="&#x1ec2;" horiz-adv-x="1251" 
d="M248 246v919q0 125 -19 154q-17 28 -86 31l-98 6v61q76 -2 151.5 -3.5t96 -2t98.5 -0.5q68 1 146 2t140.5 2t98.5 1.5t98 0.5q145 0 265 -6q-18 -72 -25.5 -154t-7.5 -157h-72v133q0 48 -18 55q-114 43 -402 43q-106 0 -172 -16v-547q99 -6 238 -6q181 0 217 22
q13 12 16 54l11 106h61q-2 -80 -4 -140t-2 -97t2 -94.5t4 -133.5h-61l-11 121q-3 43 -16 51q-34 25 -217 25q-174 0 -238 -6v-574q66 -16 172 -16q366 0 414 26q23 13 42.5 77t29.5 153h71q-15 -76 -23.5 -163t-8.5 -173q-60 -2 -144.5 -3.5t-121 -2t-138.5 -0.5
q-104 2 -181 3t-127 2t-138 1q-51 0 -64.5 -0.5t-60 -2t-94.5 -3.5v61l73 6q72 7 86 31q19 29 19 154zM545 1810h110l230 -288h-64l-221 178l-221 -178h-64zM682 2021l45 93q67 24 127 24q83 0 141 -33t58 -92q0 -36 -28 -64.5t-79 -64.5q-57 -40 -81.5 -60.5t-24.5 -43.5
q0 -17 18 -35l-47 -12q-43 16 -43 55q0 24 17.5 45t60.5 59q88 62 88 107q0 28 -30.5 49.5t-82.5 24.5q-52 0 -71 -25l-21 -39z" />
    <glyph glyph-name="ebhoanga" unicode="&#x1ec4;" horiz-adv-x="1251" 
d="M248 246v919q0 125 -19 154q-17 28 -86 31l-98 6v61q76 -2 151.5 -3.5t96 -2t98.5 -0.5q68 1 146 2t140.5 2t98.5 1.5t98 0.5q145 0 265 -6q-18 -72 -25.5 -154t-7.5 -157h-72v133q0 48 -18 55q-114 43 -402 43q-106 0 -172 -16v-547q99 -6 238 -6q181 0 217 22
q13 12 16 54l11 106h61q-2 -80 -4 -140t-2 -97t2 -94.5t4 -133.5h-61l-11 121q-3 43 -16 51q-34 25 -217 25q-174 0 -238 -6v-574q66 -16 172 -16q366 0 414 26q23 13 42.5 77t29.5 153h71q-15 -76 -23.5 -163t-8.5 -173q-60 -2 -144.5 -3.5t-121 -2t-138.5 -0.5
q-104 2 -181 3t-127 2t-138 1q-51 0 -64.5 -0.5t-60 -2t-94.5 -3.5v61l73 6q72 7 86 31q19 29 19 154zM545 1810h110l230 -288h-64l-221 178l-221 -178h-64zM854 2105h57q-9 -65 -51 -118q-59 -74 -145 -74q-30 0 -55.5 6t-51.5 18l-61 29q-62 27 -88 27q-65 0 -97 -80h-53
q16 83 67.5 132.5t131.5 49.5q32 0 68 -13.5t69 -29.5q82 -37 109 -37q44 4 64 25t36 65z" />
    <glyph glyph-name="ebhoanang" unicode="&#x1ec6;" horiz-adv-x="1251" 
d="M248 246v919q0 125 -19 154q-17 28 -86 31l-98 6v61q76 -2 151.5 -3.5t96 -2t98.5 -0.5q68 1 146 2t140.5 2t98.5 1.5t98 0.5q145 0 265 -6q-18 -72 -25.5 -154t-7.5 -157h-72v133q0 48 -18 55q-114 43 -402 43q-106 0 -172 -16v-547q99 -6 238 -6q181 0 217 22
q13 12 16 54l11 106h61q-2 -80 -4 -140t-2 -97t2 -94.5t4 -133.5h-61l-11 121q-3 43 -16 51q-34 25 -217 25q-174 0 -238 -6v-574q66 -16 172 -16q366 0 414 26q23 13 42.5 77t29.5 153h71q-15 -76 -23.5 -163t-8.5 -173q-60 -2 -144.5 -3.5t-121 -2t-138.5 -0.5
q-104 2 -181 3t-127 2t-138 1q-51 0 -64.5 -0.5t-60 -2t-94.5 -3.5v61l73 6q72 7 86 31q19 29 19 154zM545 1810h110l230 -288h-64l-221 178l-221 -178h-64zM600 -131q40 0 71 -31t31 -71t-31.5 -70.5t-70.5 -30.5q-38 0 -69 31t-31 70t30.5 70.5t69.5 31.5z" />
    <glyph glyph-name="obthsac" unicode="&#x1ed1;" horiz-adv-x="1118" 
d="M516 -41q-97 0 -180.5 36t-145 102t-93 153.5t-31.5 187.5q0 155 62 273t180.5 184t279.5 66q95 0 180.5 -35t149.5 -99t99.5 -150.5t35.5 -182.5q0 -153 -69 -276t-191 -191t-277 -68zM541 893q-152 0 -218.5 -103t-66.5 -264q0 -87 17.5 -173.5t57 -160.5t106.5 -119.5
t159 -45.5q131 0 198.5 110t67.5 266q0 132 -39.5 244.5t-113.5 179t-168 66.5zM510 1323h111l229 -289h-64l-221 178l-221 -178h-63zM764 1251l258 252q60 60 94 60q27 0 42.5 -17t15.5 -47q0 -27 -17 -42.5t-55 -39.5l-264 -166h-74z" />
    <glyph glyph-name="obthhuyen" unicode="&#x1ed3;" horiz-adv-x="1118" 
d="M516 -41q-97 0 -180.5 36t-145 102t-93 153.5t-31.5 187.5q0 155 62 273t180.5 184t279.5 66q95 0 180.5 -35t149.5 -99t99.5 -150.5t35.5 -182.5q0 -153 -69 -276t-191 -191t-277 -68zM541 893q-152 0 -218.5 -103t-66.5 -264q0 -87 17.5 -173.5t57 -160.5t106.5 -119.5
t159 -45.5q131 0 198.5 110t67.5 266q0 132 -39.5 244.5t-113.5 179t-168 66.5zM510 1323h111l229 -289h-64l-221 178l-221 -178h-63zM778 1323l-260 168q-36 22 -54 39t-18 43q0 28 15 45.5t43 17.5q35 0 94 -59l254 -254h-74z" />
    <glyph glyph-name="obthhoi" unicode="&#x1ed5;" horiz-adv-x="1118" 
d="M516 -41q-97 0 -180.5 36t-145 102t-93 153.5t-31.5 187.5q0 155 62 273t180.5 184t279.5 66q95 0 180.5 -35t149.5 -99t99.5 -150.5t35.5 -182.5q0 -153 -69 -276t-191 -191t-277 -68zM541 893q-152 0 -218.5 -103t-66.5 -264q0 -87 17.5 -173.5t57 -160.5t106.5 -119.5
t159 -45.5q131 0 198.5 110t67.5 266q0 132 -39.5 244.5t-113.5 179t-168 66.5zM510 1323h111l229 -289h-64l-221 178l-221 -178h-63zM668 1534l45 92q70 25 127 25q84 0 141 -33t57 -92q0 -35 -27.5 -64t-78.5 -65q-57 -40 -82 -61t-25 -44q0 -14 19 -35l-47 -12
q-43 16 -43 55q0 24 19.5 47.5t57.5 57.5q89 61 89 106q0 28 -31 49.5t-82 24.5q-52 0 -72 -24l-20 -39z" />
    <glyph glyph-name="obthnga" unicode="&#x1ed7;" horiz-adv-x="1118" 
d="M516 -41q-97 0 -180.5 36t-145 102t-93 153.5t-31.5 187.5q0 155 62 273t180.5 184t279.5 66q95 0 180.5 -35t149.5 -99t99.5 -150.5t35.5 -182.5q0 -153 -69 -276t-191 -191t-277 -68zM541 893q-152 0 -218.5 -103t-66.5 -264q0 -87 17.5 -173.5t57 -160.5t106.5 -119.5
t159 -45.5q131 0 198.5 110t67.5 266q0 132 -39.5 244.5t-113.5 179t-168 66.5zM510 1323h111l229 -289h-64l-221 178l-221 -178h-63zM819 1618h58q-11 -68 -52 -119q-57 -74 -145 -74q-30 0 -55.5 6t-58 22l-54.5 26q-60 26 -88 26q-66 0 -96 -80h-54q15 82 67 132.5
t132 50.5q34 0 59 -9.5t78 -33.5q76 -37 109 -37q44 4 64 25t36 65z" />
    <glyph glyph-name="obthnang" unicode="&#x1ed9;" horiz-adv-x="1118" 
d="M516 -41q-97 0 -180.5 36t-145 102t-93 153.5t-31.5 187.5q0 155 62 273t180.5 184t279.5 66q95 0 180.5 -35t149.5 -99t99.5 -150.5t35.5 -182.5q0 -153 -69 -276t-191 -191t-277 -68zM541 893q-152 0 -218.5 -103t-66.5 -264q0 -87 17.5 -173.5t57 -160.5t106.5 -119.5
t159 -45.5q131 0 198.5 110t67.5 266q0 132 -39.5 244.5t-113.5 179t-168 66.5zM510 1323h111l229 -289h-64l-221 178l-221 -178h-63zM535 -127q40 0 71 -31t31 -71t-31.5 -70.5t-70.5 -30.5t-70 31t-31 70t30.5 70.5t70.5 31.5z" />
    <glyph glyph-name="obhoasac" unicode="&#x1ed0;" horiz-adv-x="1610" 
d="M772 -41q-207 0 -373.5 91.5t-260 260.5t-93.5 394q0 208 94 379.5t269.5 269.5t406.5 98q220 0 390 -81t265 -238.5t95 -380.5q0 -217 -104.5 -399t-286.5 -288t-402 -106zM782 1366q-132 0 -229.5 -43.5t-161.5 -122.5t-95.5 -184.5t-31.5 -235.5q0 -137 33.5 -267.5
t105 -237.5t181.5 -168.5t254 -61.5q125 0 221.5 47t159.5 131.5t95 202.5t32 262q0 206 -62 358.5t-189.5 236t-312.5 83.5zM752 1796h110l230 -289h-64l-221 179l-221 -179h-64zM1006 1724l258 252q58 60 94 60q27 0 42 -17t15 -47q0 -27 -17 -42.5t-55 -39.5l-264 -166
h-73z" />
    <glyph glyph-name="obhoahuyen" unicode="&#x1ed2;" horiz-adv-x="1610" 
d="M772 -41q-207 0 -373.5 91.5t-260 260.5t-93.5 394q0 208 94 379.5t269.5 269.5t406.5 98q220 0 390 -81t265 -238.5t95 -380.5q0 -217 -104.5 -399t-286.5 -288t-402 -106zM782 1366q-132 0 -229.5 -43.5t-161.5 -122.5t-95.5 -184.5t-31.5 -235.5q0 -137 33.5 -267.5
t105 -237.5t181.5 -168.5t254 -61.5q125 0 221.5 47t159.5 131.5t95 202.5t32 262q0 206 -62 358.5t-189.5 236t-312.5 83.5zM752 1796h110l230 -289h-64l-221 179l-221 -179h-64zM1020 1796l-260 168q-36 22 -54 39t-18 43q0 28 15 45.5t42 17.5q36 0 95 -59l254 -254h-74z
" />
    <glyph glyph-name="obhoahoi" unicode="&#x1ed4;" horiz-adv-x="1610" 
d="M772 -41q-207 0 -373.5 91.5t-260 260.5t-93.5 394q0 208 94 379.5t269.5 269.5t406.5 98q220 0 390 -81t265 -238.5t95 -380.5q0 -217 -104.5 -399t-286.5 -288t-402 -106zM782 1366q-132 0 -229.5 -43.5t-161.5 -122.5t-95.5 -184.5t-31.5 -235.5q0 -137 33.5 -267.5
t105 -237.5t181.5 -168.5t254 -61.5q125 0 221.5 47t159.5 131.5t95 202.5t32 262q0 206 -62 358.5t-189.5 236t-312.5 83.5zM752 1796h110l230 -289h-64l-221 179l-221 -179h-64zM909 1997l45 92q70 25 127 25q83 0 141 -33t58 -92q0 -36 -28.5 -66.5t-77.5 -62.5
q-54 -36 -80.5 -58.5t-26.5 -46.5q0 -15 18 -35l-47 -12q-43 17 -43 55q0 24 18 45.5t60 59.5q45 32 66.5 55.5t21.5 50.5q0 28 -30.5 49.5t-81.5 24.5q-54 0 -72 -25l-21 -38z" />
    <glyph glyph-name="obhoanga" unicode="&#x1ed6;" horiz-adv-x="1610" 
d="M772 -41q-207 0 -373.5 91.5t-260 260.5t-93.5 394q0 208 94 379.5t269.5 269.5t406.5 98q220 0 390 -81t265 -238.5t95 -380.5q0 -217 -104.5 -399t-286.5 -288t-402 -106zM782 1366q-132 0 -229.5 -43.5t-161.5 -122.5t-95.5 -184.5t-31.5 -235.5q0 -137 33.5 -267.5
t105 -237.5t181.5 -168.5t254 -61.5q125 0 221.5 47t159.5 131.5t95 202.5t32 262q0 206 -62 358.5t-189.5 236t-312.5 83.5zM752 1796h110l230 -289h-64l-221 179l-221 -179h-64zM1061 2091h57q-9 -66 -51 -119q-59 -74 -145 -74q-30 0 -56.5 6.5t-51.5 18.5l-60 29
q-60 26 -88 26q-66 0 -97 -80h-53q15 82 67 132.5t132 50.5q34 0 59 -9.5t78 -33.5q76 -37 109 -37q42 4 63 25t37 65z" />
    <glyph glyph-name="obhoanang" unicode="&#x1ed8;" horiz-adv-x="1610" 
d="M772 -41q-207 0 -373.5 91.5t-260 260.5t-93.5 394q0 208 94 379.5t269.5 269.5t406.5 98q220 0 390 -81t265 -238.5t95 -380.5q0 -217 -104.5 -399t-286.5 -288t-402 -106zM782 1366q-132 0 -229.5 -43.5t-161.5 -122.5t-95.5 -184.5t-31.5 -235.5q0 -137 33.5 -267.5
t105 -237.5t181.5 -168.5t254 -61.5q125 0 221.5 47t159.5 131.5t95 202.5t32 262q0 206 -62 358.5t-189.5 236t-312.5 83.5zM752 1796h110l230 -289h-64l-221 179l-221 -179h-64zM786 -145q42 0 72.5 -31.5t30.5 -71.5q0 -39 -31.5 -69.5t-71.5 -30.5q-38 0 -69 31t-31 69
q0 39 30 71t70 32z" />
    <glyph glyph-name="asacth" unicode="&#xf00a;" horiz-adv-x="0" 
d="M-719 1063l258 252q61 59 94 59q28 0 43 -17t15 -46q0 -26 -19 -44.5t-53 -37.5l-264 -166h-74z" />
    <glyph glyph-name="ahuyenth" unicode="&#xf00f;" horiz-adv-x="0" 
d="M-449 1063l-260 168q-35 21 -53 38.5t-18 43.5q0 28 14 45.5t43 17.5q35 0 94 -59l254 -254h-74z" />
    <glyph glyph-name="ahoith" unicode="&#xf014;" horiz-adv-x="0" 
d="M-672 1335l45 92q65 25 127 25q83 0 141 -33t58 -92q0 -35 -26.5 -63t-80.5 -66q-57 -40 -81.5 -60.5t-24.5 -43.5q0 -17 18 -35l-47 -12q-43 17 -43 55q0 24 17.5 45t60.5 59q88 62 88 107q0 28 -29.5 49t-82.5 24q-53 0 -72 -24l-21 -39z" />
    <glyph glyph-name="angath" unicode="&#xf019;" horiz-adv-x="0" 
d="M-315 1255h57q-9 -65 -51 -118q-59 -74 -146 -74q-31 0 -55.5 6t-57.5 21.5l-55 25.5q-59 27 -88 27q-66 0 -96 -80h-53q14 83 66 132.5t132 49.5q32 0 68 -13t70 -30q79 -37 108 -37q43 4 64 25t37 65z" />
    <glyph glyph-name="angath" unicode="&#xf01b;" horiz-adv-x="0" 
d="M-315 1255h57q-9 -65 -51 -118q-59 -74 -146 -74q-31 0 -55.5 6t-57.5 21.5l-55 25.5q-59 27 -88 27q-66 0 -96 -80h-53q14 83 66 132.5t132 49.5q32 0 68 -13t70 -30q79 -37 108 -37q43 4 64 25t37 65z" />
    <glyph glyph-name="angath" unicode="&#xf01a;" horiz-adv-x="0" 
d="M-315 1255h57q-9 -65 -51 -118q-59 -74 -146 -74q-31 0 -55.5 6t-57.5 21.5l-55 25.5q-59 27 -88 27q-66 0 -96 -80h-53q14 83 66 132.5t132 49.5q32 0 68 -13t70 -30q79 -37 108 -37q43 4 64 25t37 65z" />
    <glyph glyph-name="anangth" unicode="&#xf023;" horiz-adv-x="0" 
d="M-559 -143q41 0 71.5 -31.5t30.5 -71.5q0 -39 -31.5 -69.5t-70.5 -30.5q-38 0 -69 31t-31 69q0 39 30 71t70 32z" />
    <glyph glyph-name="anangth" unicode="&#xf02c;" horiz-adv-x="0" 
d="M-559 -143q41 0 71.5 -31.5t30.5 -71.5q0 -39 -31.5 -69.5t-70.5 -30.5q-38 0 -69 31t-31 69q0 39 30 71t70 32z" />
    <glyph glyph-name="anangth" unicode="&#xf028;" horiz-adv-x="0" 
d="M-559 -143q41 0 71.5 -31.5t30.5 -71.5q0 -39 -31.5 -69.5t-70.5 -30.5q-38 0 -69 31t-31 69q0 39 30 71t70 32z" />
    <glyph glyph-name="anangth" unicode="&#xf027;" horiz-adv-x="0" 
d="M-559 -143q41 0 71.5 -31.5t30.5 -71.5q0 -39 -31.5 -69.5t-70.5 -30.5q-38 0 -69 31t-31 69q0 39 30 71t70 32z" />
    <glyph glyph-name="anangth" unicode="&#xf026;" horiz-adv-x="0" 
d="M-559 -143q41 0 71.5 -31.5t30.5 -71.5q0 -39 -31.5 -69.5t-70.5 -30.5q-38 0 -69 31t-31 69q0 39 30 71t70 32z" />
    <glyph glyph-name="anangth" unicode="&#xf025;" horiz-adv-x="0" 
d="M-559 -143q41 0 71.5 -31.5t30.5 -71.5q0 -39 -31.5 -69.5t-70.5 -30.5q-38 0 -69 31t-31 69q0 39 30 71t70 32z" />
    <glyph glyph-name="anangth" unicode="&#xf024;" horiz-adv-x="0" 
d="M-559 -143q41 0 71.5 -31.5t30.5 -71.5q0 -39 -31.5 -69.5t-70.5 -30.5q-38 0 -69 31t-31 69q0 39 30 71t70 32z" />
    <glyph glyph-name="aasacth" unicode="&#xf009;" horiz-adv-x="0" 
d="M-563 1360l258 252q59 59 94 59q28 0 42.5 -17t14.5 -46q0 -26 -18 -43.5t-53 -38.5l-264 -166h-74z" />
    <glyph glyph-name="aahuyenth" unicode="&#xf00e;" horiz-adv-x="0" 
d="M-498 1360l-260 168q-35 21 -53 38.5t-18 43.5q0 28 14 45.5t43 17.5q33 0 94 -59l254 -254h-74z" />
    </font>
</defs>
</svg>
