<?xml version="1.0" standalone="no"?>
<!DOCTYPE svg PUBLIC "-//W3C//DTD SVG 20010904//EN"
 "http://www.w3.org/TR/2001/REC-SVG-20010904/DTD/svg10.dtd">
<svg version="1.0" xmlns="http://www.w3.org/2000/svg"
 width="512.000000pt" height="512.000000pt" viewBox="0 0 512.000000 512.000000"
 preserveAspectRatio="xMidYMid meet">
<metadata>
Created by potrace 1.11, written by Peter Selinger 2001-2013
</metadata>
<g transform="translate(0.000000,512.000000) scale(0.100000,-0.100000)"
fill="#000000" stroke="none">
<path d="M563 4463 c-23 -4 -23 -7 -23 -144 l0 -139 -165 0 -165 0 0 -1685 0
-1685 1057 -2 1057 -3 7 -32 c10 -48 34 -80 79 -103 57 -29 243 -29 300 0 45
23 69 55 79 103 l7 32 1057 3 1057 2 0 1685 0 1685 -165 0 -165 0 0 139 0 139
-31 6 c-118 23 -459 -11 -704 -70 -451 -109 -835 -317 -1182 -640 l-103 -95
-102 95 c-394 365 -850 591 -1373 680 -176 30 -441 45 -522 29z m371 -178
c556 -65 1094 -326 1469 -713 l77 -80 0 -1201 c0 -660 -3 -1201 -6 -1201 -4 0
-36 22 -73 49 -326 241 -792 419 -1286 490 -77 11 -185 23 -240 26 -55 3 -115
8 -132 11 l-33 5 0 1314 0 1315 48 0 c26 0 105 -7 176 -15z m3476 -1300 l0
-1314 -32 -5 c-18 -2 -98 -10 -178 -16 -553 -44 -1108 -235 -1481 -511 -37
-27 -69 -49 -73 -49 -3 0 -6 541 -6 1201 l0 1201 78 80 c316 327 758 570 1225
673 129 28 308 52 405 54 l62 1 0 -1315z m-3868 -227 l3 -1253 154 -7 c435
-18 829 -103 1172 -253 108 -47 292 -145 285 -152 -2 -2 -344 50 -760 117
-416 66 -767 120 -780 120 -37 0 -79 -56 -72 -94 13 -64 -1 -60 617 -158 316
-49 583 -94 594 -98 11 -5 -285 -8 -675 -7 l-695 2 -3 1518 -2 1517 80 0 80 0
2 -1252z m4196 -265 l-3 -1518 -694 -3 c-382 -1 -692 0 -689 4 3 3 270 48 594
99 632 101 617 97 630 161 7 39 -35 94 -72 94 -13 0 -365 -54 -780 -120 -416
-67 -758 -119 -760 -117 -9 8 197 114 326 168 341 142 707 219 1131 237 l154
7 3 1253 2 1252 80 0 80 0 -2 -1517z"/>
</g>
</svg>
